<?xml version="1.0" encoding="us-ascii" standalone="no"?><svg xmlns="http://www.w3.org/2000/svg" xmlns:xlink="http://www.w3.org/1999/xlink" contentStyleType="text/css" height="491px" preserveAspectRatio="none" style="width:958px;height:491px;background:#FFFFFF;" version="1.1" viewBox="0 0 958 491" width="958px" zoomAndPan="magnify"><defs/><g><!--class Workspace--><g id="elem_Workspace"><rect codeLine="1" fill="#F1F1F1" height="113.1875" id="Workspace" rx="2.5" ry="2.5" style="stroke:#181818;stroke-width:0.5;" width="196" x="399.5" y="7"/><ellipse cx="454.75" cy="23" fill="#ADD1B2" rx="11" ry="11" style="stroke:#181818;stroke-width:1.0;"/><path d="M457.7188,28.6406 Q457.1406,28.9375 456.5,29.0781 Q455.8594,29.2344 455.1563,29.2344 Q452.6563,29.2344 451.3281,27.5938 Q450.0156,25.9375 450.0156,22.8125 Q450.0156,19.6875 451.3281,18.0313 Q452.6563,16.375 455.1563,16.375 Q455.8594,16.375 456.5,16.5313 Q457.1563,16.6875 457.7188,16.9844 L457.7188,19.7031 Q457.0938,19.125 456.5,18.8594 Q455.9063,18.5781 455.2813,18.5781 Q453.9375,18.5781 453.25,19.6563 Q452.5625,20.7188 452.5625,22.8125 Q452.5625,24.9063 453.25,25.9844 Q453.9375,27.0469 455.2813,27.0469 Q455.9063,27.0469 456.5,26.7813 Q457.0938,26.5 457.7188,25.9219 L457.7188,28.6406 Z " fill="#000000"/><text fill="#000000" font-family="sans-serif" font-size="14" lengthAdjust="spacing" textLength="77" x="475.25" y="27.8467">Workspace</text><line style="stroke:#181818;stroke-width:0.5;" x1="400.5" x2="594.5" y1="39" y2="39"/><rect fill="none" height="6" style="stroke:#C82930;stroke-width:1.0;" width="6" x="407.5" y="49.6484"/><text fill="#000000" font-family="sans-serif" font-size="14" lengthAdjust="spacing" textLength="170" x="419.5" y="55.9951">Background_color: Color</text><line style="stroke:#181818;stroke-width:0.5;" x1="400.5" x2="594.5" y1="63.2969" y2="63.2969"/><ellipse cx="410.5" cy="76.9453" fill="#84BE84" rx="3" ry="3" style="stroke:#038048;stroke-width:1.0;"/><text fill="#000000" font-family="sans-serif" font-size="14" lengthAdjust="spacing" textLength="72" x="419.5" y="80.292">open_file()</text><ellipse cx="410.5" cy="93.2422" fill="#84BE84" rx="3" ry="3" style="stroke:#038048;stroke-width:1.0;"/><text fill="#000000" font-family="sans-serif" font-size="14" lengthAdjust="spacing" textLength="68" x="419.5" y="96.5889">save_file()</text><ellipse cx="410.5" cy="109.5391" fill="#84BE84" rx="3" ry="3" style="stroke:#038048;stroke-width:1.0;"/><text fill="#000000" font-family="sans-serif" font-size="14" lengthAdjust="spacing" textLength="80" x="419.5" y="112.8857">create_file()</text></g><!--class File--><g id="elem_File"><rect codeLine="8" fill="#F1F1F1" height="129.4844" id="File" rx="2.5" ry="2.5" style="stroke:#181818;stroke-width:0.5;" width="123" x="7" y="213.48"/><ellipse cx="52.75" cy="229.48" fill="#ADD1B2" rx="11" ry="11" style="stroke:#181818;stroke-width:1.0;"/><path d="M55.7188,235.1206 Q55.1406,235.4175 54.5,235.5581 Q53.8594,235.7144 53.1563,235.7144 Q50.6563,235.7144 49.3281,234.0738 Q48.0156,232.4175 48.0156,229.2925 Q48.0156,226.1675 49.3281,224.5113 Q50.6563,222.855 53.1563,222.855 Q53.8594,222.855 54.5,223.0113 Q55.1563,223.1675 55.7188,223.4644 L55.7188,226.1831 Q55.0938,225.605 54.5,225.3394 Q53.9063,225.0581 53.2813,225.0581 Q51.9375,225.0581 51.25,226.1363 Q50.5625,227.1988 50.5625,229.2925 Q50.5625,231.3863 51.25,232.4644 Q51.9375,233.5269 53.2813,233.5269 Q53.9063,233.5269 54.5,233.2613 Q55.0938,232.98 55.7188,232.4019 L55.7188,235.1206 Z " fill="#000000"/><text fill="#000000" font-family="sans-serif" font-size="14" lengthAdjust="spacing" textLength="23" x="73.25" y="234.3267">File</text><line style="stroke:#181818;stroke-width:0.5;" x1="8" x2="129" y1="245.48" y2="245.48"/><text fill="#000000" font-family="sans-serif" font-size="14" lengthAdjust="spacing" textLength="89" x="13" y="262.4751">Name: String</text><text fill="#000000" font-family="sans-serif" font-size="14" lengthAdjust="spacing" textLength="111" x="13" y="278.772">Directory: String</text><text fill="#000000" font-family="sans-serif" font-size="14" lengthAdjust="spacing" textLength="92" x="13" y="295.0689">height: Pixels</text><text fill="#000000" font-family="sans-serif" font-size="14" lengthAdjust="spacing" textLength="87" x="13" y="311.3657">Width: Pixels</text><text fill="#000000" font-family="sans-serif" font-size="14" lengthAdjust="spacing" textLength="74" x="13" y="327.6626">style: Style</text><line style="stroke:#181818;stroke-width:0.5;" x1="8" x2="129" y1="334.9644" y2="334.9644"/></g><!--class AI--><g id="elem_AI"><rect codeLine="16" fill="#F1F1F1" height="64.2969" id="AI" rx="2.5" ry="2.5" style="stroke:#181818;stroke-width:0.5;" width="139" x="165" y="246.08"/><ellipse cx="224.25" cy="262.08" fill="#ADD1B2" rx="11" ry="11" style="stroke:#181818;stroke-width:1.0;"/><path d="M227.2188,267.7206 Q226.6406,268.0175 226,268.1581 Q225.3594,268.3144 224.6563,268.3144 Q222.1563,268.3144 220.8281,266.6738 Q219.5156,265.0175 219.5156,261.8925 Q219.5156,258.7675 220.8281,257.1113 Q222.1563,255.455 224.6563,255.455 Q225.3594,255.455 226,255.6113 Q226.6563,255.7675 227.2188,256.0644 L227.2188,258.7831 Q226.5938,258.205 226,257.9394 Q225.4063,257.6581 224.7813,257.6581 Q223.4375,257.6581 222.75,258.7363 Q222.0625,259.7988 222.0625,261.8925 Q222.0625,263.9863 222.75,265.0644 Q223.4375,266.1269 224.7813,266.1269 Q225.4063,266.1269 226,265.8613 Q226.5938,265.58 227.2188,265.0019 L227.2188,267.7206 Z " fill="#000000"/><text fill="#000000" font-family="sans-serif" font-size="14" lengthAdjust="spacing" textLength="12" x="244.75" y="266.9267">AI</text><line style="stroke:#181818;stroke-width:0.5;" x1="166" x2="303" y1="278.08" y2="278.08"/><line style="stroke:#181818;stroke-width:0.5;" x1="166" x2="303" y1="286.08" y2="286.08"/><ellipse cx="176" cy="299.7284" fill="#84BE84" rx="3" ry="3" style="stroke:#038048;stroke-width:1.0;"/><text fill="#000000" font-family="sans-serif" font-size="14" lengthAdjust="spacing" textLength="113" x="185" y="303.0751">TransformStyle()</text></g><!--class Style--><g id="elem_Style"><rect codeLine="20" fill="#F1F1F1" height="64.2969" id="Style" rx="2.5" ry="2.5" style="stroke:#181818;stroke-width:0.5;" width="100" x="184.5" y="420.26"/><ellipse cx="215.25" cy="436.26" fill="#ADD1B2" rx="11" ry="11" style="stroke:#181818;stroke-width:1.0;"/><path d="M218.2188,441.9006 Q217.6406,442.1975 217,442.3381 Q216.3594,442.4944 215.6563,442.4944 Q213.1563,442.4944 211.8281,440.8538 Q210.5156,439.1975 210.5156,436.0725 Q210.5156,432.9475 211.8281,431.2913 Q213.1563,429.635 215.6563,429.635 Q216.3594,429.635 217,429.7913 Q217.6563,429.9475 218.2188,430.2444 L218.2188,432.9631 Q217.5938,432.385 217,432.1194 Q216.4063,431.8381 215.7813,431.8381 Q214.4375,431.8381 213.75,432.9163 Q213.0625,433.9788 213.0625,436.0725 Q213.0625,438.1663 213.75,439.2444 Q214.4375,440.3069 215.7813,440.3069 Q216.4063,440.3069 217,440.0413 Q217.5938,439.76 218.2188,439.1819 L218.2188,441.9006 Z " fill="#000000"/><text fill="#000000" font-family="sans-serif" font-size="14" lengthAdjust="spacing" textLength="33" x="232.75" y="441.1067">Style</text><line style="stroke:#181818;stroke-width:0.5;" x1="185.5" x2="283.5" y1="452.26" y2="452.26"/><text fill="#000000" font-family="sans-serif" font-size="14" lengthAdjust="spacing" textLength="88" x="190.5" y="469.2551">name: String</text><line style="stroke:#181818;stroke-width:0.5;" x1="185.5" x2="283.5" y1="476.5569" y2="476.5569"/></g><!--class Stylus--><g id="elem_Stylus"><rect codeLine="28" fill="#F1F1F1" height="145.7813" id="Stylus" rx="2.5" ry="2.5" style="stroke:#181818;stroke-width:0.5;" width="154" x="339.5" y="205.33"/><ellipse cx="391.75" cy="221.33" fill="#ADD1B2" rx="11" ry="11" style="stroke:#181818;stroke-width:1.0;"/><path d="M394.7188,226.9706 Q394.1406,227.2675 393.5,227.4081 Q392.8594,227.5644 392.1563,227.5644 Q389.6563,227.5644 388.3281,225.9237 Q387.0156,224.2675 387.0156,221.1425 Q387.0156,218.0175 388.3281,216.3612 Q389.6563,214.705 392.1563,214.705 Q392.8594,214.705 393.5,214.8612 Q394.1563,215.0175 394.7188,215.3144 L394.7188,218.0331 Q394.0938,217.455 393.5,217.1894 Q392.9063,216.9081 392.2813,216.9081 Q390.9375,216.9081 390.25,217.9862 Q389.5625,219.0487 389.5625,221.1425 Q389.5625,223.2362 390.25,224.3144 Q390.9375,225.3769 392.2813,225.3769 Q392.9063,225.3769 393.5,225.1112 Q394.0938,224.83 394.7188,224.2519 L394.7188,226.9706 Z " fill="#000000"/><text fill="#000000" font-family="sans-serif" font-size="14" lengthAdjust="spacing" textLength="41" x="412.25" y="226.1767">Stylus</text><line style="stroke:#181818;stroke-width:0.5;" x1="340.5" x2="492.5" y1="237.33" y2="237.33"/><text fill="#000000" font-family="sans-serif" font-size="14" lengthAdjust="spacing" textLength="112" x="345.5" y="254.3251">Button1: Button</text><text fill="#000000" font-family="sans-serif" font-size="14" lengthAdjust="spacing" textLength="112" x="345.5" y="270.622">Button2: Button</text><text fill="#000000" font-family="sans-serif" font-size="14" lengthAdjust="spacing" textLength="94" x="345.5" y="286.9189">Sensitivity: Int</text><text fill="#000000" font-family="sans-serif" font-size="14" lengthAdjust="spacing" textLength="77" x="345.5" y="303.2157">Size: Pixels</text><line style="stroke:#181818;stroke-width:0.5;" x1="340.5" x2="492.5" y1="310.5175" y2="310.5175"/><ellipse cx="350.5" cy="324.1659" fill="#84BE84" rx="3" ry="3" style="stroke:#038048;stroke-width:1.0;"/><text fill="#000000" font-family="sans-serif" font-size="14" lengthAdjust="spacing" textLength="128" x="359.5" y="327.5126">Adjust_Sensitivity()</text><ellipse cx="350.5" cy="340.4628" fill="#84BE84" rx="3" ry="3" style="stroke:#038048;stroke-width:1.0;"/><text fill="#000000" font-family="sans-serif" font-size="14" lengthAdjust="spacing" textLength="89" x="359.5" y="343.8095">Adjust_Size()</text></g><!--class Tablet--><g id="elem_Tablet"><rect codeLine="37" fill="#F1F1F1" height="96.8906" id="Tablet" rx="2.5" ry="2.5" style="stroke:#181818;stroke-width:0.5;" width="101" x="529" y="229.78"/><ellipse cx="555.7" cy="245.78" fill="#ADD1B2" rx="11" ry="11" style="stroke:#181818;stroke-width:1.0;"/><path d="M558.6688,251.4206 Q558.0906,251.7175 557.45,251.8581 Q556.8094,252.0144 556.1063,252.0144 Q553.6063,252.0144 552.2781,250.3738 Q550.9656,248.7175 550.9656,245.5925 Q550.9656,242.4675 552.2781,240.8113 Q553.6063,239.155 556.1063,239.155 Q556.8094,239.155 557.45,239.3113 Q558.1063,239.4675 558.6688,239.7644 L558.6688,242.4831 Q558.0438,241.905 557.45,241.6394 Q556.8563,241.3581 556.2313,241.3581 Q554.8875,241.3581 554.2,242.4363 Q553.5125,243.4988 553.5125,245.5925 Q553.5125,247.6863 554.2,248.7644 Q554.8875,249.8269 556.2313,249.8269 Q556.8563,249.8269 557.45,249.5613 Q558.0438,249.28 558.6688,248.7019 L558.6688,251.4206 Z " fill="#000000"/><text fill="#000000" font-family="sans-serif" font-size="14" lengthAdjust="spacing" textLength="43" x="572.3" y="250.6267">Tablet</text><line style="stroke:#181818;stroke-width:0.5;" x1="530" x2="629" y1="261.78" y2="261.78"/><text fill="#000000" font-family="sans-serif" font-size="14" lengthAdjust="spacing" textLength="89" x="535" y="278.7751">Name: String</text><line style="stroke:#181818;stroke-width:0.5;" x1="530" x2="629" y1="286.0769" y2="286.0769"/><ellipse cx="540" cy="299.7253" fill="#84BE84" rx="3" ry="3" style="stroke:#038048;stroke-width:1.0;"/><text fill="#000000" font-family="sans-serif" font-size="14" lengthAdjust="spacing" textLength="69" x="549" y="303.072">Turn_On()</text><ellipse cx="540" cy="316.0222" fill="#84BE84" rx="3" ry="3" style="stroke:#038048;stroke-width:1.0;"/><text fill="#000000" font-family="sans-serif" font-size="14" lengthAdjust="spacing" textLength="68" x="549" y="319.3689">Turn_Off()</text></g><!--class Tool--><g id="elem_Tool"><rect codeLine="44" fill="#F1F1F1" height="162.0781" id="Tool" rx="2.5" ry="2.5" style="stroke:#181818;stroke-width:0.5;" width="119" x="665" y="197.19"/><ellipse cx="705.65" cy="213.19" fill="#ADD1B2" rx="11" ry="11" style="stroke:#181818;stroke-width:1.0;"/><path d="M708.6188,218.8306 Q708.0406,219.1275 707.4,219.2681 Q706.7594,219.4244 706.0563,219.4244 Q703.5563,219.4244 702.2281,217.7838 Q700.9156,216.1275 700.9156,213.0025 Q700.9156,209.8775 702.2281,208.2213 Q703.5563,206.565 706.0563,206.565 Q706.7594,206.565 707.4,206.7213 Q708.0563,206.8775 708.6188,207.1744 L708.6188,209.8931 Q707.9938,209.315 707.4,209.0494 Q706.8063,208.7681 706.1813,208.7681 Q704.8375,208.7681 704.15,209.8463 Q703.4625,210.9088 703.4625,213.0025 Q703.4625,215.0963 704.15,216.1744 Q704.8375,217.2369 706.1813,217.2369 Q706.8063,217.2369 707.4,216.9713 Q707.9938,216.69 708.6188,216.1119 L708.6188,218.8306 Z " fill="#000000"/><text fill="#000000" font-family="sans-serif" font-size="14" lengthAdjust="spacing" textLength="30" x="725.35" y="218.0367">Tool</text><line style="stroke:#181818;stroke-width:0.5;" x1="666" x2="783" y1="229.19" y2="229.19"/><text fill="#000000" font-family="sans-serif" font-size="14" lengthAdjust="spacing" textLength="89" x="671" y="246.1851">Name: String</text><text fill="#000000" font-family="sans-serif" font-size="14" lengthAdjust="spacing" textLength="77" x="671" y="262.482">Size: Pixels</text><text fill="#000000" font-family="sans-serif" font-size="14" lengthAdjust="spacing" textLength="81" x="671" y="278.7789">Color: Color</text><line style="stroke:#181818;stroke-width:0.5;" x1="666" x2="783" y1="286.0806" y2="286.0806"/><ellipse cx="676" cy="299.7291" fill="#84BE84" rx="3" ry="3" style="stroke:#038048;stroke-width:1.0;"/><text fill="#000000" font-family="sans-serif" font-size="14" lengthAdjust="spacing" textLength="90" x="685" y="303.0757">Select_Tool()</text><ellipse cx="676" cy="316.0259" fill="#84BE84" rx="3" ry="3" style="stroke:#038048;stroke-width:1.0;"/><text fill="#000000" font-family="sans-serif" font-size="14" lengthAdjust="spacing" textLength="91" x="685" y="319.3726">Import_Tool()</text><ellipse cx="676" cy="332.3228" fill="#84BE84" rx="3" ry="3" style="stroke:#038048;stroke-width:1.0;"/><text fill="#000000" font-family="sans-serif" font-size="14" lengthAdjust="spacing" textLength="93" x="685" y="335.6695">Create_Tool()</text><ellipse cx="676" cy="348.6197" fill="#84BE84" rx="3" ry="3" style="stroke:#038048;stroke-width:1.0;"/><text fill="#000000" font-family="sans-serif" font-size="14" lengthAdjust="spacing" textLength="93" x="685" y="351.9664">Delete_Tool()</text></g><!--class User--><g id="elem_User"><rect codeLine="57" fill="#F1F1F1" height="80.5938" id="User" rx="2.5" ry="2.5" style="stroke:#181818;stroke-width:0.5;" width="127" x="819" y="237.93"/><ellipse cx="862.35" cy="253.93" fill="#ADD1B2" rx="11" ry="11" style="stroke:#181818;stroke-width:1.0;"/><path d="M865.3188,259.5706 Q864.7406,259.8675 864.1,260.0081 Q863.4594,260.1644 862.7563,260.1644 Q860.2563,260.1644 858.9281,258.5238 Q857.6156,256.8675 857.6156,253.7425 Q857.6156,250.6175 858.9281,248.9613 Q860.2563,247.305 862.7563,247.305 Q863.4594,247.305 864.1,247.4613 Q864.7563,247.6175 865.3188,247.9144 L865.3188,250.6331 Q864.6938,250.055 864.1,249.7894 Q863.5063,249.5081 862.8813,249.5081 Q861.5375,249.5081 860.85,250.5863 Q860.1625,251.6488 860.1625,253.7425 Q860.1625,255.8363 860.85,256.9144 Q861.5375,257.9769 862.8813,257.9769 Q863.5063,257.9769 864.1,257.7113 Q864.6938,257.43 865.3188,256.8519 L865.3188,259.5706 Z " fill="#000000"/><text fill="#000000" font-family="sans-serif" font-size="14" lengthAdjust="spacing" textLength="32" x="882.65" y="258.7767">User</text><line style="stroke:#181818;stroke-width:0.5;" x1="820" x2="945" y1="269.93" y2="269.93"/><text fill="#000000" font-family="sans-serif" font-size="14" lengthAdjust="spacing" textLength="88" x="825" y="286.9251">name: String</text><line style="stroke:#181818;stroke-width:0.5;" x1="820" x2="945" y1="294.2269" y2="294.2269"/><ellipse cx="830" cy="307.8753" fill="#84BE84" rx="3" ry="3" style="stroke:#038048;stroke-width:1.0;"/><text fill="#000000" font-family="sans-serif" font-size="14" lengthAdjust="spacing" textLength="101" x="839" y="311.222">Add_Account()</text></g><!--class Color--><g id="elem_Color"><rect codeLine="65" fill="#F1F1F1" height="64.2969" id="Color" rx="2.5" ry="2.5" style="stroke:#181818;stroke-width:0.5;" width="137" x="814" y="420.26"/><ellipse cx="860.25" cy="436.26" fill="#ADD1B2" rx="11" ry="11" style="stroke:#181818;stroke-width:1.0;"/><path d="M863.2188,441.9006 Q862.6406,442.1975 862,442.3381 Q861.3594,442.4944 860.6563,442.4944 Q858.1563,442.4944 856.8281,440.8538 Q855.5156,439.1975 855.5156,436.0725 Q855.5156,432.9475 856.8281,431.2913 Q858.1563,429.635 860.6563,429.635 Q861.3594,429.635 862,429.7913 Q862.6563,429.9475 863.2188,430.2444 L863.2188,432.9631 Q862.5938,432.385 862,432.1194 Q861.4063,431.8381 860.7813,431.8381 Q859.4375,431.8381 858.75,432.9163 Q858.0625,433.9788 858.0625,436.0725 Q858.0625,438.1663 858.75,439.2444 Q859.4375,440.3069 860.7813,440.3069 Q861.4063,440.3069 862,440.0413 Q862.5938,439.76 863.2188,439.1819 L863.2188,441.9006 Z " fill="#000000"/><text fill="#000000" font-family="sans-serif" font-size="14" lengthAdjust="spacing" textLength="36" x="880.75" y="441.1067">Color</text><line style="stroke:#181818;stroke-width:0.5;" x1="815" x2="950" y1="452.26" y2="452.26"/><text fill="#000000" font-family="sans-serif" font-size="14" lengthAdjust="spacing" textLength="125" x="820" y="469.2551">color_code: String</text><line style="stroke:#181818;stroke-width:0.5;" x1="815" x2="950" y1="476.5569" y2="476.5569"/></g><!--link Workspace to File--><g id="link_Workspace_File"><path codeLine="24" d="M399.02,89.55 C325.81,110.94 225.51,146.41 147.5,197.19 C140.3,201.87 137.7908,203.3997 131.0408,209.1997 " fill="none" id="Workspace-to-File" style="stroke:#181818;stroke-width:1.0;"/><polygon fill="#181818" points="126.49,213.11,135.923,210.2784,130.2823,209.8514,130.7093,204.2107,126.49,213.11" style="stroke:#181818;stroke-width:1.0;"/><polygon fill="#000000" points="228.9344,160.7949,238.3918,159.7908,235.9954,154.4237,228.9344,160.7949" style="stroke:#000000;stroke-width:1.0;"/><text fill="#000000" font-family="sans-serif" font-size="13" lengthAdjust="spacing" textLength="54" x="242.5" y="163.2569">contains</text><text fill="#000000" font-family="sans-serif" font-size="13" lengthAdjust="spacing" textLength="8" x="383.4941" y="87.9772">1</text><text fill="#000000" font-family="sans-serif" font-size="13" lengthAdjust="spacing" textLength="23" x="108.5748" y="202.2422">1..*</text></g><!--reverse link Workspace to AI--><g id="link_Workspace_AI"><path codeLine="25" d="M410.3597,127.5759 C379.2097,150.6659 352.95,170.98 321.5,197.19 C303.05,212.56 283.29,230.6 267.28,245.65 " fill="none" id="Workspace-backto-AI" style="stroke:#181818;stroke-width:1.0;"/><polygon fill="none" points="420,120.43,412.7979,120.7895,410.3597,127.5759,417.5618,127.2164,420,120.43" style="stroke:#181818;stroke-width:1.0;"/></g><!--link AI to Style--><g id="link_AI_Style"><path codeLine="26" d="M234.5,310.81 C234.5,341.87 234.5,383.03 234.5,414.03 " fill="none" id="AI-to-Style" style="stroke:#181818;stroke-width:1.0;"/><polygon fill="#181818" points="234.5,420.03,238.5,411.03,234.5,415.03,230.5,411.03,234.5,420.03" style="stroke:#181818;stroke-width:1.0;"/></g><!--link Workspace to Tool--><g id="link_Workspace_Tool"><path codeLine="43" d="M563.14,120.58 C589.76,143.81 620.53,171.33 647.5,197.19 C653.21,202.66 654.8247,204.1801 660.6347,210.0101 " fill="none" id="Workspace-to-Tool" style="stroke:#181818;stroke-width:1.0;"/><polygon fill="#181818" points="664.87,214.26,661.3503,205.0616,661.3405,210.7184,655.6837,210.7087,664.87,214.26" style="stroke:#181818;stroke-width:1.0;"/><polygon fill="#000000" points="620.1846,162.1363,615.5057,153.8563,611.5324,158.1878,620.1846,162.1363" style="stroke:#000000;stroke-width:1.0;"/><text fill="#000000" font-family="sans-serif" font-size="13" lengthAdjust="spacing" textLength="30" x="625.5" y="163.2569">uses</text><text fill="#000000" font-family="sans-serif" font-size="13" lengthAdjust="spacing" textLength="8" x="562.2671" y="140.1108">1</text><text fill="#000000" font-family="sans-serif" font-size="13" lengthAdjust="spacing" textLength="23" x="634.0902" y="203.5172">1..*</text></g><!--link Workspace to Stylus--><g id="link_Workspace_Stylus"><path codeLine="54" d="M476.22,120.46 C466.37,146.3 460.9656,160.4884 450.4556,188.0884 " fill="none" id="Workspace-to-Stylus" style="stroke:#181818;stroke-width:1.0;"/><polygon fill="none" points="444.05,204.91,456.0629,190.2236,444.8484,185.9531,444.05,204.91" style="stroke:#181818;stroke-width:1.0;"/></g><!--link Workspace to Tablet--><g id="link_Workspace_Tablet"><path codeLine="55" d="M519.04,120.46 C532.09,154.3 542.0944,180.2151 554.5444,212.5051 " fill="none" id="Workspace-to-Tablet" style="stroke:#181818;stroke-width:1.0;"/><polygon fill="none" points="561.02,229.3,560.1427,210.3466,548.9462,214.6637,561.02,229.3" style="stroke:#181818;stroke-width:1.0;"/></g><!--link Workspace to User--><g id="link_Workspace_User"><path codeLine="62" d="M595.99,97.01 C657.92,119.87 737.86,154.08 801.5,197.19 C818.2,208.49 830.2774,219.1884 843.7874,233.1484 " fill="none" id="Workspace-to-User" style="stroke:#181818;stroke-width:1.0;"/><polygon fill="#181818" points="847.96,237.46,844.5755,228.2109,844.4828,233.867,838.8268,233.7744,847.96,237.46" style="stroke:#181818;stroke-width:1.0;"/><text fill="#000000" font-family="sans-serif" font-size="13" lengthAdjust="spacing" textLength="8" x="603.5166" y="95.985">1</text><text fill="#000000" font-family="sans-serif" font-size="13" lengthAdjust="spacing" textLength="8" x="833.8177" y="226.8449">1</text></g><!--link User to Color--><g id="link_User_Color"><path codeLine="63" d="M882.5,318.73 C882.5,349.41 882.5,385.38 882.5,413.85 " fill="none" id="User-to-Color" style="stroke:#181818;stroke-width:1.0;"/><polygon fill="#181818" points="882.5,419.85,886.5,410.85,882.5,414.85,878.5,410.85,882.5,419.85" style="stroke:#181818;stroke-width:1.0;"/><text fill="#000000" font-family="sans-serif" font-size="13" lengthAdjust="spacing" textLength="23" x="857.3078" y="409.2934">1..*</text></g><!--SRC=[ZLF1JW8n4BtlLqmugMH9yBW74eIOS54JC1mtjJiBbTAITfQ8oB_RRHVf8XXFxRnfvxrvdNB9h8MvDYkxOHnXdm2ayC3uQc5qfOgSQwbD1gDwSRakw0sgl1GIRsvzRDaMuvWRPFI379A4Uuf75_lg-rAWB0xmnDQOmPICK8i87Wk3dBJPNSWjKIoMbC6B-41feyHS5BIyW5lQIK_YbfEKuSGBwSBCC6LBRTR-GApM0osvAfRhpfqiw_GxaAO3j_PwTvtGQ0PSAs92MHX4HtMQElR42QWl15aHOsLRb0yLaLRzhDdyojnVo4nHMK5YAyWPE54KfyGdHXvrOLYyLvRow4hpXCU4kn2RCcDl4kclHtIMLaRbpwef5AAo35MkMZRJMZhBAekrNGrPZVrZNiwwEiAZyx6TedHpbTTb6t6JzKQR5Z8AeniXOtVhXBHwIDElGVDgvsWmwcZRgqLpVPI2tqK-vDpzDxhkLCSNIdoroBlGOKFbWnQN_xxk4nVHy7u3]--></g></svg>