<?xml version="1.0" encoding="us-ascii" standalone="no"?><svg xmlns="http://www.w3.org/2000/svg" xmlns:xlink="http://www.w3.org/1999/xlink" contentStyleType="text/css" height="515px" preserveAspectRatio="none" style="width:855px;height:515px;background:#FFFFFF;" version="1.1" viewBox="0 0 855 515" width="855px" zoomAndPan="magnify"><defs/><g><!--entity U--><g id="elem_U"><ellipse cx="97" cy="222.5" fill="#F1F1F1" rx="8" ry="8" style="stroke:#181818;stroke-width:0.5;"/><path d="M97,230.5 L97,257.5 M84,238.5 L110,238.5 M97,257.5 L84,272.5 M97,257.5 L110,272.5 " fill="none" style="stroke:#181818;stroke-width:0.5;"/><text fill="#000000" font-family="sans-serif" font-size="14" lengthAdjust="spacing" textLength="68" x="63" y="286.9951">Utilisateur</text></g><!--entity S--><g id="elem_S"><ellipse cx="814.5" cy="403.5" fill="#F1F1F1" rx="8" ry="8" style="stroke:#181818;stroke-width:0.5;"/><path d="M814.5,411.5 L814.5,438.5 M801.5,419.5 L827.5,419.5 M814.5,438.5 L801.5,453.5 M814.5,438.5 L827.5,453.5 " fill="none" style="stroke:#181818;stroke-width:0.5;"/><text fill="#000000" font-family="sans-serif" font-size="14" lengthAdjust="spacing" textLength="41" x="794" y="467.9951">Stylus</text></g><!--entity T--><g id="elem_T"><ellipse cx="814.5" cy="110.5" fill="#F1F1F1" rx="8" ry="8" style="stroke:#181818;stroke-width:0.5;"/><path d="M814.5,118.5 L814.5,145.5 M801.5,126.5 L827.5,126.5 M814.5,145.5 L801.5,160.5 M814.5,145.5 L827.5,160.5 " fill="none" style="stroke:#181818;stroke-width:0.5;"/><text fill="#000000" font-family="sans-serif" font-size="14" lengthAdjust="spacing" textLength="43" x="793" y="174.9951">Tablet</text></g><!--entity AI--><g id="elem_AI"><ellipse cx="814.5" cy="222.5" fill="#F1F1F1" rx="8" ry="8" style="stroke:#181818;stroke-width:0.5;"/><path d="M814.5,230.5 L814.5,257.5 M801.5,238.5 L827.5,238.5 M814.5,257.5 L801.5,272.5 M814.5,257.5 L827.5,272.5 " fill="none" style="stroke:#181818;stroke-width:0.5;"/><text fill="#000000" font-family="sans-serif" font-size="14" lengthAdjust="spacing" textLength="67" x="781" y="286.9951">AI System</text></g><g id="elem_CU1"><ellipse cx="414.0468" cy="185.0094" fill="#F1F1F1" rx="133.0468" ry="29.0094" style="stroke:#181818;stroke-width:0.5;"/><text fill="#000000" font-family="sans-serif" font-size="14" lengthAdjust="spacing" textLength="235" x="296.5468" y="187.856">Cr&#233;er un Nouvel Espace de Travail</text></g><g id="elem_CU2"><ellipse cx="413.8343" cy="433.1669" fill="#F1F1F1" rx="73.8343" ry="17.1669" style="stroke:#181818;stroke-width:0.5;"/><text fill="#000000" font-family="sans-serif" font-size="14" lengthAdjust="spacing" textLength="103" x="359.3343" y="436.9144">Utiliser un Outil</text></g><g id="elem_CU3"><ellipse cx="413.9128" cy="251.9826" fill="#F1F1F1" rx="87.9128" ry="19.9826" style="stroke:#181818;stroke-width:0.5;"/><text fill="#000000" font-family="sans-serif" font-size="14" lengthAdjust="spacing" textLength="137" x="345.4128" y="254.8292">Transformer le Style</text></g><g id="elem_CU4"><ellipse cx="413.8658" cy="308.7732" fill="#F1F1F1" rx="81.8658" ry="18.7732" style="stroke:#181818;stroke-width:0.5;"/><text fill="#000000" font-family="sans-serif" font-size="14" lengthAdjust="spacing" textLength="123" x="351.3805" y="311.9463">G&#233;rer les Calques</text></g><g id="elem_CU5"><ellipse cx="414.0271" cy="371.8054" fill="#F1F1F1" rx="117.0271" ry="25.8054" style="stroke:#181818;stroke-width:0.5;"/><text fill="#000000" font-family="sans-serif" font-size="14" lengthAdjust="spacing" textLength="201" x="313.5271" y="374.6521">Appliquer des Filtres et Effets</text></g><g id="elem_CU6"><ellipse cx="413.8513" cy="41.7703" fill="#F1F1F1" rx="136.8513" ry="29.7703" style="stroke:#181818;stroke-width:0.5;"/><text fill="#000000" font-family="sans-serif" font-size="14" lengthAdjust="spacing" textLength="243" x="292.3513" y="44.6169">Enregistrer et Exporter des &#338;uvres</text></g><g id="elem_CU7"><ellipse cx="414.209" cy="114.0418" fill="#F1F1F1" rx="108.209" ry="24.0418" style="stroke:#181818;stroke-width:0.5;"/><text fill="#000000" font-family="sans-serif" font-size="14" lengthAdjust="spacing" textLength="182" x="323.209" y="116.8885">Utiliser la Tablette et Stylet</text></g><g id="elem_CU2a"><ellipse cx="96.9996" cy="432.0999" fill="#F1F1F1" rx="90.9996" ry="20.5999" style="stroke:#181818;stroke-width:0.5;"/><text fill="#000000" font-family="sans-serif" font-size="14" lengthAdjust="spacing" textLength="144" x="24.9996" y="434.9466">S&#233;lectionner un Outil</text></g><g id="elem_CU2b"><ellipse cx="96.9263" cy="489.7853" fill="#F1F1F1" rx="84.4263" ry="19.2853" style="stroke:#181818;stroke-width:0.5;"/><text fill="#000000" font-family="sans-serif" font-size="14" lengthAdjust="spacing" textLength="129" x="32.305" y="492.6739">Configurer un Outil</text></g><polygon fill="#181818" points="280.8129,213.116,271.1776,211.0759,275.9223,214.1562,272.842,218.9009,280.8129,213.116" style="stroke:#181818;stroke-width:1.0;"/><path d="M131.1152,244.9565 C166.8139,237.3634 220.0509,226.04 274.9442,214.3643 " fill="none" style="stroke:#181818;stroke-width:1.0;"/><polygon fill="#181818" points="339.8148,426.2188,331.6797,420.6673,334.8961,425.3207,330.2427,428.5372,339.8148,426.2188" style="stroke:#181818;stroke-width:1.0;"/><path d="M130.9152,290.2995 C164.0656,326.27 218.5515,378.6737 277,407 C296.3608,416.3829 312.9046,421.3053 333.9124,425.1411 " fill="none" style="stroke:#181818;stroke-width:1.0;"/><polygon fill="#181818" points="325.8071,252,316.8071,248,320.8071,252,316.8071,256,325.8071,252" style="stroke:#181818;stroke-width:1.0;"/><path d="M131.1152,252 C176.9233,252 255.2726,252 319.8071,252 " fill="none" style="stroke:#181818;stroke-width:1.0;"/><polygon fill="#181818" points="331.7565,294.2988,323.6126,288.7602,326.8364,293.4085,322.1881,296.6323,331.7565,294.2988" style="stroke:#181818;stroke-width:1.0;"/><path d="M131.1152,257.9923 C178.3449,266.5386 260.641,281.4303 325.8524,293.2304 " fill="none" style="stroke:#181818;stroke-width:1.0;"/><polygon fill="#181818" points="304.0495,345.9504,296.6033,339.5042,299.266,344.4952,294.275,347.1579,304.0495,345.9504" style="stroke:#181818;stroke-width:1.0;"/><path d="M131.1578,270.1124 C166.4826,288.8404 224.4401,317.9563 277,337 C285.7105,340.156 289.0913,341.4 298.3093,344.2042 " fill="none" style="stroke:#181818;stroke-width:1.0;"/><polygon fill="#181818" points="294.6826,72.0225,284.8338,72.0753,290.1244,74.0776,288.1221,79.3683,294.6826,72.0225" style="stroke:#181818;stroke-width:1.0;"/><path d="M128.2521,213.7803 C160.9705,174.923 216.6104,115.6496 277,81 C282.6458,77.7606 283.1103,77.2402 289.2128,74.4887 " fill="none" style="stroke:#181818;stroke-width:1.0;"/><polygon fill="#181818" points="305.8892,136.8297,296.1099,135.661,301.1114,138.3039,298.4686,143.3054,305.8892,136.8297" style="stroke:#181818;stroke-width:1.0;"/><path d="M131.1151,228.5568 C165.9363,204.8925 223.0576,168.8131 277,147 C286.235,143.2656 290.267,141.6499 300.1559,138.5987 " fill="none" style="stroke:#181818;stroke-width:1.0;"/><path d="M547.0302,181.968 C612.5188,178.547 692.4941,171.476 763,157 C772.968,154.9534 783.6936,151.5269 792.6854,148.2842 " fill="none" style="stroke:#181818;stroke-width:1.0;"/><text fill="#000000" font-family="sans-serif" font-size="13" lengthAdjust="spacing" textLength="170" x="581" y="153.0669">Connexion avec la tablette</text><path d="M488.091,433 C581.7886,433 738.7164,433 793.7256,433 " fill="none" style="stroke:#181818;stroke-width:1.0;"/><text fill="#000000" font-family="sans-serif" font-size="13" lengthAdjust="spacing" textLength="192" x="570" y="429.0669">Utilisation du stylet pour l'outil</text><path d="M502.4525,252 C590.2022,252 720.7242,252 780.9247,252 " fill="none" style="stroke:#181818;stroke-width:1.0;"/><text fill="#000000" font-family="sans-serif" font-size="13" lengthAdjust="spacing" textLength="122" x="605" y="248.0669">Acc&#232;s aux styles IA</text><path d="M522.0527,120.9846 C615.4205,127.0764 743.4378,135.4288 792.8672,138.6538 " fill="none" style="stroke:#181818;stroke-width:1.0;"/><text fill="#000000" font-family="sans-serif" font-size="13" lengthAdjust="spacing" textLength="170" x="581" y="120.0669">Connexion avec la tablette</text><polygon fill="#181818" points="339.937,432.7681,330.9498,428.7395,334.9371,432.7522,330.9244,436.7395,339.937,432.7681" style="stroke:#181818;stroke-width:1.0;"/><path d="M188.2664,432.2866 C236.3526,432.4392 288.7323,432.6055 333.9371,432.749 " fill="none" style="stroke:#181818;stroke-width:1.0;stroke-dasharray:7.0,7.0;"/><text fill="#000000" font-family="sans-serif" font-size="13" lengthAdjust="spacing" textLength="51" x="207" y="428.0669">extends</text><polygon fill="#181818" points="339.7581,446.2533,330.1896,443.9198,334.838,447.1436,331.6141,451.7919,339.7581,446.2533" style="stroke:#181818;stroke-width:1.0;"/><path d="M181.5872,474.8747 C230.7991,465.9697 286.5576,455.8801 333.854,447.3217 " fill="none" style="stroke:#181818;stroke-width:1.0;stroke-dasharray:7.0,7.0;"/><text fill="#000000" font-family="sans-serif" font-size="13" lengthAdjust="spacing" textLength="51" x="207" y="457.0669">extends</text><!--SRC=[ZP9DRjim48NtFCN4cwmIe7P-W2uA284RU9CiP1zWB8zS0XIfaaF3laPEKP_3wBqwf6afGBpeIgEdxt7UZ7ZJUzns235GJRyZsORUOhSc3wvjrKtvQl3W8aFeYD6YKePQ1dRWzVONmqPxQbWxgnGsx3oiM1iTa2bwm02h8jTyC34afIxA4jU6E2dBeaog1TI7mDHDabmjb99e3GQ2oOi_7ILOjF3cueuCp4EF3S66OEbnXzfapylgs-WvHpcxtYCFo7H4n6j3wtmdbA6SaWer6wdNqz5dG7GqigbGc8UHgVhUQFda9LA0dzgmbwSCE6zRuelXSJJChQUj3fnEJjY-TvwB_Uz7tFcXozELaGoM1J8bTmxEXN_-jBVwT3Jd7sIlB08_BTZPLc-ZlqAjbLh1tTsFlDrBDHsgsL0z3DNZK3qDbSII0-G5bl0zDxIqbs20EshIG5m6cWWtJLoTkCk5IkGcGiYJGk_aVfbRbtCAFqkyt1ynL4rp-YDNBUxFS815bP3d_sgTUYFSt-SP1QOzazs49A-_oly0]--></g></svg>