<?xml version="1.0" encoding="us-ascii" standalone="no"?><svg xmlns="http://www.w3.org/2000/svg" xmlns:xlink="http://www.w3.org/1999/xlink" contentStyleType="text/css" height="1251px" preserveAspectRatio="none" style="width:1186px;height:1251px;background:#FFFFFF;" version="1.1" viewBox="0 0 1186 1251" width="1186px" zoomAndPan="magnify"><defs/><g><text fill="#000000" font-family="sans-serif" font-size="14" font-weight="bold" lengthAdjust="spacing" textLength="225" x="473.5" y="22.9951">Diagramme de classe raffin&#233;</text><!--class User--><g id="elem_User"><rect codeLine="3" fill="#F1F1F1" height="96.8906" id="User" rx="2.5" ry="2.5" style="stroke:#181818;stroke-width:0.5;" width="406" x="7" y="332.2669"/><ellipse cx="189.75" cy="348.2669" fill="#ADD1B2" rx="11" ry="11" style="stroke:#181818;stroke-width:1.0;"/><path d="M192.7188,353.9075 Q192.1406,354.2044 191.5,354.345 Q190.8594,354.5013 190.1563,354.5013 Q187.6563,354.5013 186.3281,352.8606 Q185.0156,351.2044 185.0156,348.0794 Q185.0156,344.9544 186.3281,343.2981 Q187.6563,341.6419 190.1563,341.6419 Q190.8594,341.6419 191.5,341.7981 Q192.1563,341.9544 192.7188,342.2513 L192.7188,344.97 Q192.0938,344.3919 191.5,344.1263 Q190.9063,343.845 190.2813,343.845 Q188.9375,343.845 188.25,344.9231 Q187.5625,345.9856 187.5625,348.0794 Q187.5625,350.1731 188.25,351.2513 Q188.9375,352.3138 190.2813,352.3138 Q190.9063,352.3138 191.5,352.0481 Q192.0938,351.7669 192.7188,351.1888 L192.7188,353.9075 Z " fill="#000000"/><text fill="#000000" font-family="sans-serif" font-size="14" lengthAdjust="spacing" textLength="32" x="210.25" y="353.1136">User</text><line style="stroke:#181818;stroke-width:0.5;" x1="8" x2="412" y1="364.2669" y2="364.2669"/><rect fill="none" height="6" style="stroke:#C82930;stroke-width:1.0;" width="6" x="15" y="374.9153"/><text fill="#000000" font-family="sans-serif" font-size="14" lengthAdjust="spacing" textLength="80" x="27" y="381.262">nom: String</text><line style="stroke:#181818;stroke-width:0.5;" x1="8" x2="412" y1="388.5638" y2="388.5638"/><ellipse cx="18" cy="402.2122" fill="#84BE84" rx="3" ry="3" style="stroke:#038048;stroke-width:1.0;"/><text fill="#000000" font-family="sans-serif" font-size="14" lengthAdjust="spacing" textLength="380" x="27" y="405.5589">utiliserEspaceDeTravail(espace: EspaceDeTravail): void</text><ellipse cx="18" cy="418.5091" fill="#84BE84" rx="3" ry="3" style="stroke:#038048;stroke-width:1.0;"/><text fill="#000000" font-family="sans-serif" font-size="14" lengthAdjust="spacing" textLength="214" x="27" y="421.8557">enregistrerProjet(file: File): void</text></g><!--class EspaceDeTravail--><g id="elem_EspaceDeTravail"><rect codeLine="9" fill="#F1F1F1" height="145.7813" id="EspaceDeTravail" rx="2.5" ry="2.5" style="stroke:#181818;stroke-width:0.5;" width="210" x="498" y="538.7569"/><ellipse cx="541.8" cy="554.7569" fill="#ADD1B2" rx="11" ry="11" style="stroke:#181818;stroke-width:1.0;"/><path d="M544.7688,560.3975 Q544.1906,560.6944 543.55,560.835 Q542.9094,560.9913 542.2063,560.9913 Q539.7063,560.9913 538.3781,559.3506 Q537.0656,557.6944 537.0656,554.5694 Q537.0656,551.4444 538.3781,549.7881 Q539.7063,548.1319 542.2063,548.1319 Q542.9094,548.1319 543.55,548.2881 Q544.2063,548.4444 544.7688,548.7413 L544.7688,551.46 Q544.1438,550.8819 543.55,550.6163 Q542.9563,550.335 542.3313,550.335 Q540.9875,550.335 540.3,551.4131 Q539.6125,552.4756 539.6125,554.5694 Q539.6125,556.6631 540.3,557.7413 Q540.9875,558.8038 542.3313,558.8038 Q542.9563,558.8038 543.55,558.5381 Q544.1438,558.2569 544.7688,557.6788 L544.7688,560.3975 Z " fill="#000000"/><text fill="#000000" font-family="sans-serif" font-size="14" lengthAdjust="spacing" textLength="114" x="562.2" y="559.6036">EspaceDeTravail</text><line style="stroke:#181818;stroke-width:0.5;" x1="499" x2="707" y1="570.7569" y2="570.7569"/><rect fill="none" height="6" style="stroke:#C82930;stroke-width:1.0;" width="6" x="506" y="581.4053"/><text fill="#000000" font-family="sans-serif" font-size="14" lengthAdjust="spacing" textLength="171" x="518" y="587.752">dimensions: Dimensions</text><rect fill="none" height="6" style="stroke:#C82930;stroke-width:1.0;" width="6" x="506" y="597.7022"/><text fill="#000000" font-family="sans-serif" font-size="14" lengthAdjust="spacing" textLength="158" x="518" y="604.0489">calques: List&lt;Calque&gt;</text><rect fill="none" height="6" style="stroke:#C82930;stroke-width:1.0;" width="6" x="506" y="613.9991"/><text fill="#000000" font-family="sans-serif" font-size="14" lengthAdjust="spacing" textLength="146" x="518" y="620.3457">background: Couleur</text><rect fill="none" height="6" style="stroke:#C82930;stroke-width:1.0;" width="6" x="506" y="630.2959"/><text fill="#000000" font-family="sans-serif" font-size="14" lengthAdjust="spacing" textLength="95" x="518" y="636.6426">resolution: int</text><line style="stroke:#181818;stroke-width:0.5;" x1="499" x2="707" y1="643.9444" y2="643.9444"/><ellipse cx="509" cy="657.5928" fill="#84BE84" rx="3" ry="3" style="stroke:#038048;stroke-width:1.0;"/><text fill="#000000" font-family="sans-serif" font-size="14" lengthAdjust="spacing" textLength="151" x="518" y="660.9395">cr&#233;erCalque(): Calque</text><ellipse cx="509" cy="673.8897" fill="#84BE84" rx="3" ry="3" style="stroke:#038048;stroke-width:1.0;"/><text fill="#000000" font-family="sans-serif" font-size="14" lengthAdjust="spacing" textLength="184" x="518" y="677.2364">sauvegarder(file: File): void</text></g><!--class Calque--><g id="elem_Calque"><rect codeLine="18" fill="#F1F1F1" height="227.2656" id="Calque" rx="2.5" ry="2.5" style="stroke:#181818;stroke-width:0.5;" width="251" x="636.5" y="761.5369"/><ellipse cx="733.75" cy="777.5369" fill="#ADD1B2" rx="11" ry="11" style="stroke:#181818;stroke-width:1.0;"/><path d="M736.7188,783.1775 Q736.1406,783.4744 735.5,783.615 Q734.8594,783.7713 734.1563,783.7713 Q731.6563,783.7713 730.3281,782.1306 Q729.0156,780.4744 729.0156,777.3494 Q729.0156,774.2244 730.3281,772.5681 Q731.6563,770.9119 734.1563,770.9119 Q734.8594,770.9119 735.5,771.0681 Q736.1563,771.2244 736.7188,771.5213 L736.7188,774.24 Q736.0938,773.6619 735.5,773.3963 Q734.9063,773.115 734.2813,773.115 Q732.9375,773.115 732.25,774.1931 Q731.5625,775.2556 731.5625,777.3494 Q731.5625,779.4431 732.25,780.5213 Q732.9375,781.5838 734.2813,781.5838 Q734.9063,781.5838 735.5,781.3181 Q736.0938,781.0369 736.7188,780.4588 L736.7188,783.1775 Z " fill="#000000"/><text fill="#000000" font-family="sans-serif" font-size="14" lengthAdjust="spacing" textLength="48" x="754.25" y="782.3836">Calque</text><line style="stroke:#181818;stroke-width:0.5;" x1="637.5" x2="886.5" y1="793.5369" y2="793.5369"/><rect fill="none" height="6" style="stroke:#C82930;stroke-width:1.0;" width="6" x="644.5" y="804.1853"/><text fill="#000000" font-family="sans-serif" font-size="14" lengthAdjust="spacing" textLength="80" x="656.5" y="810.532">nom: String</text><rect fill="none" height="6" style="stroke:#C82930;stroke-width:1.0;" width="6" x="644.5" y="820.4822"/><text fill="#000000" font-family="sans-serif" font-size="14" lengthAdjust="spacing" textLength="89" x="656.5" y="826.8289">opacit&#233;: float</text><rect fill="none" height="6" style="stroke:#C82930;stroke-width:1.0;" width="6" x="644.5" y="836.7791"/><text fill="#000000" font-family="sans-serif" font-size="14" lengthAdjust="spacing" textLength="81" x="656.5" y="843.1257">visible: bool</text><rect fill="none" height="6" style="stroke:#C82930;stroke-width:1.0;" width="6" x="644.5" y="853.0759"/><text fill="#000000" font-family="sans-serif" font-size="14" lengthAdjust="spacing" textLength="127" x="656.5" y="859.4226">contenu: Contenu</text><rect fill="none" height="6" style="stroke:#C82930;stroke-width:1.0;" width="6" x="644.5" y="869.3728"/><text fill="#000000" font-family="sans-serif" font-size="14" lengthAdjust="spacing" textLength="101" x="656.5" y="875.7195">verrouill&#233;: bool</text><line style="stroke:#181818;stroke-width:0.5;" x1="637.5" x2="886.5" y1="883.0213" y2="883.0213"/><ellipse cx="647.5" cy="896.6697" fill="#84BE84" rx="3" ry="3" style="stroke:#038048;stroke-width:1.0;"/><text fill="#000000" font-family="sans-serif" font-size="14" lengthAdjust="spacing" textLength="225" x="656.5" y="900.0164">fusionner(autre: Calque): Calque</text><ellipse cx="647.5" cy="912.9666" fill="#84BE84" rx="3" ry="3" style="stroke:#038048;stroke-width:1.0;"/><text fill="#000000" font-family="sans-serif" font-size="14" lengthAdjust="spacing" textLength="132" x="656.5" y="916.3132">dupliquer(): Calque</text><ellipse cx="647.5" cy="929.2634" fill="#84BE84" rx="3" ry="3" style="stroke:#038048;stroke-width:1.0;"/><text fill="#000000" font-family="sans-serif" font-size="14" lengthAdjust="spacing" textLength="114" x="656.5" y="932.6101">verrouiller(): void</text><ellipse cx="647.5" cy="945.5603" fill="#84BE84" rx="3" ry="3" style="stroke:#038048;stroke-width:1.0;"/><text fill="#000000" font-family="sans-serif" font-size="14" lengthAdjust="spacing" textLength="132" x="656.5" y="948.907">d&#233;verrouiller(): void</text><ellipse cx="647.5" cy="961.8572" fill="#84BE84" rx="3" ry="3" style="stroke:#038048;stroke-width:1.0;"/><text fill="#000000" font-family="sans-serif" font-size="14" lengthAdjust="spacing" textLength="211" x="656.5" y="965.2039">appliquerOutil(outil: Outil): void</text><ellipse cx="647.5" cy="978.1541" fill="#84BE84" rx="3" ry="3" style="stroke:#038048;stroke-width:1.0;"/><text fill="#000000" font-family="sans-serif" font-size="14" lengthAdjust="spacing" textLength="215" x="656.5" y="981.5007">appliquerFiltre(filtre: Filtre): void</text></g><!--class Outil--><g id="elem_Outil"><rect codeLine="32" fill="#F1F1F1" height="178.375" id="Outil" rx="2.5" ry="2.5" style="stroke:#181818;stroke-width:0.5;" width="329" x="217.5" y="1065.7969"/><ellipse cx="362.25" cy="1081.7969" fill="#ADD1B2" rx="11" ry="11" style="stroke:#181818;stroke-width:1.0;"/><path d="M365.2188,1087.4375 Q364.6406,1087.7344 364,1087.875 Q363.3594,1088.0313 362.6563,1088.0313 Q360.1563,1088.0313 358.8281,1086.3906 Q357.5156,1084.7344 357.5156,1081.6094 Q357.5156,1078.4844 358.8281,1076.8281 Q360.1563,1075.1719 362.6563,1075.1719 Q363.3594,1075.1719 364,1075.3281 Q364.6563,1075.4844 365.2188,1075.7813 L365.2188,1078.5 Q364.5938,1077.9219 364,1077.6563 Q363.4063,1077.375 362.7813,1077.375 Q361.4375,1077.375 360.75,1078.4531 Q360.0625,1079.5156 360.0625,1081.6094 Q360.0625,1083.7031 360.75,1084.7813 Q361.4375,1085.8438 362.7813,1085.8438 Q363.4063,1085.8438 364,1085.5781 Q364.5938,1085.2969 365.2188,1084.7188 L365.2188,1087.4375 Z " fill="#000000"/><text fill="#000000" font-family="sans-serif" font-size="14" lengthAdjust="spacing" textLength="31" x="382.75" y="1086.6436">Outil</text><line style="stroke:#181818;stroke-width:0.5;" x1="218.5" x2="545.5" y1="1097.7969" y2="1097.7969"/><rect fill="none" height="6" style="stroke:#C82930;stroke-width:1.0;" width="6" x="225.5" y="1108.4453"/><text fill="#000000" font-family="sans-serif" font-size="14" lengthAdjust="spacing" textLength="80" x="237.5" y="1114.792">nom: String</text><rect fill="none" height="6" style="stroke:#C82930;stroke-width:1.0;" width="6" x="225.5" y="1124.7422"/><text fill="#000000" font-family="sans-serif" font-size="14" lengthAdjust="spacing" textLength="89" x="237.5" y="1131.0889">opacit&#233;: float</text><rect fill="none" height="6" style="stroke:#C82930;stroke-width:1.0;" width="6" x="225.5" y="1141.0391"/><text fill="#000000" font-family="sans-serif" font-size="14" lengthAdjust="spacing" textLength="69" x="237.5" y="1147.3857">taille: float</text><rect fill="none" height="6" style="stroke:#C82930;stroke-width:1.0;" width="6" x="225.5" y="1157.3359"/><text fill="#000000" font-family="sans-serif" font-size="14" lengthAdjust="spacing" textLength="84" x="237.5" y="1163.6826">duret&#233;: float</text><line style="stroke:#181818;stroke-width:0.5;" x1="218.5" x2="545.5" y1="1170.9844" y2="1170.9844"/><ellipse cx="228.5" cy="1184.6328" fill="#84BE84" rx="3" ry="3" style="stroke:#038048;stroke-width:1.0;"/><text fill="#000000" font-family="sans-serif" font-size="14" lengthAdjust="spacing" textLength="303" x="237.5" y="1187.9795">appliquer(calque: Calque, zone: Zone): void</text><ellipse cx="228.5" cy="1200.9297" fill="#84BE84" rx="3" ry="3" style="stroke:#038048;stroke-width:1.0;"/><text fill="#000000" font-family="sans-serif" font-size="14" lengthAdjust="spacing" textLength="284" x="237.5" y="1204.2764">configurer(param&#232;tres: Param&#232;tres): void</text><ellipse cx="228.5" cy="1217.2266" fill="#84BE84" rx="3" ry="3" style="stroke:#038048;stroke-width:1.0;"/><text fill="#000000" font-family="sans-serif" font-size="14" lengthAdjust="spacing" textLength="206" x="237.5" y="1220.5732">modifierTaille(taille: float): void</text><ellipse cx="228.5" cy="1233.5234" fill="#84BE84" rx="3" ry="3" style="stroke:#038048;stroke-width:1.0;"/><text fill="#000000" font-family="sans-serif" font-size="14" lengthAdjust="spacing" textLength="244" x="237.5" y="1236.8701">modifierOpacit&#233;(opacit&#233;: float): void</text></g><!--class Filtre--><g id="elem_Filtre"><rect codeLine="43" fill="#F1F1F1" height="129.4844" id="Filtre" rx="2.5" ry="2.5" style="stroke:#181818;stroke-width:0.5;" width="361" x="581.5" y="1090.2469"/><ellipse cx="741.25" cy="1106.2469" fill="#ADD1B2" rx="11" ry="11" style="stroke:#181818;stroke-width:1.0;"/><path d="M744.2188,1111.8875 Q743.6406,1112.1844 743,1112.325 Q742.3594,1112.4813 741.6563,1112.4813 Q739.1563,1112.4813 737.8281,1110.8406 Q736.5156,1109.1844 736.5156,1106.0594 Q736.5156,1102.9344 737.8281,1101.2781 Q739.1563,1099.6219 741.6563,1099.6219 Q742.3594,1099.6219 743,1099.7781 Q743.6563,1099.9344 744.2188,1100.2313 L744.2188,1102.95 Q743.5938,1102.3719 743,1102.1063 Q742.4063,1101.825 741.7813,1101.825 Q740.4375,1101.825 739.75,1102.9031 Q739.0625,1103.9656 739.0625,1106.0594 Q739.0625,1108.1531 739.75,1109.2313 Q740.4375,1110.2938 741.7813,1110.2938 Q742.4063,1110.2938 743,1110.0281 Q743.5938,1109.7469 744.2188,1109.1688 L744.2188,1111.8875 Z " fill="#000000"/><text fill="#000000" font-family="sans-serif" font-size="14" lengthAdjust="spacing" textLength="33" x="761.75" y="1111.0936">Filtre</text><line style="stroke:#181818;stroke-width:0.5;" x1="582.5" x2="941.5" y1="1122.2469" y2="1122.2469"/><rect fill="none" height="6" style="stroke:#C82930;stroke-width:1.0;" width="6" x="589.5" y="1132.8953"/><text fill="#000000" font-family="sans-serif" font-size="14" lengthAdjust="spacing" textLength="80" x="601.5" y="1139.242">nom: String</text><rect fill="none" height="6" style="stroke:#C82930;stroke-width:1.0;" width="6" x="589.5" y="1149.1922"/><text fill="#000000" font-family="sans-serif" font-size="14" lengthAdjust="spacing" textLength="98" x="601.5" y="1155.5389">intensit&#233;: float</text><rect fill="none" height="6" style="stroke:#C82930;stroke-width:1.0;" width="6" x="589.5" y="1165.4891"/><text fill="#000000" font-family="sans-serif" font-size="14" lengthAdjust="spacing" textLength="218" x="601.5" y="1171.8357">param&#232;tres: Map&lt;String, float&gt;</text><line style="stroke:#181818;stroke-width:0.5;" x1="582.5" x2="941.5" y1="1179.1375" y2="1179.1375"/><ellipse cx="592.5" cy="1192.7859" fill="#84BE84" rx="3" ry="3" style="stroke:#038048;stroke-width:1.0;"/><text fill="#000000" font-family="sans-serif" font-size="14" lengthAdjust="spacing" textLength="214" x="601.5" y="1196.1326">appliquer(calque: Calque): void</text><ellipse cx="592.5" cy="1209.0828" fill="#84BE84" rx="3" ry="3" style="stroke:#038048;stroke-width:1.0;"/><text fill="#000000" font-family="sans-serif" font-size="14" lengthAdjust="spacing" textLength="335" x="601.5" y="1212.4295">configurer(param&#232;tres: Map&lt;String, float&gt;): void</text></g><!--class AI--><g id="elem_AI"><rect codeLine="51" fill="#F1F1F1" height="96.8906" id="AI" rx="2.5" ry="2.5" style="stroke:#181818;stroke-width:0.5;" width="355" x="743.5" y="563.1969"/><ellipse cx="910.75" cy="579.1969" fill="#ADD1B2" rx="11" ry="11" style="stroke:#181818;stroke-width:1.0;"/><path d="M913.7188,584.8375 Q913.1406,585.1344 912.5,585.275 Q911.8594,585.4313 911.1563,585.4313 Q908.6563,585.4313 907.3281,583.7906 Q906.0156,582.1344 906.0156,579.0094 Q906.0156,575.8844 907.3281,574.2281 Q908.6563,572.5719 911.1563,572.5719 Q911.8594,572.5719 912.5,572.7281 Q913.1563,572.8844 913.7188,573.1813 L913.7188,575.9 Q913.0938,575.3219 912.5,575.0563 Q911.9063,574.775 911.2813,574.775 Q909.9375,574.775 909.25,575.8531 Q908.5625,576.9156 908.5625,579.0094 Q908.5625,581.1031 909.25,582.1813 Q909.9375,583.2438 911.2813,583.2438 Q911.9063,583.2438 912.5,582.9781 Q913.0938,582.6969 913.7188,582.1188 L913.7188,584.8375 Z " fill="#000000"/><text fill="#000000" font-family="sans-serif" font-size="14" lengthAdjust="spacing" textLength="12" x="931.25" y="584.0436">AI</text><line style="stroke:#181818;stroke-width:0.5;" x1="744.5" x2="1097.5" y1="595.1969" y2="595.1969"/><rect fill="none" height="6" style="stroke:#C82930;stroke-width:1.0;" width="6" x="751.5" y="605.8453"/><text fill="#000000" font-family="sans-serif" font-size="14" lengthAdjust="spacing" textLength="175" x="763.5" y="612.192">styleOptions: List&lt;Style&gt;</text><line style="stroke:#181818;stroke-width:0.5;" x1="744.5" x2="1097.5" y1="619.4938" y2="619.4938"/><ellipse cx="754.5" cy="633.1422" fill="#84BE84" rx="3" ry="3" style="stroke:#038048;stroke-width:1.0;"/><text fill="#000000" font-family="sans-serif" font-size="14" lengthAdjust="spacing" textLength="329" x="763.5" y="636.4889">appliquerStyle(calque: Calque, style: Style): void</text><ellipse cx="754.5" cy="649.4391" fill="#84BE84" rx="3" ry="3" style="stroke:#038048;stroke-width:1.0;"/><text fill="#000000" font-family="sans-serif" font-size="14" lengthAdjust="spacing" textLength="148" x="763.5" y="652.7857">sugg&#233;rerStyle(): Style</text></g><!--class Stylus--><g id="elem_Stylus"><rect codeLine="57" fill="#F1F1F1" height="178.375" id="Stylus" rx="2.5" ry="2.5" style="stroke:#181818;stroke-width:0.5;" width="288" x="459" y="44.2969"/><ellipse cx="578.25" cy="60.2969" fill="#ADD1B2" rx="11" ry="11" style="stroke:#181818;stroke-width:1.0;"/><path d="M581.2188,65.9375 Q580.6406,66.2344 580,66.375 Q579.3594,66.5313 578.6563,66.5313 Q576.1563,66.5313 574.8281,64.8906 Q573.5156,63.2344 573.5156,60.1094 Q573.5156,56.9844 574.8281,55.3281 Q576.1563,53.6719 578.6563,53.6719 Q579.3594,53.6719 580,53.8281 Q580.6563,53.9844 581.2188,54.2813 L581.2188,57 Q580.5938,56.4219 580,56.1563 Q579.4063,55.875 578.7813,55.875 Q577.4375,55.875 576.75,56.9531 Q576.0625,58.0156 576.0625,60.1094 Q576.0625,62.2031 576.75,63.2813 Q577.4375,64.3438 578.7813,64.3438 Q579.4063,64.3438 580,64.0781 Q580.5938,63.7969 581.2188,63.2188 L581.2188,65.9375 Z " fill="#000000"/><text fill="#000000" font-family="sans-serif" font-size="14" lengthAdjust="spacing" textLength="41" x="598.75" y="65.1436">Stylus</text><line style="stroke:#181818;stroke-width:0.5;" x1="460" x2="746" y1="76.2969" y2="76.2969"/><rect fill="none" height="6" style="stroke:#C82930;stroke-width:1.0;" width="6" x="467" y="86.9453"/><text fill="#000000" font-family="sans-serif" font-size="14" lengthAdjust="spacing" textLength="98" x="479" y="93.292">pression: float</text><rect fill="none" height="6" style="stroke:#C82930;stroke-width:1.0;" width="6" x="467" y="103.2422"/><text fill="#000000" font-family="sans-serif" font-size="14" lengthAdjust="spacing" textLength="54" x="479" y="109.5889">tilt: float</text><rect fill="none" height="6" style="stroke:#C82930;stroke-width:1.0;" width="6" x="467" y="119.5391"/><text fill="#000000" font-family="sans-serif" font-size="14" lengthAdjust="spacing" textLength="69" x="479" y="125.8857">taille: float</text><rect fill="none" height="6" style="stroke:#C82930;stroke-width:1.0;" width="6" x="467" y="135.8359"/><text fill="#000000" font-family="sans-serif" font-size="14" lengthAdjust="spacing" textLength="89" x="479" y="142.1826">opacit&#233;: float</text><line style="stroke:#181818;stroke-width:0.5;" x1="460" x2="746" y1="149.4844" y2="149.4844"/><ellipse cx="470" cy="163.1328" fill="#84BE84" rx="3" ry="3" style="stroke:#038048;stroke-width:1.0;"/><text fill="#000000" font-family="sans-serif" font-size="14" lengthAdjust="spacing" textLength="192" x="479" y="166.4795">utiliserOutil(outil: Outil): void</text><ellipse cx="470" cy="179.4297" fill="#84BE84" rx="3" ry="3" style="stroke:#038048;stroke-width:1.0;"/><text fill="#000000" font-family="sans-serif" font-size="14" lengthAdjust="spacing" textLength="198" x="479" y="182.7764">ajusterTaille(taille: float): void</text><ellipse cx="470" cy="195.7266" fill="#84BE84" rx="3" ry="3" style="stroke:#038048;stroke-width:1.0;"/><text fill="#000000" font-family="sans-serif" font-size="14" lengthAdjust="spacing" textLength="236" x="479" y="199.0732">ajusterOpacit&#233;(opacit&#233;: float): void</text><ellipse cx="470" cy="212.0234" fill="#84BE84" rx="3" ry="3" style="stroke:#038048;stroke-width:1.0;"/><text fill="#000000" font-family="sans-serif" font-size="14" lengthAdjust="spacing" textLength="262" x="479" y="215.3701">ajusterSensibilit&#233;(pression: float): void</text></g><!--class Tablet--><g id="elem_Tablet"><rect codeLine="68" fill="#F1F1F1" height="113.1875" id="Tablet" rx="2.5" ry="2.5" style="stroke:#181818;stroke-width:0.5;" width="310" x="448" y="324.1269"/><ellipse cx="577.25" cy="340.1269" fill="#ADD1B2" rx="11" ry="11" style="stroke:#181818;stroke-width:1.0;"/><path d="M580.2188,345.7675 Q579.6406,346.0644 579,346.205 Q578.3594,346.3613 577.6563,346.3613 Q575.1563,346.3613 573.8281,344.7206 Q572.5156,343.0644 572.5156,339.9394 Q572.5156,336.8144 573.8281,335.1581 Q575.1563,333.5019 577.6563,333.5019 Q578.3594,333.5019 579,333.6581 Q579.6563,333.8144 580.2188,334.1113 L580.2188,336.83 Q579.5938,336.2519 579,335.9863 Q578.4063,335.705 577.7813,335.705 Q576.4375,335.705 575.75,336.7831 Q575.0625,337.8456 575.0625,339.9394 Q575.0625,342.0331 575.75,343.1113 Q576.4375,344.1738 577.7813,344.1738 Q578.4063,344.1738 579,343.9081 Q579.5938,343.6269 580.2188,343.0488 L580.2188,345.7675 Z " fill="#000000"/><text fill="#000000" font-family="sans-serif" font-size="14" lengthAdjust="spacing" textLength="43" x="597.75" y="344.9736">Tablet</text><line style="stroke:#181818;stroke-width:0.5;" x1="449" x2="757" y1="356.1269" y2="356.1269"/><rect fill="none" height="6" style="stroke:#C82930;stroke-width:1.0;" width="6" x="456" y="366.7753"/><text fill="#000000" font-family="sans-serif" font-size="14" lengthAdjust="spacing" textLength="79" x="468" y="373.122">type: String</text><line style="stroke:#181818;stroke-width:0.5;" x1="449" x2="757" y1="380.4238" y2="380.4238"/><ellipse cx="459" cy="394.0722" fill="#84BE84" rx="3" ry="3" style="stroke:#038048;stroke-width:1.0;"/><text fill="#000000" font-family="sans-serif" font-size="14" lengthAdjust="spacing" textLength="246" x="468" y="397.4189">connecterStylus(stylet: Stylus): void</text><ellipse cx="459" cy="410.3691" fill="#84BE84" rx="3" ry="3" style="stroke:#038048;stroke-width:1.0;"/><text fill="#000000" font-family="sans-serif" font-size="14" lengthAdjust="spacing" textLength="166" x="468" y="413.7157">recevoirEntr&#233;e(): Entr&#233;e</text><ellipse cx="459" cy="426.6659" fill="#84BE84" rx="3" ry="3" style="stroke:#038048;stroke-width:1.0;"/><text fill="#000000" font-family="sans-serif" font-size="14" lengthAdjust="spacing" textLength="284" x="468" y="430.0126">configurer(param&#232;tres: Param&#232;tres): void</text></g><!--class File--><g id="elem_File"><rect codeLine="75" fill="#F1F1F1" height="162.0781" id="File" rx="2.5" ry="2.5" style="stroke:#181818;stroke-width:0.5;" width="386" x="793" y="299.6769"/><ellipse cx="970.25" cy="315.6769" fill="#ADD1B2" rx="11" ry="11" style="stroke:#181818;stroke-width:1.0;"/><path d="M973.2188,321.3175 Q972.6406,321.6144 972,321.755 Q971.3594,321.9113 970.6563,321.9113 Q968.1563,321.9113 966.8281,320.2706 Q965.5156,318.6144 965.5156,315.4894 Q965.5156,312.3644 966.8281,310.7081 Q968.1563,309.0519 970.6563,309.0519 Q971.3594,309.0519 972,309.2081 Q972.6563,309.3644 973.2188,309.6613 L973.2188,312.38 Q972.5938,311.8019 972,311.5363 Q971.4063,311.255 970.7813,311.255 Q969.4375,311.255 968.75,312.3331 Q968.0625,313.3956 968.0625,315.4894 Q968.0625,317.5831 968.75,318.6613 Q969.4375,319.7238 970.7813,319.7238 Q971.4063,319.7238 972,319.4581 Q972.5938,319.1769 973.2188,318.5988 L973.2188,321.3175 Z " fill="#000000"/><text fill="#000000" font-family="sans-serif" font-size="14" lengthAdjust="spacing" textLength="23" x="990.75" y="320.5236">File</text><line style="stroke:#181818;stroke-width:0.5;" x1="794" x2="1178" y1="331.6769" y2="331.6769"/><rect fill="none" height="6" style="stroke:#C82930;stroke-width:1.0;" width="6" x="801" y="342.3253"/><text fill="#000000" font-family="sans-serif" font-size="14" lengthAdjust="spacing" textLength="80" x="813" y="348.672">nom: String</text><rect fill="none" height="6" style="stroke:#C82930;stroke-width:1.0;" width="6" x="801" y="358.6222"/><text fill="#000000" font-family="sans-serif" font-size="14" lengthAdjust="spacing" textLength="93" x="813" y="364.9689">format: String</text><rect fill="none" height="6" style="stroke:#C82930;stroke-width:1.0;" width="6" x="801" y="374.9191"/><text fill="#000000" font-family="sans-serif" font-size="14" lengthAdjust="spacing" textLength="57" x="813" y="381.2657">taille: int</text><line style="stroke:#181818;stroke-width:0.5;" x1="794" x2="1178" y1="388.5675" y2="388.5675"/><ellipse cx="804" cy="402.2159" fill="#84BE84" rx="3" ry="3" style="stroke:#038048;stroke-width:1.0;"/><text fill="#000000" font-family="sans-serif" font-size="14" lengthAdjust="spacing" textLength="85" x="813" y="405.5626">ouvrir(): void</text><ellipse cx="804" cy="418.5128" fill="#84BE84" rx="3" ry="3" style="stroke:#038048;stroke-width:1.0;"/><text fill="#000000" font-family="sans-serif" font-size="14" lengthAdjust="spacing" textLength="92" x="813" y="421.8595">fermer(): void</text><ellipse cx="804" cy="434.8097" fill="#84BE84" rx="3" ry="3" style="stroke:#038048;stroke-width:1.0;"/><text fill="#000000" font-family="sans-serif" font-size="14" lengthAdjust="spacing" textLength="360" x="813" y="438.1564">enregistrer(EspaceDeTravail: EspaceDeTravail): void</text><ellipse cx="804" cy="451.1066" fill="#84BE84" rx="3" ry="3" style="stroke:#038048;stroke-width:1.0;"/><text fill="#000000" font-family="sans-serif" font-size="14" lengthAdjust="spacing" textLength="186" x="813" y="454.4532">charger(): EspaceDeTravail</text></g><!--class Contenu--><g id="elem_Contenu"><rect fill="#F1F1F1" height="48" id="Contenu" rx="2.5" ry="2.5" style="stroke:#181818;stroke-width:0.5;" width="92" x="978" y="1130.9869"/><ellipse cx="993" cy="1146.9869" fill="#ADD1B2" rx="11" ry="11" style="stroke:#181818;stroke-width:1.0;"/><path d="M995.9688,1152.6275 Q995.3906,1152.9244 994.75,1153.065 Q994.1094,1153.2213 993.4063,1153.2213 Q990.9063,1153.2213 989.5781,1151.5806 Q988.2656,1149.9244 988.2656,1146.7994 Q988.2656,1143.6744 989.5781,1142.0181 Q990.9063,1140.3619 993.4063,1140.3619 Q994.1094,1140.3619 994.75,1140.5181 Q995.4063,1140.6744 995.9688,1140.9713 L995.9688,1143.69 Q995.3438,1143.1119 994.75,1142.8463 Q994.1563,1142.565 993.5313,1142.565 Q992.1875,1142.565 991.5,1143.6431 Q990.8125,1144.7056 990.8125,1146.7994 Q990.8125,1148.8931 991.5,1149.9713 Q992.1875,1151.0338 993.5313,1151.0338 Q994.1563,1151.0338 994.75,1150.7681 Q995.3438,1150.4869 995.9688,1149.9088 L995.9688,1152.6275 Z " fill="#000000"/><text fill="#000000" font-family="sans-serif" font-size="14" lengthAdjust="spacing" textLength="60" x="1007" y="1151.8336">Contenu</text><line style="stroke:#181818;stroke-width:0.5;" x1="979" x2="1069" y1="1162.9869" y2="1162.9869"/><line style="stroke:#181818;stroke-width:0.5;" x1="979" x2="1069" y1="1170.9869" y2="1170.9869"/></g><!--link User to EspaceDeTravail--><g id="link_User_EspaceDeTravail"><path codeLine="85" d="M291.91,429.4269 C351.63,464.2169 433.07,511.6569 497.64,549.2669 " fill="none" id="User-EspaceDeTravail" style="stroke:#181818;stroke-width:1.0;"/><text fill="#000000" font-family="sans-serif" font-size="13" lengthAdjust="spacing" textLength="30" x="420" y="504.8238">uses</text></g><!--link EspaceDeTravail to Calque--><g id="link_EspaceDeTravail_Calque"><path codeLine="86" d="M646.87,684.7969 C661.3,708.5369 677.71,735.5269 693.52,761.5369 " fill="none" id="EspaceDeTravail-Calque" style="stroke:#181818;stroke-width:1.0;"/><text fill="#000000" font-family="sans-serif" font-size="13" lengthAdjust="spacing" textLength="54" x="674" y="727.6038">contains</text></g><!--link Calque to Contenu--><g id="link_Calque_Contenu"><path codeLine="87" d="M886.91,989.2169 C911.95,1013.6769 937.47,1039.9769 960,1065.7969 C978.16,1086.6169 996.42,1112.3669 1008.76,1130.6669 " fill="none" id="Calque-Contenu" style="stroke:#181818;stroke-width:1.0;"/><text fill="#000000" font-family="sans-serif" font-size="13" lengthAdjust="spacing" textLength="54" x="930" y="1031.8638">contains</text></g><!--link Calque to Outil--><g id="link_Calque_Outil"><path codeLine="88" d="M636.26,968.0969 C593.36,999.4669 545.51,1034.4469 502.99,1065.5369 " fill="none" id="Calque-Outil" style="stroke:#181818;stroke-width:1.0;"/><text fill="#000000" font-family="sans-serif" font-size="13" lengthAdjust="spacing" textLength="30" x="562" y="1031.8638">uses</text></g><!--link Calque to Filtre--><g id="link_Calque_Filtre"><path codeLine="89" d="M762,989.1669 C762,1023.5669 762,1060.1669 762,1090.1169 " fill="none" id="Calque-Filtre" style="stroke:#181818;stroke-width:1.0;"/><text fill="#000000" font-family="sans-serif" font-size="13" lengthAdjust="spacing" textLength="30" x="763" y="1031.8638">uses</text></g><!--link AI to Calque--><g id="link_AI_Calque"><path codeLine="90" d="M892.02,660.3069 C874.82,688.5969 852.24,725.7469 830.73,761.1269 " fill="none" id="AI-Calque" style="stroke:#181818;stroke-width:1.0;"/><text fill="#000000" font-family="sans-serif" font-size="13" lengthAdjust="spacing" textLength="60" x="856" y="727.6038">manages</text></g><!--link Stylus to Tablet--><g id="link_Stylus_Tablet"><path codeLine="91" d="M603,223.0169 C603,256.6369 603,293.9569 603,323.7469 " fill="none" id="Stylus-Tablet" style="stroke:#181818;stroke-width:1.0;"/><text fill="#000000" font-family="sans-serif" font-size="13" lengthAdjust="spacing" textLength="58" x="604" y="265.7438">connects</text></g><!--link Tablet to EspaceDeTravail--><g id="link_Tablet_EspaceDeTravail"><path codeLine="92" d="M603,437.7169 C603,468.0269 603,505.8269 603,538.3369 " fill="none" id="Tablet-EspaceDeTravail" style="stroke:#181818;stroke-width:1.0;"/><text fill="#000000" font-family="sans-serif" font-size="13" lengthAdjust="spacing" textLength="51" x="604" y="504.8238">controls</text></g><!--link File to EspaceDeTravail--><g id="link_File_EspaceDeTravail"><path codeLine="93" d="M851.51,462.1069 C804.52,490.1969 752.49,521.2869 708.24,547.7469 " fill="none" id="File-EspaceDeTravail" style="stroke:#181818;stroke-width:1.0;"/><text fill="#000000" font-family="sans-serif" font-size="13" lengthAdjust="spacing" textLength="77" x="796" y="504.8238">saves works</text></g><!--SRC=[bLLBRjim4Dtx55mgI7m18GXG92bGe4K2nDrqHqiZXGb5gaFIHLhqFlKvVB4EFx8jofz42u7puV3DuypG2Yk1tGdU8kywO3MmId9ZW25l6g4swzaiADXt0yZ-p1XzSwMxaZrP5AeDYajdXHJaS6zwNi4TB92lk9051BbacVwYP2ijwhWN548hZ4N0HzGlO8j6IDhpcVw3uzy1HHPe05IB3fGHMfcIaXdMqLPn-TC16RxI8TUtGRg9fYMlNblKJjKbkzLEWiDeG31QKb9QbKme6u5Mk5a3nW058OkhQ3FShQ3bM0EUWX-t7ADnhYavOJVhaZLIytZiV2MCMFg8IwrbIaah2yfvq66H704f5o6b3x1rlcoS9qCHCEw8v05tba3jUYb8mZopRTHesjrRlLaVjV4-HNlmbL5e_ozP40xx4Lk4pLCN84PnGby8y37sBFVmHghQ8MHkEo15B9U1WolsMokIVj1_X9oke14jHSAYvzGxcty4c8hiSIUC_3jTYqO0BWAUOWJheED3ogR8qfgG4hawoehm5M8cl8n0V-FzTTnp5NrkJhFoBYQcGIVGFtqPO1lx9k6Xjx65GwS-ULKE92WdTnHs-xJVv1YRSMsxMUEmxoBvx11uqPa1HK_0JMZw_GeYVi-LrA7Ismx5SptmuenzHs4altDriU_xv6z-IIYyVvRSv38MdAQC7QYmRpsCPtpbXqXb8vVE585qMoOAHySZL40ItYlhPwRdFIq_t3pxPNwyo1kD7RTZtS3aTdvhjqAH3Qe6iCk7rzw3L6JlpUcNh7hcsCPecPjF8poWy_da2IkPCs1ckPeyqsjHCZ_lkQ07BMcyBKx-myOu9rFWdJfDYgIdvji_e-EAjwHE7K6cL13X17_pPfOq1vFmC51BCmiNTT35y1KOzalZg_aF]--></g></svg>