<?xml version="1.0" encoding="us-ascii" standalone="no"?><svg xmlns="http://www.w3.org/2000/svg" xmlns:xlink="http://www.w3.org/1999/xlink" contentStyleType="text/css" height="1083px" preserveAspectRatio="none" style="width:1079px;height:1083px;background:#FFFFFF;" version="1.1" viewBox="0 0 1079 1083" width="1079px" zoomAndPan="magnify"><defs/><g><!--class User--><g id="elem_User"><rect codeLine="1" fill="#F1F1F1" height="80.5938" id="User" rx="2.5" ry="2.5" style="stroke:#181818;stroke-width:0.5;" width="406" x="7" y="262.37"/><ellipse cx="189.75" cy="278.37" fill="#ADD1B2" rx="11" ry="11" style="stroke:#181818;stroke-width:1.0;"/><path d="M192.7188,284.0106 Q192.1406,284.3075 191.5,284.4481 Q190.8594,284.6044 190.1563,284.6044 Q187.6563,284.6044 186.3281,282.9638 Q185.0156,281.3075 185.0156,278.1825 Q185.0156,275.0575 186.3281,273.4013 Q187.6563,271.745 190.1563,271.745 Q190.8594,271.745 191.5,271.9013 Q192.1563,272.0575 192.7188,272.3544 L192.7188,275.0731 Q192.0938,274.495 191.5,274.2294 Q190.9063,273.9481 190.2813,273.9481 Q188.9375,273.9481 188.25,275.0263 Q187.5625,276.0888 187.5625,278.1825 Q187.5625,280.2763 188.25,281.3544 Q188.9375,282.4169 190.2813,282.4169 Q190.9063,282.4169 191.5,282.1513 Q192.0938,281.87 192.7188,281.2919 L192.7188,284.0106 Z " fill="#000000"/><text fill="#000000" font-family="sans-serif" font-size="14" lengthAdjust="spacing" textLength="32" x="210.25" y="283.2167">User</text><line style="stroke:#181818;stroke-width:0.5;" x1="8" x2="412" y1="294.37" y2="294.37"/><rect fill="none" height="6" style="stroke:#C82930;stroke-width:1.0;" width="6" x="15" y="305.0184"/><text fill="#000000" font-family="sans-serif" font-size="14" lengthAdjust="spacing" textLength="80" x="27" y="311.3651">nom: String</text><line style="stroke:#181818;stroke-width:0.5;" x1="8" x2="412" y1="318.6669" y2="318.6669"/><ellipse cx="18" cy="332.3153" fill="#84BE84" rx="3" ry="3" style="stroke:#038048;stroke-width:1.0;"/><text fill="#000000" font-family="sans-serif" font-size="14" lengthAdjust="spacing" textLength="380" x="27" y="335.662">utiliserEspaceDeTravail(espace: EspaceDeTravail): void</text></g><!--class EspaceDeTravail--><g id="elem_EspaceDeTravail"><rect codeLine="6" fill="#F1F1F1" height="129.4844" id="EspaceDeTravail" rx="2.5" ry="2.5" style="stroke:#181818;stroke-width:0.5;" width="197" x="485.5" y="452.56"/><ellipse cx="523.45" cy="468.56" fill="#ADD1B2" rx="11" ry="11" style="stroke:#181818;stroke-width:1.0;"/><path d="M526.4188,474.2006 Q525.8406,474.4975 525.2,474.6381 Q524.5594,474.7944 523.8563,474.7944 Q521.3563,474.7944 520.0281,473.1537 Q518.7156,471.4975 518.7156,468.3725 Q518.7156,465.2475 520.0281,463.5912 Q521.3563,461.935 523.8563,461.935 Q524.5594,461.935 525.2,462.0912 Q525.8563,462.2475 526.4188,462.5444 L526.4188,465.2631 Q525.7938,464.685 525.2,464.4194 Q524.6063,464.1381 523.9813,464.1381 Q522.6375,464.1381 521.95,465.2162 Q521.2625,466.2787 521.2625,468.3725 Q521.2625,470.4662 521.95,471.5444 Q522.6375,472.6069 523.9813,472.6069 Q524.6063,472.6069 525.2,472.3412 Q525.7938,472.06 526.4188,471.4819 L526.4188,474.2006 Z " fill="#000000"/><text fill="#000000" font-family="sans-serif" font-size="14" lengthAdjust="spacing" textLength="114" x="542.55" y="473.4067">EspaceDeTravail</text><line style="stroke:#181818;stroke-width:0.5;" x1="486.5" x2="681.5" y1="484.56" y2="484.56"/><rect fill="none" height="6" style="stroke:#C82930;stroke-width:1.0;" width="6" x="493.5" y="495.2084"/><text fill="#000000" font-family="sans-serif" font-size="14" lengthAdjust="spacing" textLength="171" x="505.5" y="501.5551">dimensions: Dimensions</text><rect fill="none" height="6" style="stroke:#C82930;stroke-width:1.0;" width="6" x="493.5" y="511.5053"/><text fill="#000000" font-family="sans-serif" font-size="14" lengthAdjust="spacing" textLength="158" x="505.5" y="517.852">calques: List&lt;Calque&gt;</text><rect fill="none" height="6" style="stroke:#C82930;stroke-width:1.0;" width="6" x="493.5" y="527.8022"/><text fill="#000000" font-family="sans-serif" font-size="14" lengthAdjust="spacing" textLength="146" x="505.5" y="534.1489">background: Couleur</text><rect fill="none" height="6" style="stroke:#C82930;stroke-width:1.0;" width="6" x="493.5" y="544.0991"/><text fill="#000000" font-family="sans-serif" font-size="14" lengthAdjust="spacing" textLength="95" x="505.5" y="550.4457">resolution: int</text><line style="stroke:#181818;stroke-width:0.5;" x1="486.5" x2="681.5" y1="557.7475" y2="557.7475"/><ellipse cx="496.5" cy="571.3959" fill="#84BE84" rx="3" ry="3" style="stroke:#038048;stroke-width:1.0;"/><text fill="#000000" font-family="sans-serif" font-size="14" lengthAdjust="spacing" textLength="151" x="505.5" y="574.7426">cr&#233;erCalque(): Calque</text></g><!--class Calque--><g id="elem_Calque"><rect codeLine="14" fill="#F1F1F1" height="194.6719" id="Calque" rx="2.5" ry="2.5" style="stroke:#181818;stroke-width:0.5;" width="251" x="614.5" y="659.05"/><ellipse cx="711.75" cy="675.05" fill="#ADD1B2" rx="11" ry="11" style="stroke:#181818;stroke-width:1.0;"/><path d="M714.7188,680.6906 Q714.1406,680.9875 713.5,681.1281 Q712.8594,681.2844 712.1563,681.2844 Q709.6563,681.2844 708.3281,679.6438 Q707.0156,677.9875 707.0156,674.8625 Q707.0156,671.7375 708.3281,670.0813 Q709.6563,668.425 712.1563,668.425 Q712.8594,668.425 713.5,668.5813 Q714.1563,668.7375 714.7188,669.0344 L714.7188,671.7531 Q714.0938,671.175 713.5,670.9094 Q712.9063,670.6281 712.2813,670.6281 Q710.9375,670.6281 710.25,671.7063 Q709.5625,672.7688 709.5625,674.8625 Q709.5625,676.9563 710.25,678.0344 Q710.9375,679.0969 712.2813,679.0969 Q712.9063,679.0969 713.5,678.8313 Q714.0938,678.55 714.7188,677.9719 L714.7188,680.6906 Z " fill="#000000"/><text fill="#000000" font-family="sans-serif" font-size="14" lengthAdjust="spacing" textLength="48" x="732.25" y="679.8967">Calque</text><line style="stroke:#181818;stroke-width:0.5;" x1="615.5" x2="864.5" y1="691.05" y2="691.05"/><rect fill="none" height="6" style="stroke:#C82930;stroke-width:1.0;" width="6" x="622.5" y="701.6984"/><text fill="#000000" font-family="sans-serif" font-size="14" lengthAdjust="spacing" textLength="80" x="634.5" y="708.0451">nom: String</text><rect fill="none" height="6" style="stroke:#C82930;stroke-width:1.0;" width="6" x="622.5" y="717.9953"/><text fill="#000000" font-family="sans-serif" font-size="14" lengthAdjust="spacing" textLength="89" x="634.5" y="724.342">opacit&#233;: float</text><rect fill="none" height="6" style="stroke:#C82930;stroke-width:1.0;" width="6" x="622.5" y="734.2922"/><text fill="#000000" font-family="sans-serif" font-size="14" lengthAdjust="spacing" textLength="81" x="634.5" y="740.6389">visible: bool</text><rect fill="none" height="6" style="stroke:#C82930;stroke-width:1.0;" width="6" x="622.5" y="750.5891"/><text fill="#000000" font-family="sans-serif" font-size="14" lengthAdjust="spacing" textLength="127" x="634.5" y="756.9357">contenu: Contenu</text><line style="stroke:#181818;stroke-width:0.5;" x1="615.5" x2="864.5" y1="764.2375" y2="764.2375"/><ellipse cx="625.5" cy="777.8859" fill="#84BE84" rx="3" ry="3" style="stroke:#038048;stroke-width:1.0;"/><text fill="#000000" font-family="sans-serif" font-size="14" lengthAdjust="spacing" textLength="225" x="634.5" y="781.2326">fusionner(autre: Calque): Calque</text><ellipse cx="625.5" cy="794.1828" fill="#84BE84" rx="3" ry="3" style="stroke:#038048;stroke-width:1.0;"/><text fill="#000000" font-family="sans-serif" font-size="14" lengthAdjust="spacing" textLength="132" x="634.5" y="797.5295">dupliquer(): Calque</text><ellipse cx="625.5" cy="810.4797" fill="#84BE84" rx="3" ry="3" style="stroke:#038048;stroke-width:1.0;"/><text fill="#000000" font-family="sans-serif" font-size="14" lengthAdjust="spacing" textLength="114" x="634.5" y="813.8264">verrouiller(): void</text><ellipse cx="625.5" cy="826.7766" fill="#84BE84" rx="3" ry="3" style="stroke:#038048;stroke-width:1.0;"/><text fill="#000000" font-family="sans-serif" font-size="14" lengthAdjust="spacing" textLength="211" x="634.5" y="830.1232">appliquerOutil(outil: Outil): void</text><ellipse cx="625.5" cy="843.0734" fill="#84BE84" rx="3" ry="3" style="stroke:#038048;stroke-width:1.0;"/><text fill="#000000" font-family="sans-serif" font-size="14" lengthAdjust="spacing" textLength="215" x="634.5" y="846.4201">appliquerFiltre(filtre: Filtre): void</text></g><!--class Outil--><g id="elem_Outil"><rect codeLine="26" fill="#F1F1F1" height="145.7813" id="Outil" rx="2.5" ry="2.5" style="stroke:#181818;stroke-width:0.5;" width="329" x="254.5" y="930.72"/><ellipse cx="399.25" cy="946.72" fill="#ADD1B2" rx="11" ry="11" style="stroke:#181818;stroke-width:1.0;"/><path d="M402.2188,952.3606 Q401.6406,952.6575 401,952.7981 Q400.3594,952.9544 399.6563,952.9544 Q397.1563,952.9544 395.8281,951.3138 Q394.5156,949.6575 394.5156,946.5325 Q394.5156,943.4075 395.8281,941.7513 Q397.1563,940.095 399.6563,940.095 Q400.3594,940.095 401,940.2513 Q401.6563,940.4075 402.2188,940.7044 L402.2188,943.4231 Q401.5938,942.845 401,942.5794 Q400.4063,942.2981 399.7813,942.2981 Q398.4375,942.2981 397.75,943.3763 Q397.0625,944.4388 397.0625,946.5325 Q397.0625,948.6263 397.75,949.7044 Q398.4375,950.7669 399.7813,950.7669 Q400.4063,950.7669 401,950.5013 Q401.5938,950.22 402.2188,949.6419 L402.2188,952.3606 Z " fill="#000000"/><text fill="#000000" font-family="sans-serif" font-size="14" lengthAdjust="spacing" textLength="31" x="419.75" y="951.5667">Outil</text><line style="stroke:#181818;stroke-width:0.5;" x1="255.5" x2="582.5" y1="962.72" y2="962.72"/><rect fill="none" height="6" style="stroke:#C82930;stroke-width:1.0;" width="6" x="262.5" y="973.3684"/><text fill="#000000" font-family="sans-serif" font-size="14" lengthAdjust="spacing" textLength="80" x="274.5" y="979.7151">nom: String</text><rect fill="none" height="6" style="stroke:#C82930;stroke-width:1.0;" width="6" x="262.5" y="989.6653"/><text fill="#000000" font-family="sans-serif" font-size="14" lengthAdjust="spacing" textLength="89" x="274.5" y="996.012">opacit&#233;: float</text><rect fill="none" height="6" style="stroke:#C82930;stroke-width:1.0;" width="6" x="262.5" y="1005.9622"/><text fill="#000000" font-family="sans-serif" font-size="14" lengthAdjust="spacing" textLength="69" x="274.5" y="1012.3089">taille: float</text><rect fill="none" height="6" style="stroke:#C82930;stroke-width:1.0;" width="6" x="262.5" y="1022.2591"/><text fill="#000000" font-family="sans-serif" font-size="14" lengthAdjust="spacing" textLength="84" x="274.5" y="1028.6057">duret&#233;: float</text><line style="stroke:#181818;stroke-width:0.5;" x1="255.5" x2="582.5" y1="1035.9075" y2="1035.9075"/><ellipse cx="265.5" cy="1049.5559" fill="#84BE84" rx="3" ry="3" style="stroke:#038048;stroke-width:1.0;"/><text fill="#000000" font-family="sans-serif" font-size="14" lengthAdjust="spacing" textLength="303" x="274.5" y="1052.9026">appliquer(calque: Calque, zone: Zone): void</text><ellipse cx="265.5" cy="1065.8528" fill="#84BE84" rx="3" ry="3" style="stroke:#038048;stroke-width:1.0;"/><text fill="#000000" font-family="sans-serif" font-size="14" lengthAdjust="spacing" textLength="284" x="274.5" y="1069.1995">configurer(param&#232;tres: Param&#232;tres): void</text></g><!--class Filtre--><g id="elem_Filtre"><rect codeLine="35" fill="#F1F1F1" height="113.1875" id="Filtre" rx="2.5" ry="2.5" style="stroke:#181818;stroke-width:0.5;" width="244" x="618" y="947.02"/><ellipse cx="719.25" cy="963.02" fill="#ADD1B2" rx="11" ry="11" style="stroke:#181818;stroke-width:1.0;"/><path d="M722.2188,968.6606 Q721.6406,968.9575 721,969.0981 Q720.3594,969.2544 719.6563,969.2544 Q717.1563,969.2544 715.8281,967.6138 Q714.5156,965.9575 714.5156,962.8325 Q714.5156,959.7075 715.8281,958.0513 Q717.1563,956.395 719.6563,956.395 Q720.3594,956.395 721,956.5513 Q721.6563,956.7075 722.2188,957.0044 L722.2188,959.7231 Q721.5938,959.145 721,958.8794 Q720.4063,958.5981 719.7813,958.5981 Q718.4375,958.5981 717.75,959.6763 Q717.0625,960.7388 717.0625,962.8325 Q717.0625,964.9263 717.75,966.0044 Q718.4375,967.0669 719.7813,967.0669 Q720.4063,967.0669 721,966.8013 Q721.5938,966.52 722.2188,965.9419 L722.2188,968.6606 Z " fill="#000000"/><text fill="#000000" font-family="sans-serif" font-size="14" lengthAdjust="spacing" textLength="33" x="739.75" y="967.8667">Filtre</text><line style="stroke:#181818;stroke-width:0.5;" x1="619" x2="861" y1="979.02" y2="979.02"/><rect fill="none" height="6" style="stroke:#C82930;stroke-width:1.0;" width="6" x="626" y="989.6684"/><text fill="#000000" font-family="sans-serif" font-size="14" lengthAdjust="spacing" textLength="80" x="638" y="996.0151">nom: String</text><rect fill="none" height="6" style="stroke:#C82930;stroke-width:1.0;" width="6" x="626" y="1005.9653"/><text fill="#000000" font-family="sans-serif" font-size="14" lengthAdjust="spacing" textLength="98" x="638" y="1012.312">intensit&#233;: float</text><rect fill="none" height="6" style="stroke:#C82930;stroke-width:1.0;" width="6" x="626" y="1022.2622"/><text fill="#000000" font-family="sans-serif" font-size="14" lengthAdjust="spacing" textLength="218" x="638" y="1028.6089">param&#232;tres: Map&lt;String, float&gt;</text><line style="stroke:#181818;stroke-width:0.5;" x1="619" x2="861" y1="1035.9106" y2="1035.9106"/><ellipse cx="629" cy="1049.5591" fill="#84BE84" rx="3" ry="3" style="stroke:#038048;stroke-width:1.0;"/><text fill="#000000" font-family="sans-serif" font-size="14" lengthAdjust="spacing" textLength="214" x="638" y="1052.9057">appliquer(calque: Calque): void</text></g><!--class AI--><g id="elem_AI"><rect codeLine="42" fill="#F1F1F1" height="80.5938" id="AI" rx="2.5" ry="2.5" style="stroke:#181818;stroke-width:0.5;" width="355" x="717.5" y="477.01"/><ellipse cx="884.75" cy="493.01" fill="#ADD1B2" rx="11" ry="11" style="stroke:#181818;stroke-width:1.0;"/><path d="M887.7188,498.6506 Q887.1406,498.9475 886.5,499.0881 Q885.8594,499.2444 885.1563,499.2444 Q882.6563,499.2444 881.3281,497.6038 Q880.0156,495.9475 880.0156,492.8225 Q880.0156,489.6975 881.3281,488.0413 Q882.6563,486.385 885.1563,486.385 Q885.8594,486.385 886.5,486.5413 Q887.1563,486.6975 887.7188,486.9944 L887.7188,489.7131 Q887.0938,489.135 886.5,488.8694 Q885.9063,488.5881 885.2813,488.5881 Q883.9375,488.5881 883.25,489.6663 Q882.5625,490.7288 882.5625,492.8225 Q882.5625,494.9163 883.25,495.9944 Q883.9375,497.0569 885.2813,497.0569 Q885.9063,497.0569 886.5,496.7913 Q887.0938,496.51 887.7188,495.9319 L887.7188,498.6506 Z " fill="#000000"/><text fill="#000000" font-family="sans-serif" font-size="14" lengthAdjust="spacing" textLength="12" x="905.25" y="497.8567">AI</text><line style="stroke:#181818;stroke-width:0.5;" x1="718.5" x2="1071.5" y1="509.01" y2="509.01"/><rect fill="none" height="6" style="stroke:#C82930;stroke-width:1.0;" width="6" x="725.5" y="519.6584"/><text fill="#000000" font-family="sans-serif" font-size="14" lengthAdjust="spacing" textLength="175" x="737.5" y="526.0051">styleOptions: List&lt;Style&gt;</text><line style="stroke:#181818;stroke-width:0.5;" x1="718.5" x2="1071.5" y1="533.3069" y2="533.3069"/><ellipse cx="728.5" cy="546.9553" fill="#84BE84" rx="3" ry="3" style="stroke:#038048;stroke-width:1.0;"/><text fill="#000000" font-family="sans-serif" font-size="14" lengthAdjust="spacing" textLength="329" x="737.5" y="550.302">appliquerStyle(calque: Calque, style: Style): void</text></g><!--class Stylus--><g id="elem_Stylus"><rect codeLine="47" fill="#F1F1F1" height="145.7813" id="Stylus" rx="2.5" ry="2.5" style="stroke:#181818;stroke-width:0.5;" width="288" x="440" y="7"/><ellipse cx="559.25" cy="23" fill="#ADD1B2" rx="11" ry="11" style="stroke:#181818;stroke-width:1.0;"/><path d="M562.2188,28.6406 Q561.6406,28.9375 561,29.0781 Q560.3594,29.2344 559.6563,29.2344 Q557.1563,29.2344 555.8281,27.5938 Q554.5156,25.9375 554.5156,22.8125 Q554.5156,19.6875 555.8281,18.0313 Q557.1563,16.375 559.6563,16.375 Q560.3594,16.375 561,16.5313 Q561.6563,16.6875 562.2188,16.9844 L562.2188,19.7031 Q561.5938,19.125 561,18.8594 Q560.4063,18.5781 559.7813,18.5781 Q558.4375,18.5781 557.75,19.6563 Q557.0625,20.7188 557.0625,22.8125 Q557.0625,24.9063 557.75,25.9844 Q558.4375,27.0469 559.7813,27.0469 Q560.4063,27.0469 561,26.7813 Q561.5938,26.5 562.2188,25.9219 L562.2188,28.6406 Z " fill="#000000"/><text fill="#000000" font-family="sans-serif" font-size="14" lengthAdjust="spacing" textLength="41" x="579.75" y="27.8467">Stylus</text><line style="stroke:#181818;stroke-width:0.5;" x1="441" x2="727" y1="39" y2="39"/><rect fill="none" height="6" style="stroke:#C82930;stroke-width:1.0;" width="6" x="448" y="49.6484"/><text fill="#000000" font-family="sans-serif" font-size="14" lengthAdjust="spacing" textLength="98" x="460" y="55.9951">pression: float</text><rect fill="none" height="6" style="stroke:#C82930;stroke-width:1.0;" width="6" x="448" y="65.9453"/><text fill="#000000" font-family="sans-serif" font-size="14" lengthAdjust="spacing" textLength="54" x="460" y="72.292">tilt: float</text><line style="stroke:#181818;stroke-width:0.5;" x1="441" x2="727" y1="79.5938" y2="79.5938"/><ellipse cx="451" cy="93.2422" fill="#84BE84" rx="3" ry="3" style="stroke:#038048;stroke-width:1.0;"/><text fill="#000000" font-family="sans-serif" font-size="14" lengthAdjust="spacing" textLength="192" x="460" y="96.5889">utiliserOutil(outil: Outil): void</text><ellipse cx="451" cy="109.5391" fill="#84BE84" rx="3" ry="3" style="stroke:#038048;stroke-width:1.0;"/><text fill="#000000" font-family="sans-serif" font-size="14" lengthAdjust="spacing" textLength="198" x="460" y="112.8857">ajusterTaille(taille: float): void</text><ellipse cx="451" cy="125.8359" fill="#84BE84" rx="3" ry="3" style="stroke:#038048;stroke-width:1.0;"/><text fill="#000000" font-family="sans-serif" font-size="14" lengthAdjust="spacing" textLength="236" x="460" y="129.1826">ajusterOpacit&#233;(opacit&#233;: float): void</text><ellipse cx="451" cy="142.1328" fill="#84BE84" rx="3" ry="3" style="stroke:#038048;stroke-width:1.0;"/><text fill="#000000" font-family="sans-serif" font-size="14" lengthAdjust="spacing" textLength="262" x="460" y="145.4795">ajusterSensibilit&#233;(pression: float): void</text></g><!--class Tablet--><g id="elem_Tablet"><rect codeLine="56" fill="#F1F1F1" height="96.8906" id="Tablet" rx="2.5" ry="2.5" style="stroke:#181818;stroke-width:0.5;" width="272" x="448" y="254.23"/><ellipse cx="558.25" cy="270.23" fill="#ADD1B2" rx="11" ry="11" style="stroke:#181818;stroke-width:1.0;"/><path d="M561.2188,275.8706 Q560.6406,276.1675 560,276.3081 Q559.3594,276.4644 558.6563,276.4644 Q556.1563,276.4644 554.8281,274.8238 Q553.5156,273.1675 553.5156,270.0425 Q553.5156,266.9175 554.8281,265.2613 Q556.1563,263.605 558.6563,263.605 Q559.3594,263.605 560,263.7613 Q560.6563,263.9175 561.2188,264.2144 L561.2188,266.9331 Q560.5938,266.355 560,266.0894 Q559.4063,265.8081 558.7813,265.8081 Q557.4375,265.8081 556.75,266.8863 Q556.0625,267.9488 556.0625,270.0425 Q556.0625,272.1363 556.75,273.2144 Q557.4375,274.2769 558.7813,274.2769 Q559.4063,274.2769 560,274.0113 Q560.5938,273.73 561.2188,273.1519 L561.2188,275.8706 Z " fill="#000000"/><text fill="#000000" font-family="sans-serif" font-size="14" lengthAdjust="spacing" textLength="43" x="578.75" y="275.0767">Tablet</text><line style="stroke:#181818;stroke-width:0.5;" x1="449" x2="719" y1="286.23" y2="286.23"/><rect fill="none" height="6" style="stroke:#C82930;stroke-width:1.0;" width="6" x="456" y="296.8784"/><text fill="#000000" font-family="sans-serif" font-size="14" lengthAdjust="spacing" textLength="79" x="468" y="303.2251">type: String</text><line style="stroke:#181818;stroke-width:0.5;" x1="449" x2="719" y1="310.5269" y2="310.5269"/><ellipse cx="459" cy="324.1753" fill="#84BE84" rx="3" ry="3" style="stroke:#038048;stroke-width:1.0;"/><text fill="#000000" font-family="sans-serif" font-size="14" lengthAdjust="spacing" textLength="246" x="468" y="327.522">connecterStylus(stylet: Stylus): void</text><ellipse cx="459" cy="340.4722" fill="#84BE84" rx="3" ry="3" style="stroke:#038048;stroke-width:1.0;"/><text fill="#000000" font-family="sans-serif" font-size="14" lengthAdjust="spacing" textLength="166" x="468" y="343.8189">recevoirEntr&#233;e(): Entr&#233;e</text></g><!--class File--><g id="elem_File"><rect codeLine="62" fill="#F1F1F1" height="145.7813" id="File" rx="2.5" ry="2.5" style="stroke:#181818;stroke-width:0.5;" width="149" x="754.5" y="229.78"/><ellipse cx="813.25" cy="245.78" fill="#ADD1B2" rx="11" ry="11" style="stroke:#181818;stroke-width:1.0;"/><path d="M816.2188,251.4206 Q815.6406,251.7175 815,251.8581 Q814.3594,252.0144 813.6563,252.0144 Q811.1563,252.0144 809.8281,250.3737 Q808.5156,248.7175 808.5156,245.5925 Q808.5156,242.4675 809.8281,240.8112 Q811.1563,239.155 813.6563,239.155 Q814.3594,239.155 815,239.3112 Q815.6563,239.4675 816.2188,239.7644 L816.2188,242.4831 Q815.5938,241.905 815,241.6394 Q814.4063,241.3581 813.7813,241.3581 Q812.4375,241.3581 811.75,242.4362 Q811.0625,243.4987 811.0625,245.5925 Q811.0625,247.6862 811.75,248.7644 Q812.4375,249.8269 813.7813,249.8269 Q814.4063,249.8269 815,249.5612 Q815.5938,249.28 816.2188,248.7019 L816.2188,251.4206 Z " fill="#000000"/><text fill="#000000" font-family="sans-serif" font-size="14" lengthAdjust="spacing" textLength="23" x="833.75" y="250.6267">File</text><line style="stroke:#181818;stroke-width:0.5;" x1="755.5" x2="902.5" y1="261.78" y2="261.78"/><rect fill="none" height="6" style="stroke:#C82930;stroke-width:1.0;" width="6" x="762.5" y="272.4284"/><text fill="#000000" font-family="sans-serif" font-size="14" lengthAdjust="spacing" textLength="80" x="774.5" y="278.7751">nom: String</text><rect fill="none" height="6" style="stroke:#C82930;stroke-width:1.0;" width="6" x="762.5" y="288.7253"/><text fill="#000000" font-family="sans-serif" font-size="14" lengthAdjust="spacing" textLength="93" x="774.5" y="295.072">format: String</text><rect fill="none" height="6" style="stroke:#C82930;stroke-width:1.0;" width="6" x="762.5" y="305.0222"/><text fill="#000000" font-family="sans-serif" font-size="14" lengthAdjust="spacing" textLength="57" x="774.5" y="311.3689">taille: int</text><line style="stroke:#181818;stroke-width:0.5;" x1="755.5" x2="902.5" y1="318.6706" y2="318.6706"/><ellipse cx="765.5" cy="332.3191" fill="#84BE84" rx="3" ry="3" style="stroke:#038048;stroke-width:1.0;"/><text fill="#000000" font-family="sans-serif" font-size="14" lengthAdjust="spacing" textLength="85" x="774.5" y="335.6657">ouvrir(): void</text><ellipse cx="765.5" cy="348.6159" fill="#84BE84" rx="3" ry="3" style="stroke:#038048;stroke-width:1.0;"/><text fill="#000000" font-family="sans-serif" font-size="14" lengthAdjust="spacing" textLength="92" x="774.5" y="351.9626">fermer(): void</text><ellipse cx="765.5" cy="364.9128" fill="#84BE84" rx="3" ry="3" style="stroke:#038048;stroke-width:1.0;"/><text fill="#000000" font-family="sans-serif" font-size="14" lengthAdjust="spacing" textLength="123" x="774.5" y="368.2595">enregistrer(): void</text></g><!--class Contenu--><g id="elem_Contenu"><rect fill="#F1F1F1" height="48" id="Contenu" rx="2.5" ry="2.5" style="stroke:#181818;stroke-width:0.5;" width="92" x="897" y="979.61"/><ellipse cx="912" cy="995.61" fill="#ADD1B2" rx="11" ry="11" style="stroke:#181818;stroke-width:1.0;"/><path d="M914.9688,1001.2506 Q914.3906,1001.5475 913.75,1001.6881 Q913.1094,1001.8444 912.4063,1001.8444 Q909.9063,1001.8444 908.5781,1000.2038 Q907.2656,998.5475 907.2656,995.4225 Q907.2656,992.2975 908.5781,990.6413 Q909.9063,988.985 912.4063,988.985 Q913.1094,988.985 913.75,989.1413 Q914.4063,989.2975 914.9688,989.5944 L914.9688,992.3131 Q914.3438,991.735 913.75,991.4694 Q913.1563,991.1881 912.5313,991.1881 Q911.1875,991.1881 910.5,992.2663 Q909.8125,993.3288 909.8125,995.4225 Q909.8125,997.5163 910.5,998.5944 Q911.1875,999.6569 912.5313,999.6569 Q913.1563,999.6569 913.75,999.3913 Q914.3438,999.11 914.9688,998.5319 L914.9688,1001.2506 Z " fill="#000000"/><text fill="#000000" font-family="sans-serif" font-size="14" lengthAdjust="spacing" textLength="60" x="926" y="1000.4567">Contenu</text><line style="stroke:#181818;stroke-width:0.5;" x1="898" x2="988" y1="1011.61" y2="1011.61"/><line style="stroke:#181818;stroke-width:0.5;" x1="898" x2="988" y1="1019.61" y2="1019.61"/></g><!--link User to EspaceDeTravail--><g id="link_User_EspaceDeTravail"><path codeLine="71" d="M279.91,343.42 C337.73,376.29 420.55,423.38 485.16,460.11 " fill="none" id="User-EspaceDeTravail" style="stroke:#181818;stroke-width:1.0;"/><text fill="#000000" font-family="sans-serif" font-size="13" lengthAdjust="spacing" textLength="30" x="410" y="418.6269">uses</text></g><!--link EspaceDeTravail to Calque--><g id="link_EspaceDeTravail_Calque"><path codeLine="72" d="M626.22,582.46 C641.65,605.91 659.46,632.99 676.35,658.65 " fill="none" id="EspaceDeTravail-Calque" style="stroke:#181818;stroke-width:1.0;"/><text fill="#000000" font-family="sans-serif" font-size="13" lengthAdjust="spacing" textLength="54" x="654" y="625.1169">contains</text></g><!--link Calque to Contenu--><g id="link_Calque_Contenu"><path codeLine="73" d="M819.94,853.95 C857.77,899.66 899.8,950.42 923.65,979.23 " fill="none" id="Calque-Contenu" style="stroke:#181818;stroke-width:1.0;"/><text fill="#000000" font-family="sans-serif" font-size="13" lengthAdjust="spacing" textLength="54" x="855" y="896.7869">contains</text></g><!--link Calque to Outil--><g id="link_Calque_Outil"><path codeLine="74" d="M614.05,853.6 C580.51,879.23 544.84,906.47 513.31,930.56 " fill="none" id="Calque-Outil" style="stroke:#181818;stroke-width:1.0;"/><text fill="#000000" font-family="sans-serif" font-size="13" lengthAdjust="spacing" textLength="30" x="571" y="896.7869">uses</text></g><!--link Calque to Filtre--><g id="link_Calque_Filtre"><path codeLine="75" d="M740,853.95 C740,885.45 740,919.35 740,946.81 " fill="none" id="Calque-Filtre" style="stroke:#181818;stroke-width:1.0;"/><text fill="#000000" font-family="sans-serif" font-size="13" lengthAdjust="spacing" textLength="30" x="741" y="896.7869">uses</text></g><!--link AI to Calque--><g id="link_AI_Calque"><path codeLine="76" d="M869.06,557.99 C851.04,585.54 826.23,623.49 803.17,658.76 " fill="none" id="AI-Calque" style="stroke:#181818;stroke-width:1.0;"/><text fill="#000000" font-family="sans-serif" font-size="13" lengthAdjust="spacing" textLength="60" x="833" y="625.1169">manages</text></g><!--link Stylus to Tablet--><g id="link_Stylus_Tablet"><path codeLine="77" d="M584,153.18 C584,186.26 584,224.53 584,253.94 " fill="none" id="Stylus-Tablet" style="stroke:#181818;stroke-width:1.0;"/><text fill="#000000" font-family="sans-serif" font-size="13" lengthAdjust="spacing" textLength="58" x="585" y="195.8469">connects</text></g><!--link Tablet to EspaceDeTravail--><g id="link_Tablet_EspaceDeTravail"><path codeLine="78" d="M584,351.39 C584,381.14 584,419.8 584,452.21 " fill="none" id="Tablet-EspaceDeTravail" style="stroke:#181818;stroke-width:1.0;"/><text fill="#000000" font-family="sans-serif" font-size="13" lengthAdjust="spacing" textLength="51" x="585" y="418.6269">controls</text></g><!--link File to EspaceDeTravail--><g id="link_File_EspaceDeTravail"><path codeLine="79" d="M754.16,368.62 C723.62,395.13 688.41,425.69 657.96,452.12 " fill="none" id="File-EspaceDeTravail" style="stroke:#181818;stroke-width:1.0;"/><text fill="#000000" font-family="sans-serif" font-size="13" lengthAdjust="spacing" textLength="77" x="708" y="418.6269">saves works</text></g><!--SRC=[bLHBRjim4Dth55ooQ7m18WXG92bG884BsDrqHyiZWmb5gaDIHLhqFiqvVB4EFugjZrlK2rdpPZJpvbjhwHpxuW3PpuhHRsLiAzZ6epA71BmFNcb51lUkapNSmHPbBvNca6J19lWxmNghzjMlgggJyub-YBDNBHYdh762tRszPrqjzRS0f7XGpb_V9kacgtQoVZwW3MOlsAqD6W9c1OApchXQ8vWoFdElyVWAc1rmOfRVJjooV2drbINcoXzV1MkqbTddgbTExJGblhDM5xxMU30XCaelENWJOae6aClW4ORe9nh9QXywhKX2Fb7qW9IdqZghKb6JGdRbYtLi3RVnALWIbkq-AatnUPF-1ClYh4_9mV-Lmij8RmJj0yB4x4I4vyOEULwn7zQGz9MU8-PKpqOTo1FoJg9iZx-9C8t3vvCmev-pkiXVnSQuMGOZzu-okyxVN6MRcx_pdt7uy6c8x_oBXdNdytodCTv4QEenWREofAyZV_gR1ObeS4EWZfYxDFJdVQ5QZ3emxF2_9kOfE0-uJMtbe-uksQtBJF39S2pPRcBrTyGYsaz8prBSIbemFwJeNpeOdwGwhbNjS_c2uwbUNfJIZC8Zr40ItXiVRq7SfF8w6ftBWzDORAKVOqDbtkwC3JsgoPesWErqTS4W76WOy4n1DDBzNQrcfrAmuC1LKvWio-4IB9uUgUXm5YJgyX5QLkOjBuvFSDcUWjCSdyTefP47WilaaQeqA4M8dN1LGHQJY3JGQbUbGY-QEDc3OzyjFhi_]--></g></svg>