<?xml version="1.0" encoding="us-ascii" standalone="no"?><svg xmlns="http://www.w3.org/2000/svg" xmlns:xlink="http://www.w3.org/1999/xlink" contentStyleType="text/css" height="621px" preserveAspectRatio="none" style="width:742px;height:621px;background:#FFFFFF;" version="1.1" viewBox="0 0 742 621" width="742px" zoomAndPan="magnify"><defs/><g><!--class Stylus--><g id="elem_Stylus"><rect codeLine="2" fill="#F1F1F1" height="145.7813" id="Stylus" rx="2.5" ry="2.5" style="stroke:#181818;stroke-width:0.5;" width="154" x="21" y="172.26"/><ellipse cx="73.25" cy="188.26" fill="#ADD1B2" rx="11" ry="11" style="stroke:#181818;stroke-width:1.0;"/><path d="M76.2188,193.9006 Q75.6406,194.1975 75,194.3381 Q74.3594,194.4944 73.6563,194.4944 Q71.1563,194.4944 69.8281,192.8537 Q68.5156,191.1975 68.5156,188.0725 Q68.5156,184.9475 69.8281,183.2912 Q71.1563,181.635 73.6563,181.635 Q74.3594,181.635 75,181.7912 Q75.6563,181.9475 76.2188,182.2444 L76.2188,184.9631 Q75.5938,184.385 75,184.1194 Q74.4063,183.8381 73.7813,183.8381 Q72.4375,183.8381 71.75,184.9162 Q71.0625,185.9787 71.0625,188.0725 Q71.0625,190.1662 71.75,191.2444 Q72.4375,192.3069 73.7813,192.3069 Q74.4063,192.3069 75,192.0412 Q75.5938,191.76 76.2188,191.1819 L76.2188,193.9006 Z " fill="#000000"/><text fill="#000000" font-family="sans-serif" font-size="14" lengthAdjust="spacing" textLength="41" x="93.75" y="193.1067">Stylus</text><line style="stroke:#181818;stroke-width:0.5;" x1="22" x2="174" y1="204.26" y2="204.26"/><text fill="#000000" font-family="sans-serif" font-size="14" lengthAdjust="spacing" textLength="112" x="27" y="221.2551">Button1: Button</text><text fill="#000000" font-family="sans-serif" font-size="14" lengthAdjust="spacing" textLength="112" x="27" y="237.552">Button2: Button</text><text fill="#000000" font-family="sans-serif" font-size="14" lengthAdjust="spacing" textLength="94" x="27" y="253.8489">Sensitivity: Int</text><text fill="#000000" font-family="sans-serif" font-size="14" lengthAdjust="spacing" textLength="77" x="27" y="270.1457">Size: Pixels</text><line style="stroke:#181818;stroke-width:0.5;" x1="22" x2="174" y1="277.4475" y2="277.4475"/><ellipse cx="32" cy="291.0959" fill="#84BE84" rx="3" ry="3" style="stroke:#038048;stroke-width:1.0;"/><text fill="#000000" font-family="sans-serif" font-size="14" lengthAdjust="spacing" textLength="128" x="41" y="294.4426">Adjust_Sensitivity()</text><ellipse cx="32" cy="307.3928" fill="#84BE84" rx="3" ry="3" style="stroke:#038048;stroke-width:1.0;"/><text fill="#000000" font-family="sans-serif" font-size="14" lengthAdjust="spacing" textLength="89" x="41" y="310.7395">Adjust_Size()</text></g><!--class Tablet--><g id="elem_Tablet"><rect codeLine="10" fill="#F1F1F1" height="96.8906" id="Tablet" rx="2.5" ry="2.5" style="stroke:#181818;stroke-width:0.5;" width="101" x="262" y="196.71"/><ellipse cx="288.7" cy="212.71" fill="#ADD1B2" rx="11" ry="11" style="stroke:#181818;stroke-width:1.0;"/><path d="M291.6688,218.3506 Q291.0906,218.6475 290.45,218.7881 Q289.8094,218.9444 289.1063,218.9444 Q286.6063,218.9444 285.2781,217.3037 Q283.9656,215.6475 283.9656,212.5225 Q283.9656,209.3975 285.2781,207.7412 Q286.6063,206.085 289.1063,206.085 Q289.8094,206.085 290.45,206.2412 Q291.1063,206.3975 291.6688,206.6944 L291.6688,209.4131 Q291.0438,208.835 290.45,208.5694 Q289.8563,208.2881 289.2313,208.2881 Q287.8875,208.2881 287.2,209.3662 Q286.5125,210.4287 286.5125,212.5225 Q286.5125,214.6162 287.2,215.6944 Q287.8875,216.7569 289.2313,216.7569 Q289.8563,216.7569 290.45,216.4912 Q291.0438,216.21 291.6688,215.6319 L291.6688,218.3506 Z " fill="#000000"/><text fill="#000000" font-family="sans-serif" font-size="14" lengthAdjust="spacing" textLength="43" x="305.3" y="217.5567">Tablet</text><line style="stroke:#181818;stroke-width:0.5;" x1="263" x2="362" y1="228.71" y2="228.71"/><text fill="#000000" font-family="sans-serif" font-size="14" lengthAdjust="spacing" textLength="89" x="268" y="245.7051">Name: String</text><line style="stroke:#181818;stroke-width:0.5;" x1="263" x2="362" y1="253.0069" y2="253.0069"/><ellipse cx="273" cy="266.6553" fill="#84BE84" rx="3" ry="3" style="stroke:#038048;stroke-width:1.0;"/><text fill="#000000" font-family="sans-serif" font-size="14" lengthAdjust="spacing" textLength="69" x="282" y="270.002">Turn_On()</text><ellipse cx="273" cy="282.9522" fill="#84BE84" rx="3" ry="3" style="stroke:#038048;stroke-width:1.0;"/><text fill="#000000" font-family="sans-serif" font-size="14" lengthAdjust="spacing" textLength="68" x="282" y="286.2989">Turn_Off()</text></g><!--class Tool--><g id="elem_Tool"><rect codeLine="17" fill="#F1F1F1" height="162.0781" id="Tool" rx="2.5" ry="2.5" style="stroke:#181818;stroke-width:0.5;" width="119" x="38.5" y="353.11"/><ellipse cx="79.15" cy="369.11" fill="#ADD1B2" rx="11" ry="11" style="stroke:#181818;stroke-width:1.0;"/><path d="M82.1188,374.7506 Q81.5406,375.0475 80.9,375.1881 Q80.2594,375.3444 79.5563,375.3444 Q77.0563,375.3444 75.7281,373.7037 Q74.4156,372.0475 74.4156,368.9225 Q74.4156,365.7975 75.7281,364.1412 Q77.0563,362.485 79.5563,362.485 Q80.2594,362.485 80.9,362.6412 Q81.5563,362.7975 82.1188,363.0944 L82.1188,365.8131 Q81.4938,365.235 80.9,364.9694 Q80.3063,364.6881 79.6813,364.6881 Q78.3375,364.6881 77.65,365.7662 Q76.9625,366.8287 76.9625,368.9225 Q76.9625,371.0162 77.65,372.0944 Q78.3375,373.1569 79.6813,373.1569 Q80.3063,373.1569 80.9,372.8912 Q81.4938,372.61 82.1188,372.0319 L82.1188,374.7506 Z " fill="#000000"/><text fill="#000000" font-family="sans-serif" font-size="14" lengthAdjust="spacing" textLength="30" x="98.85" y="373.9567">Tool</text><line style="stroke:#181818;stroke-width:0.5;" x1="39.5" x2="156.5" y1="385.11" y2="385.11"/><text fill="#000000" font-family="sans-serif" font-size="14" lengthAdjust="spacing" textLength="89" x="44.5" y="402.1051">Name: String</text><text fill="#000000" font-family="sans-serif" font-size="14" lengthAdjust="spacing" textLength="77" x="44.5" y="418.402">Size: Pixels</text><text fill="#000000" font-family="sans-serif" font-size="14" lengthAdjust="spacing" textLength="81" x="44.5" y="434.6989">Color: Color</text><line style="stroke:#181818;stroke-width:0.5;" x1="39.5" x2="156.5" y1="442.0006" y2="442.0006"/><ellipse cx="49.5" cy="455.6491" fill="#84BE84" rx="3" ry="3" style="stroke:#038048;stroke-width:1.0;"/><text fill="#000000" font-family="sans-serif" font-size="14" lengthAdjust="spacing" textLength="90" x="58.5" y="458.9957">Select_Tool()</text><ellipse cx="49.5" cy="471.9459" fill="#84BE84" rx="3" ry="3" style="stroke:#038048;stroke-width:1.0;"/><text fill="#000000" font-family="sans-serif" font-size="14" lengthAdjust="spacing" textLength="91" x="58.5" y="475.2926">Import_Tool()</text><ellipse cx="49.5" cy="488.2428" fill="#84BE84" rx="3" ry="3" style="stroke:#038048;stroke-width:1.0;"/><text fill="#000000" font-family="sans-serif" font-size="14" lengthAdjust="spacing" textLength="93" x="58.5" y="491.5895">Create_Tool()</text><ellipse cx="49.5" cy="504.5397" fill="#84BE84" rx="3" ry="3" style="stroke:#038048;stroke-width:1.0;"/><text fill="#000000" font-family="sans-serif" font-size="14" lengthAdjust="spacing" textLength="93" x="58.5" y="507.8864">Delete_Tool()</text></g><!--class Color--><g id="elem_Color"><rect codeLine="27" fill="#F1F1F1" height="64.2969" id="Color" rx="2.5" ry="2.5" style="stroke:#181818;stroke-width:0.5;" width="137" x="29.5" y="550"/><ellipse cx="75.75" cy="566" fill="#ADD1B2" rx="11" ry="11" style="stroke:#181818;stroke-width:1.0;"/><path d="M78.7188,571.6406 Q78.1406,571.9375 77.5,572.0781 Q76.8594,572.2344 76.1563,572.2344 Q73.6563,572.2344 72.3281,570.5938 Q71.0156,568.9375 71.0156,565.8125 Q71.0156,562.6875 72.3281,561.0313 Q73.6563,559.375 76.1563,559.375 Q76.8594,559.375 77.5,559.5313 Q78.1563,559.6875 78.7188,559.9844 L78.7188,562.7031 Q78.0938,562.125 77.5,561.8594 Q76.9063,561.5781 76.2813,561.5781 Q74.9375,561.5781 74.25,562.6563 Q73.5625,563.7188 73.5625,565.8125 Q73.5625,567.9063 74.25,568.9844 Q74.9375,570.0469 76.2813,570.0469 Q76.9063,570.0469 77.5,569.7813 Q78.0938,569.5 78.7188,568.9219 L78.7188,571.6406 Z " fill="#000000"/><text fill="#000000" font-family="sans-serif" font-size="14" lengthAdjust="spacing" textLength="36" x="96.25" y="570.8467">Color</text><line style="stroke:#181818;stroke-width:0.5;" x1="30.5" x2="165.5" y1="582" y2="582"/><text fill="#000000" font-family="sans-serif" font-size="14" lengthAdjust="spacing" textLength="125" x="35.5" y="598.9951">color_code: String</text><line style="stroke:#181818;stroke-width:0.5;" x1="30.5" x2="165.5" y1="606.2969" y2="606.2969"/></g><!--class Workspace--><g id="elem_Workspace"><rect codeLine="31" fill="#F1F1F1" height="113.1875" id="Workspace" rx="2.5" ry="2.5" style="stroke:#181818;stroke-width:0.5;" width="182" x="7" y="24.56"/><ellipse cx="55.25" cy="40.56" fill="#ADD1B2" rx="11" ry="11" style="stroke:#181818;stroke-width:1.0;"/><path d="M58.2188,46.2006 Q57.6406,46.4975 57,46.6381 Q56.3594,46.7944 55.6563,46.7944 Q53.1563,46.7944 51.8281,45.1537 Q50.5156,43.4975 50.5156,40.3725 Q50.5156,37.2475 51.8281,35.5912 Q53.1563,33.935 55.6563,33.935 Q56.3594,33.935 57,34.0912 Q57.6563,34.2475 58.2188,34.5444 L58.2188,37.2631 Q57.5938,36.685 57,36.4194 Q56.4063,36.1381 55.7813,36.1381 Q54.4375,36.1381 53.75,37.2162 Q53.0625,38.2787 53.0625,40.3725 Q53.0625,42.4662 53.75,43.5444 Q54.4375,44.6069 55.7813,44.6069 Q56.4063,44.6069 57,44.3412 Q57.5938,44.06 58.2188,43.4819 L58.2188,46.2006 Z " fill="#000000"/><text fill="#000000" font-family="sans-serif" font-size="14" lengthAdjust="spacing" textLength="77" x="75.75" y="45.4067">Workspace</text><line style="stroke:#181818;stroke-width:0.5;" x1="8" x2="188" y1="56.56" y2="56.56"/><text fill="#000000" font-family="sans-serif" font-size="14" lengthAdjust="spacing" textLength="170" x="13" y="73.5551">Background_color: Color</text><line style="stroke:#181818;stroke-width:0.5;" x1="8" x2="188" y1="80.8569" y2="80.8569"/><ellipse cx="18" cy="94.5053" fill="#84BE84" rx="3" ry="3" style="stroke:#038048;stroke-width:1.0;"/><text fill="#000000" font-family="sans-serif" font-size="14" lengthAdjust="spacing" textLength="72" x="27" y="97.852">open_file()</text><ellipse cx="18" cy="110.8022" fill="#84BE84" rx="3" ry="3" style="stroke:#038048;stroke-width:1.0;"/><text fill="#000000" font-family="sans-serif" font-size="14" lengthAdjust="spacing" textLength="68" x="27" y="114.1489">save_file()</text><ellipse cx="18" cy="127.0991" fill="#84BE84" rx="3" ry="3" style="stroke:#038048;stroke-width:1.0;"/><text fill="#000000" font-family="sans-serif" font-size="14" lengthAdjust="spacing" textLength="80" x="27" y="130.4457">create_file()</text></g><!--class File--><g id="elem_File"><rect codeLine="38" fill="#F1F1F1" height="129.4844" id="File" rx="2.5" ry="2.5" style="stroke:#181818;stroke-width:0.5;" width="123" x="251" y="16.41"/><ellipse cx="296.75" cy="32.41" fill="#ADD1B2" rx="11" ry="11" style="stroke:#181818;stroke-width:1.0;"/><path d="M299.7188,38.0506 Q299.1406,38.3475 298.5,38.4881 Q297.8594,38.6444 297.1563,38.6444 Q294.6563,38.6444 293.3281,37.0037 Q292.0156,35.3475 292.0156,32.2225 Q292.0156,29.0975 293.3281,27.4412 Q294.6563,25.785 297.1563,25.785 Q297.8594,25.785 298.5,25.9412 Q299.1563,26.0975 299.7188,26.3944 L299.7188,29.1131 Q299.0938,28.535 298.5,28.2694 Q297.9063,27.9881 297.2813,27.9881 Q295.9375,27.9881 295.25,29.0662 Q294.5625,30.1287 294.5625,32.2225 Q294.5625,34.3162 295.25,35.3944 Q295.9375,36.4569 297.2813,36.4569 Q297.9063,36.4569 298.5,36.1912 Q299.0938,35.91 299.7188,35.3319 L299.7188,38.0506 Z " fill="#000000"/><text fill="#000000" font-family="sans-serif" font-size="14" lengthAdjust="spacing" textLength="23" x="317.25" y="37.2567">File</text><line style="stroke:#181818;stroke-width:0.5;" x1="252" x2="373" y1="48.41" y2="48.41"/><text fill="#000000" font-family="sans-serif" font-size="14" lengthAdjust="spacing" textLength="89" x="257" y="65.4051">Name: String</text><text fill="#000000" font-family="sans-serif" font-size="14" lengthAdjust="spacing" textLength="111" x="257" y="81.702">Directory: String</text><text fill="#000000" font-family="sans-serif" font-size="14" lengthAdjust="spacing" textLength="92" x="257" y="97.9989">height: Pixels</text><text fill="#000000" font-family="sans-serif" font-size="14" lengthAdjust="spacing" textLength="87" x="257" y="114.2957">Width: Pixels</text><text fill="#000000" font-family="sans-serif" font-size="14" lengthAdjust="spacing" textLength="74" x="257" y="130.5926">style: Style</text><line style="stroke:#181818;stroke-width:0.5;" x1="252" x2="373" y1="137.8944" y2="137.8944"/></g><!--class AI--><g id="elem_AI"><rect codeLine="48" fill="#F1F1F1" height="64.2969" id="AI" rx="2.5" ry="2.5" style="stroke:#181818;stroke-width:0.5;" width="139" x="436" y="7"/><ellipse cx="495.25" cy="23" fill="#ADD1B2" rx="11" ry="11" style="stroke:#181818;stroke-width:1.0;"/><path d="M498.2188,28.6406 Q497.6406,28.9375 497,29.0781 Q496.3594,29.2344 495.6563,29.2344 Q493.1563,29.2344 491.8281,27.5938 Q490.5156,25.9375 490.5156,22.8125 Q490.5156,19.6875 491.8281,18.0313 Q493.1563,16.375 495.6563,16.375 Q496.3594,16.375 497,16.5313 Q497.6563,16.6875 498.2188,16.9844 L498.2188,19.7031 Q497.5938,19.125 497,18.8594 Q496.4063,18.5781 495.7813,18.5781 Q494.4375,18.5781 493.75,19.6563 Q493.0625,20.7188 493.0625,22.8125 Q493.0625,24.9063 493.75,25.9844 Q494.4375,27.0469 495.7813,27.0469 Q496.4063,27.0469 497,26.7813 Q497.5938,26.5 498.2188,25.9219 L498.2188,28.6406 Z " fill="#000000"/><text fill="#000000" font-family="sans-serif" font-size="14" lengthAdjust="spacing" textLength="12" x="515.75" y="27.8467">AI</text><line style="stroke:#181818;stroke-width:0.5;" x1="437" x2="574" y1="39" y2="39"/><line style="stroke:#181818;stroke-width:0.5;" x1="437" x2="574" y1="47" y2="47"/><ellipse cx="447" cy="60.6484" fill="#84BE84" rx="3" ry="3" style="stroke:#038048;stroke-width:1.0;"/><text fill="#000000" font-family="sans-serif" font-size="14" lengthAdjust="spacing" textLength="113" x="456" y="63.9951">TransformStyle()</text></g><!--class Style--><g id="elem_Style"><rect codeLine="53" fill="#F1F1F1" height="64.2969" id="Style" rx="2.5" ry="2.5" style="stroke:#181818;stroke-width:0.5;" width="100" x="635" y="50"/><ellipse cx="665.75" cy="66" fill="#ADD1B2" rx="11" ry="11" style="stroke:#181818;stroke-width:1.0;"/><path d="M668.7188,71.6406 Q668.1406,71.9375 667.5,72.0781 Q666.8594,72.2344 666.1563,72.2344 Q663.6563,72.2344 662.3281,70.5938 Q661.0156,68.9375 661.0156,65.8125 Q661.0156,62.6875 662.3281,61.0313 Q663.6563,59.375 666.1563,59.375 Q666.8594,59.375 667.5,59.5313 Q668.1563,59.6875 668.7188,59.9844 L668.7188,62.7031 Q668.0938,62.125 667.5,61.8594 Q666.9063,61.5781 666.2813,61.5781 Q664.9375,61.5781 664.25,62.6563 Q663.5625,63.7188 663.5625,65.8125 Q663.5625,67.9063 664.25,68.9844 Q664.9375,70.0469 666.2813,70.0469 Q666.9063,70.0469 667.5,69.7813 Q668.0938,69.5 668.7188,68.9219 L668.7188,71.6406 Z " fill="#000000"/><text fill="#000000" font-family="sans-serif" font-size="14" lengthAdjust="spacing" textLength="33" x="683.25" y="70.8467">Style</text><line style="stroke:#181818;stroke-width:0.5;" x1="636" x2="734" y1="82" y2="82"/><text fill="#000000" font-family="sans-serif" font-size="14" lengthAdjust="spacing" textLength="88" x="641" y="98.9951">name: String</text><line style="stroke:#181818;stroke-width:0.5;" x1="636" x2="734" y1="106.2969" y2="106.2969"/></g><!--class User--><g id="elem_User"><rect codeLine="61" fill="#F1F1F1" height="80.5938" id="User" rx="2.5" ry="2.5" style="stroke:#181818;stroke-width:0.5;" width="127" x="249" y="393.85"/><ellipse cx="292.35" cy="409.85" fill="#ADD1B2" rx="11" ry="11" style="stroke:#181818;stroke-width:1.0;"/><path d="M295.3188,415.4906 Q294.7406,415.7875 294.1,415.9281 Q293.4594,416.0844 292.7563,416.0844 Q290.2563,416.0844 288.9281,414.4437 Q287.6156,412.7875 287.6156,409.6625 Q287.6156,406.5375 288.9281,404.8812 Q290.2563,403.225 292.7563,403.225 Q293.4594,403.225 294.1,403.3812 Q294.7563,403.5375 295.3188,403.8344 L295.3188,406.5531 Q294.6938,405.975 294.1,405.7094 Q293.5063,405.4281 292.8813,405.4281 Q291.5375,405.4281 290.85,406.5062 Q290.1625,407.5687 290.1625,409.6625 Q290.1625,411.7562 290.85,412.8344 Q291.5375,413.8969 292.8813,413.8969 Q293.5063,413.8969 294.1,413.6312 Q294.6938,413.35 295.3188,412.7719 L295.3188,415.4906 Z " fill="#000000"/><text fill="#000000" font-family="sans-serif" font-size="14" lengthAdjust="spacing" textLength="32" x="312.65" y="414.6967">User</text><line style="stroke:#181818;stroke-width:0.5;" x1="250" x2="375" y1="425.85" y2="425.85"/><text fill="#000000" font-family="sans-serif" font-size="14" lengthAdjust="spacing" textLength="88" x="255" y="442.8451">name: String</text><line style="stroke:#181818;stroke-width:0.5;" x1="250" x2="375" y1="450.1469" y2="450.1469"/><ellipse cx="260" cy="463.7953" fill="#84BE84" rx="3" ry="3" style="stroke:#038048;stroke-width:1.0;"/><text fill="#000000" font-family="sans-serif" font-size="14" lengthAdjust="spacing" textLength="101" x="269" y="467.142">Add_Account()</text></g><!--link Stylus to Tablet--><g id="link_Stylus_Tablet"><path codeLine="15" d="M175.42,245.15 C204.09,245.15 235.92,245.15 261.59,245.15 " fill="none" id="Stylus-Tablet" style="stroke:#181818;stroke-width:1.0;"/></g><!--link Workspace to File--><g id="link_Workspace_File"><path codeLine="51" d="M189.43,81.15 C210.1,81.15 231.59,81.15 250.67,81.15 " fill="none" id="Workspace-File" style="stroke:#181818;stroke-width:1.0;"/></g><!--link File to AI--><g id="link_File_AI"><path codeLine="52" d="M374.46,67.75 C394,63.45 415.77,58.66 435.83,54.25 " fill="none" id="File-AI" style="stroke:#181818;stroke-width:1.0;"/></g><!--link File to Style--><g id="link_File_Style"><path codeLine="58" d="M374.21,85.9 C393.91,87.23 415.87,88.49 436,89.15 C497.74,91.17 513.25,91.13 575,89.15 C594.52,88.53 615.98,87.27 634.66,85.99 " fill="none" id="File-Style" style="stroke:#181818;stroke-width:1.0;"/></g><!--link AI to Style--><g id="link_AI_Style"><path codeLine="59" d="M575.38,55.84 C595.16,60.63 616.33,65.76 634.68,70.2 " fill="none" id="AI-Style" style="stroke:#181818;stroke-width:1.0;"/></g><!--SRC=[PLBBRi8m4BpxAtni5N5eZxcbe4gvj9L2nJ5o7GSCneli3IgD-FUkdOT1NBAUpUpiP1oZMkG8tEdj3dcZdPAemJ9fXFUymelfVC_uMuS8zYKV3rFZDJKgPRr6VTPuoNbfaJhwJ-NyI_ygundFYcRVUQnlU4_FDsqY1tnbV1bNhyMFKKYhFyIHP2fqscw9l-wShJzjd1tERKlWoWQlVB4OHnaRXG1Cp-vKxfmjmO3BUImigvIX1EemHAfPUJo1It3fb40rmnMH4xnE6wDKpsGejOGcBPuf6t07Vn9IXMo5F6mTTBQfvQqNdi59sRhL9YQJUN5M2Sd1oeXduNV23w6juhM2kwJMJeKBJzUpqGtk4lGKPXIW4iGd-QBiMRPsmleMt36-Zjldxmdv1myiF08eod4qaicQlRCMn2VgiAqeqtaS_VRAFKpIdzFKXPGK70OF_m00]--></g></svg>