<?xml version="1.0" encoding="us-ascii" standalone="no"?><svg xmlns="http://www.w3.org/2000/svg" xmlns:xlink="http://www.w3.org/1999/xlink" contentStyleType="text/css" height="640px" preserveAspectRatio="none" style="width:857px;height:640px;background:#FFFFFF;" version="1.1" viewBox="0 0 857 640" width="857px" zoomAndPan="magnify"><defs/><g><text fill="#000000" font-family="sans-serif" font-size="14" font-weight="bold" lengthAdjust="spacing" textLength="268" x="287.5" y="22.9951">Diagramme de conception d&#233;taill&#233;</text><!--cluster Application de dessin num?rique--><g id="cluster_Application de dessin num&#233;rique"><path d="M8.5,43.2969 L268.5,43.2969 A3.75,3.75 0 0 1 271,45.7969 L278,65.5938 L783.5,65.5938 A2.5,2.5 0 0 1 786,68.0938 L786,631.2769 A2.5,2.5 0 0 1 783.5,633.7769 L8.5,633.7769 A2.5,2.5 0 0 1 6,631.2769 L6,45.7969 A2.5,2.5 0 0 1 8.5,43.2969 " fill="none" style="stroke:#000000;stroke-width:1.5;"/><line style="stroke:#000000;stroke-width:1.5;" x1="6" x2="278" y1="65.5938" y2="65.5938"/><text fill="#000000" font-family="sans-serif" font-size="14" font-weight="bold" lengthAdjust="spacing" textLength="259" x="10" y="58.292">Application de dessin num&#233;rique</text></g><!--entity UI--><g id="elem_UI"><rect fill="#F1F1F1" height="46.2969" rx="2.5" ry="2.5" style="stroke:#181818;stroke-width:0.5;" width="171" x="271.5" y="201.5869"/><rect fill="#F1F1F1" height="10" style="stroke:#181818;stroke-width:0.5;" width="15" x="422.5" y="206.5869"/><rect fill="#F1F1F1" height="2" style="stroke:#181818;stroke-width:0.5;" width="4" x="420.5" y="208.5869"/><rect fill="#F1F1F1" height="2" style="stroke:#181818;stroke-width:0.5;" width="4" x="420.5" y="212.5869"/><text fill="#000000" font-family="sans-serif" font-size="14" lengthAdjust="spacing" textLength="131" x="286.5" y="234.582">Interface utilisateur</text></g><!--entity WorkspaceManager--><g id="elem_WorkspaceManager"><rect fill="#F1F1F1" height="46.2969" rx="2.5" ry="2.5" style="stroke:#181818;stroke-width:0.5;" width="268" x="119" y="324.8869"/><rect fill="#F1F1F1" height="10" style="stroke:#181818;stroke-width:0.5;" width="15" x="367" y="329.8869"/><rect fill="#F1F1F1" height="2" style="stroke:#181818;stroke-width:0.5;" width="4" x="365" y="331.8869"/><rect fill="#F1F1F1" height="2" style="stroke:#181818;stroke-width:0.5;" width="4" x="365" y="335.8869"/><text fill="#000000" font-family="sans-serif" font-size="14" lengthAdjust="spacing" textLength="228" x="134" y="357.882">Gestionnaire d'espaces de travail</text></g><!--entity LayerManager--><g id="elem_LayerManager"><rect fill="#F1F1F1" height="46.2969" rx="2.5" ry="2.5" style="stroke:#181818;stroke-width:0.5;" width="208" x="314" y="448.1869"/><rect fill="#F1F1F1" height="10" style="stroke:#181818;stroke-width:0.5;" width="15" x="502" y="453.1869"/><rect fill="#F1F1F1" height="2" style="stroke:#181818;stroke-width:0.5;" width="4" x="500" y="455.1869"/><rect fill="#F1F1F1" height="2" style="stroke:#181818;stroke-width:0.5;" width="4" x="500" y="459.1869"/><text fill="#000000" font-family="sans-serif" font-size="14" lengthAdjust="spacing" textLength="168" x="329" y="481.182">Gestionnaire de calques</text></g><!--entity DrawingTools--><g id="elem_DrawingTools"><rect fill="#F1F1F1" height="46.2969" rx="2.5" ry="2.5" style="stroke:#181818;stroke-width:0.5;" width="151" x="574.5" y="571.4769"/><rect fill="#F1F1F1" height="10" style="stroke:#181818;stroke-width:0.5;" width="15" x="705.5" y="576.4769"/><rect fill="#F1F1F1" height="2" style="stroke:#181818;stroke-width:0.5;" width="4" x="703.5" y="578.4769"/><rect fill="#F1F1F1" height="2" style="stroke:#181818;stroke-width:0.5;" width="4" x="703.5" y="582.4769"/><text fill="#000000" font-family="sans-serif" font-size="14" lengthAdjust="spacing" textLength="111" x="589.5" y="604.472">Outils de dessin</text></g><!--entity FilterSystem--><g id="elem_FilterSystem"><rect fill="#F1F1F1" height="46.2969" rx="2.5" ry="2.5" style="stroke:#181818;stroke-width:0.5;" width="163" x="331.5" y="571.4769"/><rect fill="#F1F1F1" height="10" style="stroke:#181818;stroke-width:0.5;" width="15" x="474.5" y="576.4769"/><rect fill="#F1F1F1" height="2" style="stroke:#181818;stroke-width:0.5;" width="4" x="472.5" y="578.4769"/><rect fill="#F1F1F1" height="2" style="stroke:#181818;stroke-width:0.5;" width="4" x="472.5" y="582.4769"/><text fill="#000000" font-family="sans-serif" font-size="14" lengthAdjust="spacing" textLength="123" x="346.5" y="604.472">Syst&#232;me de filtres</text></g><!--entity AI_System--><g id="elem_AI_System"><rect fill="#F1F1F1" height="46.2969" rx="2.5" ry="2.5" style="stroke:#181818;stroke-width:0.5;" width="116" x="166" y="571.4769"/><rect fill="#F1F1F1" height="10" style="stroke:#181818;stroke-width:0.5;" width="15" x="262" y="576.4769"/><rect fill="#F1F1F1" height="2" style="stroke:#181818;stroke-width:0.5;" width="4" x="260" y="578.4769"/><rect fill="#F1F1F1" height="2" style="stroke:#181818;stroke-width:0.5;" width="4" x="260" y="582.4769"/><text fill="#000000" font-family="sans-serif" font-size="14" lengthAdjust="spacing" textLength="76" x="181" y="604.472">Syst&#232;me IA</text></g><!--entity StylusManager--><g id="elem_StylusManager"><rect fill="#F1F1F1" height="46.2969" rx="2.5" ry="2.5" style="stroke:#181818;stroke-width:0.5;" width="199" x="358.5" y="78.2969"/><rect fill="#F1F1F1" height="10" style="stroke:#181818;stroke-width:0.5;" width="15" x="537.5" y="83.2969"/><rect fill="#F1F1F1" height="2" style="stroke:#181818;stroke-width:0.5;" width="4" x="535.5" y="85.2969"/><rect fill="#F1F1F1" height="2" style="stroke:#181818;stroke-width:0.5;" width="4" x="535.5" y="89.2969"/><text fill="#000000" font-family="sans-serif" font-size="14" lengthAdjust="spacing" textLength="159" x="373.5" y="111.292">Gestionnaire de stylets</text></g><!--entity TabletManager--><g id="elem_TabletManager"><rect fill="#F1F1F1" height="46.2969" rx="2.5" ry="2.5" style="stroke:#181818;stroke-width:0.5;" width="215" x="21.5" y="201.5869"/><rect fill="#F1F1F1" height="10" style="stroke:#181818;stroke-width:0.5;" width="15" x="216.5" y="206.5869"/><rect fill="#F1F1F1" height="2" style="stroke:#181818;stroke-width:0.5;" width="4" x="214.5" y="208.5869"/><rect fill="#F1F1F1" height="2" style="stroke:#181818;stroke-width:0.5;" width="4" x="214.5" y="212.5869"/><text fill="#000000" font-family="sans-serif" font-size="14" lengthAdjust="spacing" textLength="175" x="36.5" y="234.582">Gestionnaire de tablettes</text></g><!--entity FileManager--><g id="elem_FileManager"><rect fill="#F1F1F1" height="46.2969" rx="2.5" ry="2.5" style="stroke:#181818;stroke-width:0.5;" width="203" x="21.5" y="448.1869"/><rect fill="#F1F1F1" height="10" style="stroke:#181818;stroke-width:0.5;" width="15" x="204.5" y="453.1869"/><rect fill="#F1F1F1" height="2" style="stroke:#181818;stroke-width:0.5;" width="4" x="202.5" y="455.1869"/><rect fill="#F1F1F1" height="2" style="stroke:#181818;stroke-width:0.5;" width="4" x="202.5" y="459.1869"/><text fill="#000000" font-family="sans-serif" font-size="14" lengthAdjust="spacing" textLength="163" x="36.5" y="481.182">Gestionnaire de fichiers</text></g><!--entity Storage--><g id="elem_Storage"><rect fill="#F1F1F1" height="46.2969" rx="2.5" ry="2.5" style="stroke:#181818;stroke-width:0.5;" width="105" x="21.5" y="571.4769"/><rect fill="#F1F1F1" height="10" style="stroke:#181818;stroke-width:0.5;" width="15" x="106.5" y="576.4769"/><rect fill="#F1F1F1" height="2" style="stroke:#181818;stroke-width:0.5;" width="4" x="104.5" y="578.4769"/><rect fill="#F1F1F1" height="2" style="stroke:#181818;stroke-width:0.5;" width="4" x="104.5" y="582.4769"/><text fill="#000000" font-family="sans-serif" font-size="14" lengthAdjust="spacing" textLength="65" x="36.5" y="604.472">Stockage</text></g><!--link UI to WorkspaceManager--><g id="link_UI_WorkspaceManager"><path d="M344.03,248.2369 C335.47,262.2769 323.54,280.3769 311,294.8869 C301.97,305.3369 295.4538,311.7954 285.4338,320.5254 " fill="none" id="UI-to-WorkspaceManager" style="stroke:#181818;stroke-width:1.0;"/><polygon fill="#181818" points="280.91,324.4669,290.3234,321.5706,284.6799,321.1824,285.0681,315.5388,280.91,324.4669" style="stroke:#181818;stroke-width:1.0;"/><text fill="#000000" font-family="sans-serif" font-size="13" lengthAdjust="spacing" textLength="210" x="324" y="290.9538">Utilisation des espaces de travail</text></g><!--link WorkspaceManager to LayerManager--><g id="link_WorkspaceManager_LayerManager"><path d="M334.15,371.6669 C351.3,379.0969 368.32,388.7569 382,401.1869 C395.82,413.7469 403.0692,427.2518 408.7792,442.2018 " fill="none" id="WorkspaceManager-to-LayerManager" style="stroke:#181818;stroke-width:1.0;"/><polygon fill="#181818" points="410.92,447.8069,411.4455,437.972,409.136,443.136,403.9721,440.8265,410.92,447.8069" style="stroke:#181818;stroke-width:1.0;"/><text fill="#000000" font-family="sans-serif" font-size="13" lengthAdjust="spacing" textLength="283" x="396" y="414.2538">Gestion des calques dans l'espace de travail</text></g><!--link LayerManager to DrawingTools--><g id="link_LayerManager_DrawingTools"><path d="M479.81,494.9369 C500.89,503.3669 524.35,513.5669 545,524.4769 C571.05,538.2469 593.9258,553.2602 614.3558,567.6602 " fill="none" id="LayerManager-to-DrawingTools" style="stroke:#181818;stroke-width:1.0;"/><polygon fill="#181818" points="619.26,571.1169,614.2082,562.6623,615.1732,568.2363,609.5992,569.2013,619.26,571.1169" style="stroke:#181818;stroke-width:1.0;"/><text fill="#000000" font-family="sans-serif" font-size="13" lengthAdjust="spacing" textLength="177" x="572" y="537.5438">Utilisation d'outils de dessin</text></g><!--link LayerManager to FilterSystem--><g id="link_LayerManager_FilterSystem"><path d="M413.78,494.8369 C412.27,503.9969 410.75,514.7069 410,524.4769 C408.81,540.0569 409.1273,551.6655 410.1973,565.2055 " fill="none" id="LayerManager-to-FilterSystem" style="stroke:#181818;stroke-width:1.0;"/><polygon fill="#181818" points="410.67,571.1869,413.9486,561.8997,410.2761,566.2024,405.9734,562.53,410.67,571.1869" style="stroke:#181818;stroke-width:1.0;"/><text fill="#000000" font-family="sans-serif" font-size="13" lengthAdjust="spacing" textLength="129" x="411" y="537.5438">Application de filtres</text></g><!--link LayerManager to AI_System--><g id="link_LayerManager_AI_System"><path d="M313.52,489.8769 C291.21,497.5569 269.21,508.6069 252,524.4769 C238.77,536.6869 233.0907,550.2024 229.3507,565.3224 " fill="none" id="LayerManager-to-AI_System" style="stroke:#181818;stroke-width:1.0;"/><polygon fill="#181818" points="227.91,571.1469,233.954,563.3707,229.1106,566.2932,226.1881,561.4497,227.91,571.1469" style="stroke:#181818;stroke-width:1.0;"/><text fill="#000000" font-family="sans-serif" font-size="13" lengthAdjust="spacing" textLength="147" x="253" y="537.5438">Application de styles IA</text></g><!--link StylusManager to DrawingTools--><g id="link_StylusManager_DrawingTools"><path d="M495.75,125.0469 C507.64,133.3469 520.21,143.4669 530,154.5869 C602.4,236.9069 576.29,288.2669 648,371.1869 C662.54,387.9869 673.32,384.5069 688,401.1869 C729.64,448.4769 741.91,463.5569 758,524.4769 C763.85,546.6469 752.9039,559.5285 731.2739,570.1685 " fill="none" id="StylusManager-to-DrawingTools" style="stroke:#181818;stroke-width:1.0;"/><polygon fill="#181818" points="725.89,572.8169,735.7314,572.4336,730.3766,570.6099,732.2002,565.2551,725.89,572.8169" style="stroke:#181818;stroke-width:1.0;"/><text fill="#000000" font-family="sans-serif" font-size="13" lengthAdjust="spacing" textLength="200" x="649" y="352.6038">Utilisation d'outils avec le stylet</text></g><!--link StylusManager to TabletManager--><g id="link_StylusManager_TabletManager"><path d="M396.89,124.9669 C337.98,146.6869 254.9595,177.3012 195.9695,199.0512 " fill="none" id="StylusManager-to-TabletManager" style="stroke:#181818;stroke-width:1.0;"/><polygon fill="#181818" points="190.34,201.1269,200.1681,201.7664,195.0313,199.3972,197.4005,194.2604,190.34,201.1269" style="stroke:#181818;stroke-width:1.0;"/><text fill="#000000" font-family="sans-serif" font-size="13" lengthAdjust="spacing" textLength="207" x="314" y="167.6538">Connexion du stylet &#224; la tablette</text></g><!--link TabletManager to WorkspaceManager--><g id="link_TabletManager_WorkspaceManager"><path d="M112.83,248.1969 C104.63,262.5569 98.26,281.0269 108,294.8869 C116.92,307.5769 123.9515,314.3816 137.6715,321.6716 " fill="none" id="TabletManager-to-WorkspaceManager" style="stroke:#181818;stroke-width:1.0;"/><polygon fill="#181818" points="142.97,324.4869,136.8991,316.7316,138.5546,322.1408,133.1454,323.7962,142.97,324.4869" style="stroke:#181818;stroke-width:1.0;"/><text fill="#000000" font-family="sans-serif" font-size="13" lengthAdjust="spacing" textLength="193" x="109" y="290.9538">Contr&#244;le de l'espace de travail</text></g><!--link FileManager to Storage--><g id="link_FileManager_Storage"><path d="M80.46,494.9469 C69.88,502.7869 59.89,512.6469 54,524.4769 C46.65,539.2469 49.4707,551.8236 56.5707,565.7236 " fill="none" id="FileManager-to-Storage" style="stroke:#181818;stroke-width:1.0;"/><polygon fill="#181818" points="59.3,571.0669,58.7682,561.2324,57.0256,566.6141,51.6438,564.8715,59.3,571.0669" style="stroke:#181818;stroke-width:1.0;"/><text fill="#000000" font-family="sans-serif" font-size="13" lengthAdjust="spacing" textLength="125" x="55" y="537.5438">Gestion des fichiers</text></g><!--link WorkspaceManager to FileManager--><g id="link_WorkspaceManager_FileManager"><path d="M151.7,371.5869 C138.04,378.8569 125.74,388.4769 117,401.1869 C107.72,414.6869 108.3359,427.5894 112.5059,442.1294 " fill="none" id="WorkspaceManager-to-FileManager" style="stroke:#181818;stroke-width:1.0;"/><polygon fill="#181818" points="114.16,447.8969,115.5239,438.1429,112.7816,443.0906,107.8339,440.3484,114.16,447.8969" style="stroke:#181818;stroke-width:1.0;"/><text fill="#000000" font-family="sans-serif" font-size="13" lengthAdjust="spacing" textLength="259" x="118" y="414.2538">Ouvrir/Enregistrer des espaces de travail</text></g><!--SRC=[ZPA_JiD03CRtFeN5qWcnCo1L_5Ca44DRCI24JEgMKw-NObyA5U9T6EdE6-J5S2v7IT86qUag-_lPyVTvuot1cS4Pus91C258CvVIqflCmQJOU3JM5flU4jCvpWWE1ikbDIbMzL8WOXouV55is3pdT01lFT3VNU8yyHHJWjmRQmGzvNmFA31EgevBaXBZqB22-YGwXAIaUiQL3WxTjndFG-KQdMx0-xIwDLeTBa5nXMlYHlTDkOByxXlQpXXVZ9kDiinArJPSYoy-gpDCZVKSWHVw9Ywhj6Xr9eFGCKWUwkNsTkBNbdm56-exbpy_nkEZjliuVHJ-_IcOclJ946-tRTvgwBDWNXoViRvxeJHEuF3mPEV4S0pZw5bbiy2kEG6meonnzVihAYuRCD4ccA0JiD7oDhIXBu5rfzgxzREMj_iHTGiLqKfnD7k_TEljhYxuAXg2e6mu- -_5SKKfs9-CT80Q6L3IgPfFhu6JHoKK7s1ncvq0Qiewh5QMv-BB1X-wFAc5Ad1YZ5hs_kImEnjrpZ7Sv2isV7Jkc6P6r0Bk2jlxDm00]--></g></svg>