<?xml version="1.0" encoding="us-ascii" standalone="no"?><svg xmlns="http://www.w3.org/2000/svg" xmlns:xlink="http://www.w3.org/1999/xlink" contentStyleType="text/css" height="413px" preserveAspectRatio="none" style="width:483px;height:413px;background:#FFFFFF;" version="1.1" viewBox="0 0 483 413" width="483px" zoomAndPan="magnify"><defs/><g><ellipse cx="238.58" cy="16" fill="#222222" rx="10" ry="10" style="stroke:#222222;stroke-width:1.0;"/><g id="Idle"><rect fill="#F1F1F1" height="50" rx="12.5" ry="12.5" style="stroke:#181818;stroke-width:0.5;" width="50" x="213.58" y="103"/><line style="stroke:#181818;stroke-width:0.5;" x1="213.58" x2="263.58" y1="129.2969" y2="129.2969"/><text fill="#000000" font-family="sans-serif" font-size="14" lengthAdjust="spacing" textLength="24" x="226.58" y="120.9951">Idle</text></g><g id="Drawing"><rect fill="#F1F1F1" height="50" rx="12.5" ry="12.5" style="stroke:#181818;stroke-width:0.5;" width="76" x="73.58" y="230"/><line style="stroke:#181818;stroke-width:0.5;" x1="73.58" x2="149.58" y1="256.2969" y2="256.2969"/><text fill="#000000" font-family="sans-serif" font-size="14" lengthAdjust="spacing" textLength="56" x="83.58" y="247.9951">Drawing</text></g><g id="Erasing"><rect fill="#F1F1F1" height="50" rx="12.5" ry="12.5" style="stroke:#181818;stroke-width:0.5;" width="71" x="199.08" y="357"/><line style="stroke:#181818;stroke-width:0.5;" x1="199.08" x2="270.08" y1="383.2969" y2="383.2969"/><text fill="#000000" font-family="sans-serif" font-size="14" lengthAdjust="spacing" textLength="51" x="209.08" y="374.9951">Erasing</text></g><!--link *start* to Idle--><g id="link_*start*_Idle"><path d="M238.58,26.38 C238.58,43.11 238.58,72.59 238.58,96.63 " fill="none" id="*start*-to-Idle" style="stroke:#181818;stroke-width:1.0;"/><polygon fill="#181818" points="238.58,102.63,242.58,93.63,238.58,97.63,234.58,93.63,238.58,102.63" style="stroke:#181818;stroke-width:1.0;"/><text fill="#000000" font-family="sans-serif" font-size="13" lengthAdjust="spacing" textLength="32" x="239.58" y="69.0669">Start</text></g><!--link Idle to Drawing--><g id="link_Idle_Drawing"><path d="M213.35,132.4 C166.39,139.31 68.53,156.59 48.58,183 C35.27,200.62 48.2002,215.8589 68.2702,229.6089 " fill="none" id="Idle-to-Drawing" style="stroke:#181818;stroke-width:1.0;"/><polygon fill="#181818" points="73.22,233,68.0561,224.6135,69.0952,230.1741,63.5346,231.2132,73.22,233" style="stroke:#181818;stroke-width:1.0;"/><text fill="#000000" font-family="sans-serif" font-size="13" lengthAdjust="spacing" textLength="87" x="49.58" y="196.0669">Start Drawing</text></g><!--link Drawing to Idle--><g id="link_Drawing_Idle"><path d="M133.02,229.78 C145.66,215.8 162.16,198.05 177.58,183 C188.92,171.94 197.483,164.1578 208.623,154.4678 " fill="none" id="Drawing-to-Idle" style="stroke:#181818;stroke-width:1.0;"/><polygon fill="#181818" points="213.15,150.53,203.7343,153.4187,209.3775,153.8115,208.9847,159.4547,213.15,150.53" style="stroke:#181818;stroke-width:1.0;"/><text fill="#000000" font-family="sans-serif" font-size="13" lengthAdjust="spacing" textLength="91" x="178.58" y="196.0669">Finish Drawing</text></g><!--link Idle to Erasing--><g id="link_Idle_Erasing"><path d="M259.14,153.24 C265.35,162.04 271.38,172.43 274.58,183 C293.13,244.25 294.64,266.22 274.58,327 C271.07,337.64 268.262,343.1604 261.502,351.8204 " fill="none" id="Idle-to-Erasing" style="stroke:#181818;stroke-width:1.0;"/><polygon fill="#181818" points="257.81,356.55,266.501,351.9168,260.8866,352.6086,260.1948,346.9942,257.81,356.55" style="stroke:#181818;stroke-width:1.0;"/><text fill="#000000" font-family="sans-serif" font-size="13" lengthAdjust="spacing" textLength="83" x="289.58" y="259.5669">Start Erasing</text></g><!--link Erasing to Idle--><g id="link_Erasing_Idle"><path d="M270.36,367.96 C305.88,352.87 358.29,324.25 381.58,280 C414.53,217.38 318.6607,164.6162 269.3507,142.1662 " fill="none" id="Erasing-to-Idle" style="stroke:#181818;stroke-width:1.0;"/><polygon fill="#181818" points="263.89,139.68,270.4236,147.0497,268.4406,141.7518,273.7385,139.7688,263.89,139.68" style="stroke:#181818;stroke-width:1.0;"/><text fill="#000000" font-family="sans-serif" font-size="13" lengthAdjust="spacing" textLength="87" x="388.58" y="259.5669">Finish Erasing</text></g><!--link Drawing to Erasing--><g id="link_Drawing_Erasing"><path d="M73.29,269.16 C42.09,281.99 6,303.04 24.58,327 C45.74,354.29 138.5069,369.4612 192.7269,376.2812 " fill="none" id="Drawing-to-Erasing" style="stroke:#181818;stroke-width:1.0;"/><polygon fill="#181818" points="198.68,377.03,190.2496,371.9381,193.7191,376.406,189.2512,379.8755,198.68,377.03" style="stroke:#181818;stroke-width:1.0;"/><text fill="#000000" font-family="sans-serif" font-size="13" lengthAdjust="spacing" textLength="103" x="25.58" y="323.0669">Switch to Eraser</text></g><!--link Erasing to Drawing--><g id="link_Erasing_Drawing"><path d="M202.76,356.62 C191.85,347.72 179.81,337.31 169.58,327 C155.12,312.42 144.1734,299.2618 133.2334,285.0718 " fill="none" id="Erasing-to-Drawing" style="stroke:#181818;stroke-width:1.0;"/><polygon fill="#181818" points="129.57,280.32,131.8973,289.8899,132.6229,284.2798,138.233,285.0053,129.57,280.32" style="stroke:#181818;stroke-width:1.0;"/><text fill="#000000" font-family="sans-serif" font-size="13" lengthAdjust="spacing" textLength="99" x="170.58" y="323.0669">Switch to Brush</text></g><!--SRC=[YzQALT3LjLFmJCb9LR1I22v9B2hX0dD0eYv5YUMPUUam2HYV2oQEfDCjCo-pE0Ek0cw4Qr5YCR8HK3uNJ1pJ29WAP4kGJ2dFB4dEK2Z91ukb5g4OXEHUk3AdejBY3000]--></g></svg>