<?xml version="1.0" encoding="us-ascii" standalone="no"?><svg xmlns="http://www.w3.org/2000/svg" xmlns:xlink="http://www.w3.org/1999/xlink" contentStyleType="text/css" height="434px" preserveAspectRatio="none" style="width:1311px;height:434px;background:#FFFFFF;" version="1.1" viewBox="0 0 1311 434" width="1311px" zoomAndPan="magnify"><defs/><g><text fill="#000000" font-family="sans-serif" font-size="14" font-weight="bold" lengthAdjust="spacing" textLength="413" x="442.36" y="22.9951">Diagramme de machine d'&#233;tat d'un espace de travail</text><ellipse cx="684.72" cy="53.2969" fill="#222222" rx="10" ry="10" style="stroke:#222222;stroke-width:1.0;"/><g id="Inactif"><rect fill="#F1F1F1" height="50" rx="12.5" ry="12.5" style="stroke:#181818;stroke-width:0.5;" width="60" x="654.72" y="124.2969"/><line style="stroke:#181818;stroke-width:0.5;" x1="654.72" x2="714.72" y1="150.5938" y2="150.5938"/><text fill="#000000" font-family="sans-serif" font-size="14" lengthAdjust="spacing" textLength="40" x="664.72" y="142.292">Inactif</text></g><g id="Actif"><rect fill="#F1F1F1" height="50" rx="12.5" ry="12.5" style="stroke:#181818;stroke-width:0.5;" width="50" x="659.72" y="251.2969"/><line style="stroke:#181818;stroke-width:0.5;" x1="659.72" x2="709.72" y1="277.5938" y2="277.5938"/><text fill="#000000" font-family="sans-serif" font-size="14" lengthAdjust="spacing" textLength="29" x="670.22" y="269.292">Actif</text></g><g id="Modification"><rect fill="#F1F1F1" height="50" rx="12.5" ry="12.5" style="stroke:#181818;stroke-width:0.5;" width="102" x="191.72" y="378.2969"/><line style="stroke:#181818;stroke-width:0.5;" x1="191.72" x2="293.72" y1="404.5938" y2="404.5938"/><text fill="#000000" font-family="sans-serif" font-size="14" lengthAdjust="spacing" textLength="82" x="201.72" y="396.292">Modification</text></g><g id="TransformationAI"><rect fill="#F1F1F1" height="50" rx="12.5" ry="12.5" style="stroke:#181818;stroke-width:0.5;" width="136" x="627.72" y="378.2969"/><line style="stroke:#181818;stroke-width:0.5;" x1="627.72" x2="763.72" y1="404.5938" y2="404.5938"/><text fill="#000000" font-family="sans-serif" font-size="14" lengthAdjust="spacing" textLength="116" x="637.72" y="396.292">TransformationAI</text></g><g id="Sauvegarde"><rect fill="#F1F1F1" height="50" rx="12.5" ry="12.5" style="stroke:#181818;stroke-width:0.5;" width="102" x="1065.72" y="378.2969"/><line style="stroke:#181818;stroke-width:0.5;" x1="1065.72" x2="1167.72" y1="404.5938" y2="404.5938"/><text fill="#000000" font-family="sans-serif" font-size="14" lengthAdjust="spacing" textLength="82" x="1075.72" y="396.292">Sauvegarde</text></g><!--link *start* to Inactif--><g id="link_*start*_Inactif"><path d="M684.72,63.6569 C684.72,77.5869 684.72,98.2469 684.72,117.9469 " fill="none" id="*start*-to-Inactif" style="stroke:#181818;stroke-width:1.0;"/><polygon fill="#181818" points="684.72,123.9469,688.72,114.9469,684.72,118.9469,680.72,114.9469,684.72,123.9469" style="stroke:#181818;stroke-width:1.0;"/></g><!--link Inactif to Actif--><g id="link_Inactif_Actif"><path d="M654.36,153.6269 C623.84,158.7669 578.32,171.7369 556.72,204.2969 C529.82,244.8469 608.8693,263.4847 653.3893,270.7947 " fill="none" id="Inactif-to-Actif" style="stroke:#181818;stroke-width:1.0;"/><polygon fill="#181818" points="659.31,271.7669,651.077,266.3615,654.3761,270.9567,649.7808,274.2558,659.31,271.7669" style="stroke:#181818;stroke-width:1.0;"/><text fill="#000000" font-family="sans-serif" font-size="13" lengthAdjust="spacing" textLength="208" x="557.72" y="217.3638">Ouverture d'un espace de travail</text></g><!--link Actif to Inactif--><g id="link_Actif_Inactif"><path d="M710.02,267.3769 C740.91,256.2369 787.11,233.9469 770.72,204.2969 C758.95,183.0069 740.3978,171.3336 720.7078,162.9236 " fill="none" id="Actif-to-Inactif" style="stroke:#181818;stroke-width:1.0;"/><polygon fill="#181818" points="715.19,160.5669,721.8955,167.7805,719.7881,162.5308,725.0378,160.4235,715.19,160.5669" style="stroke:#181818;stroke-width:1.0;"/><text fill="#000000" font-family="sans-serif" font-size="13" lengthAdjust="spacing" textLength="206" x="774.72" y="217.3638">Fermeture de l'espace de travail</text></g><!--link Actif to Modification--><g id="link_Actif_Modification"><path d="M659.4,277.4769 C546.37,278.5469 91.63,285.6669 49.72,331.2969 C6,378.8869 114.5958,394.2413 185.4858,399.4013 " fill="none" id="Actif-to-Modification" style="stroke:#181818;stroke-width:1.0;"/><polygon fill="#181818" points="191.47,399.8369,182.7841,395.1941,186.4832,399.4739,182.2034,403.1729,191.47,399.8369" style="stroke:#181818;stroke-width:1.0;"/><text fill="#000000" font-family="sans-serif" font-size="13" lengthAdjust="spacing" textLength="337" x="50.72" y="344.3638">&#201;dition du contenu (dessiner, appliquer un outil, etc.)</text></g><!--link Modification to Actif--><g id="link_Modification_Actif"><path d="M293.96,383.7669 C336.86,368.6069 399.85,347.1569 455.72,331.2969 C529,310.4869 611.1769,292.5641 653.5769,283.7041 " fill="none" id="Modification-to-Actif" style="stroke:#181818;stroke-width:1.0;"/><polygon fill="#181818" points="659.45,282.4769,649.8221,280.4023,654.5557,283.4996,651.4585,288.2332,659.45,282.4769" style="stroke:#181818;stroke-width:1.0;"/><text fill="#000000" font-family="sans-serif" font-size="13" lengthAdjust="spacing" textLength="91" x="456.72" y="344.3638">Fin de l'&#233;dition</text></g><!--link Actif to TransformationAI--><g id="link_Actif_TransformationAI"><path d="M659.52,281.2169 C616.38,289.0569 535.44,309.3669 561.72,348.2969 C576.67,370.4369 596.6381,381.7235 621.5581,389.4335 " fill="none" id="Actif-to-TransformationAI" style="stroke:#181818;stroke-width:1.0;"/><polygon fill="#181818" points="627.29,391.2069,619.8744,384.7255,622.5134,389.729,617.5098,392.3681,627.29,391.2069" style="stroke:#181818;stroke-width:1.0;"/><text fill="#000000" font-family="sans-serif" font-size="13" lengthAdjust="spacing" textLength="198" x="562.72" y="344.3638">Demande de transformation IA</text></g><!--link TransformationAI to Actif--><g id="link_TransformationAI_Actif"><path d="M743.67,378.0269 C761.48,365.5169 775.28,349.1569 765.72,331.2969 C754,309.3969 734.5221,297.2529 715.3821,288.8329 " fill="none" id="TransformationAI-to-Actif" style="stroke:#181818;stroke-width:1.0;"/><polygon fill="#181818" points="709.89,286.4169,716.5174,293.7023,714.4667,288.4302,719.7388,286.3796,709.89,286.4169" style="stroke:#181818;stroke-width:1.0;"/><text fill="#000000" font-family="sans-serif" font-size="13" lengthAdjust="spacing" textLength="168" x="769.72" y="344.3638">Fin de la transformation IA</text></g><!--link Actif to Sauvegarde--><g id="link_Actif_Sauvegarde"><path d="M710.05,280.8569 C757.29,287.8569 861.74,305.0569 946.72,331.2969 C987.67,343.9369 1026.8673,360.3152 1060.1273,375.4252 " fill="none" id="Actif-to-Sauvegarde" style="stroke:#181818;stroke-width:1.0;"/><polygon fill="#181818" points="1065.59,377.9069,1059.0504,370.5425,1061.0377,375.8388,1055.7415,377.8261,1065.59,377.9069" style="stroke:#181818;stroke-width:1.0;"/><text fill="#000000" font-family="sans-serif" font-size="13" lengthAdjust="spacing" textLength="162" x="994.72" y="344.3638">Demande de sauvegarde</text></g><!--link Sauvegarde to Actif--><g id="link_Sauvegarde_Actif"><path d="M1150.44,377.8469 C1166.05,363.6169 1178.6,345.6969 1165.72,331.2969 C1135.06,296.9969 810.8455,282.0983 716.0355,278.4383 " fill="none" id="Sauvegarde-to-Actif" style="stroke:#181818;stroke-width:1.0;"/><polygon fill="#181818" points="710.04,278.2069,718.879,282.5511,715.0363,278.3997,719.1876,274.557,710.04,278.2069" style="stroke:#181818;stroke-width:1.0;"/><text fill="#000000" font-family="sans-serif" font-size="13" lengthAdjust="spacing" textLength="132" x="1171.72" y="344.3638">Fin de la sauvegarde</text></g><!--SRC=[TP1DJWCn38NtEOLt1THoW2wGHgegpGAnW1rYOIMUOYa_G-Bq3XobvvYB4MLeITLXbIVxVNvsXCKIx1WF4PqZC0GEzIVx8bVJIL3AcprG6b7NjaGy8blr_l01cyqJz1wryA3KhwZ5hgejlEGZHScH_flINP0pleKzHKSpH61Njr13FGV30siK3hwWqxVXAaq67RoGpt1dAALoK5m3ZgFbhqmHoZ8X2ziraEZ7UtKrfxrWptvUOphDezlqjuW-3I6wodLzyU_8eJVdTPikz9swyIybuGBOPBvY-TC3ncAzIakNkceiom5_tXy0]--></g></svg>