<?xml version="1.0" encoding="us-ascii" standalone="no"?><svg xmlns="http://www.w3.org/2000/svg" xmlns:xlink="http://www.w3.org/1999/xlink" contentStyleType="text/css" height="874px" preserveAspectRatio="none" style="width:1088px;height:874px;background:#FFFFFF;" version="1.1" viewBox="0 0 1088 874" width="1088px" zoomAndPan="magnify"><defs/><g><text fill="#000000" font-family="sans-serif" font-size="14" font-weight="bold" lengthAdjust="spacing" textLength="377" x="362.25" y="27.9951">Cr&#233;ation ou Chargement d'un espace de Travail</text><rect fill="none" height="678.2031" style="stroke:#000000;stroke-width:1.5;" width="1062.5" x="20" y="143.8594"/><rect fill="none" height="559.6719" style="stroke:#000000;stroke-width:1.5;" width="1042.5" x="30" y="255.3906"/><rect fill="none" height="368.0703" style="stroke:#000000;stroke-width:1.5;" width="1022.5" x="40" y="308.6563"/><rect fill="none" height="92.2031" style="stroke:#000000;stroke-width:1.5;" width="604.5" x="50" y="404.0547"/><rect fill="none" height="17.1328" style="stroke:#000000;stroke-width:1.5;" width="93" x="70" y="472.125"/><line style="stroke:#181818;stroke-width:0.5;stroke-dasharray:5.0,5.0;" x1="101" x2="101" y1="73.5938" y2="839.0625"/><line style="stroke:#181818;stroke-width:0.5;stroke-dasharray:5.0,5.0;" x1="611.5" x2="611.5" y1="73.5938" y2="839.0625"/><line style="stroke:#181818;stroke-width:0.5;stroke-dasharray:5.0,5.0;" x1="943.5" x2="943.5" y1="73.5938" y2="839.0625"/><line style="stroke:#181818;stroke-width:0.5;stroke-dasharray:5.0,5.0;" x1="1022.5" x2="1022.5" y1="73.5938" y2="839.0625"/><rect fill="#E2E2F0" height="30.2969" rx="2.5" ry="2.5" style="stroke:#181818;stroke-width:0.5;" width="82" x="60" y="42.2969"/><text fill="#000000" font-family="sans-serif" font-size="14" lengthAdjust="spacing" textLength="68" x="67" y="62.292">Utilisateur</text><rect fill="#E2E2F0" height="30.2969" rx="2.5" ry="2.5" style="stroke:#181818;stroke-width:0.5;" width="82" x="60" y="838.0625"/><text fill="#000000" font-family="sans-serif" font-size="14" lengthAdjust="spacing" textLength="68" x="67" y="858.0576">Utilisateur</text><rect fill="#E2E2F0" height="30.2969" rx="2.5" ry="2.5" style="stroke:#181818;stroke-width:0.5;" width="65" x="579.5" y="42.2969"/><text fill="#000000" font-family="sans-serif" font-size="14" lengthAdjust="spacing" textLength="51" x="586.5" y="62.292">Logiciel</text><rect fill="#E2E2F0" height="30.2969" rx="2.5" ry="2.5" style="stroke:#181818;stroke-width:0.5;" width="65" x="579.5" y="838.0625"/><text fill="#000000" font-family="sans-serif" font-size="14" lengthAdjust="spacing" textLength="51" x="586.5" y="858.0576">Logiciel</text><rect fill="#E2E2F0" height="30.2969" rx="2.5" ry="2.5" style="stroke:#181818;stroke-width:0.5;" width="79" x="904.5" y="42.2969"/><text fill="#000000" font-family="sans-serif" font-size="14" lengthAdjust="spacing" textLength="65" x="911.5" y="62.292">Stockage</text><rect fill="#E2E2F0" height="30.2969" rx="2.5" ry="2.5" style="stroke:#181818;stroke-width:0.5;" width="79" x="904.5" y="838.0625"/><text fill="#000000" font-family="sans-serif" font-size="14" lengthAdjust="spacing" textLength="65" x="911.5" y="858.0576">Stockage</text><rect fill="#E2E2F0" height="30.2969" rx="2.5" ry="2.5" style="stroke:#181818;stroke-width:0.5;" width="59" x="993.5" y="42.2969"/><text fill="#000000" font-family="sans-serif" font-size="14" lengthAdjust="spacing" textLength="45" x="1000.5" y="62.292">Fichier</text><rect fill="#E2E2F0" height="30.2969" rx="2.5" ry="2.5" style="stroke:#181818;stroke-width:0.5;" width="59" x="993.5" y="838.0625"/><text fill="#000000" font-family="sans-serif" font-size="14" lengthAdjust="spacing" textLength="45" x="1000.5" y="858.0576">Fichier</text><polygon fill="#181818" points="600,124.8594,610,128.8594,600,132.8594,604,128.8594" style="stroke:#181818;stroke-width:1.0;"/><line style="stroke:#181818;stroke-width:1.0;" x1="101" x2="606" y1="128.8594" y2="128.8594"/><text fill="#000000" font-family="sans-serif" font-size="13" lengthAdjust="spacing" textLength="487" x="108" y="123.7935">Choix entre cr&#233;er un nouvel espace de travail ou charger un espace existant</text><path d="M20,143.8594 L84,143.8594 L84,150.9922 L74,160.9922 L20,160.9922 L20,143.8594 " fill="#EEEEEE" style="stroke:#000000;stroke-width:1.5;"/><rect fill="none" height="678.2031" style="stroke:#000000;stroke-width:1.5;" width="1062.5" x="20" y="143.8594"/><text fill="#000000" font-family="sans-serif" font-size="13" font-weight="bold" lengthAdjust="spacing" textLength="19" x="35" y="156.9263">alt</text><text fill="#000000" font-family="sans-serif" font-size="11" font-weight="bold" lengthAdjust="spacing" textLength="183" x="99" y="156.0698">[Cr&#233;er un Espace de Travail]</text><polygon fill="#181818" points="600,178.125,610,182.125,600,186.125,604,182.125" style="stroke:#181818;stroke-width:1.0;"/><line style="stroke:#181818;stroke-width:1.0;" x1="101" x2="606" y1="182.125" y2="182.125"/><text fill="#000000" font-family="sans-serif" font-size="13" lengthAdjust="spacing" textLength="299" x="108" y="177.0591">Demande de cr&#233;er un nouvel espace de travail</text><polygon fill="#181818" points="932,207.2578,942,211.2578,932,215.2578,936,211.2578" style="stroke:#181818;stroke-width:1.0;"/><line style="stroke:#181818;stroke-width:1.0;" x1="612" x2="938" y1="211.2578" y2="211.2578"/><text fill="#000000" font-family="sans-serif" font-size="13" lengthAdjust="spacing" textLength="297" x="619" y="206.1919">V&#233;rification de l'espace de stockage disponible</text><polygon fill="#181818" points="623,236.3906,613,240.3906,623,244.3906,619,240.3906" style="stroke:#181818;stroke-width:1.0;"/><line style="stroke:#181818;stroke-width:1.0;" x1="617" x2="943" y1="240.3906" y2="240.3906"/><text fill="#000000" font-family="sans-serif" font-size="13" lengthAdjust="spacing" textLength="308" x="629" y="235.3247">Confirmation de l'espace de stockage disponible</text><path d="M30,255.3906 L94,255.3906 L94,262.5234 L84,272.5234 L30,272.5234 L30,255.3906 " fill="#EEEEEE" style="stroke:#000000;stroke-width:1.5;"/><rect fill="none" height="559.6719" style="stroke:#000000;stroke-width:1.5;" width="1042.5" x="30" y="255.3906"/><text fill="#000000" font-family="sans-serif" font-size="13" font-weight="bold" lengthAdjust="spacing" textLength="19" x="45" y="268.4575">alt</text><text fill="#000000" font-family="sans-serif" font-size="11" font-weight="bold" lengthAdjust="spacing" textLength="141" x="109" y="267.6011">[Stockage Disponible]</text><polygon fill="#181818" points="112,289.6563,102,293.6563,112,297.6563,108,293.6563" style="stroke:#181818;stroke-width:1.0;"/><line style="stroke:#181818;stroke-width:1.0;" x1="106" x2="611" y1="293.6563" y2="293.6563"/><text fill="#000000" font-family="sans-serif" font-size="13" lengthAdjust="spacing" textLength="245" x="118" y="288.5903">Demande des param&#232;tres de cr&#233;ation</text><path d="M40,308.6563 L117,308.6563 L117,315.7891 L107,325.7891 L40,325.7891 L40,308.6563 " fill="#EEEEEE" style="stroke:#000000;stroke-width:1.5;"/><rect fill="none" height="368.0703" style="stroke:#000000;stroke-width:1.5;" width="1022.5" x="40" y="308.6563"/><text fill="#000000" font-family="sans-serif" font-size="13" font-weight="bold" lengthAdjust="spacing" textLength="32" x="55" y="321.7231">loop</text><text fill="#000000" font-family="sans-serif" font-size="11" font-weight="bold" lengthAdjust="spacing" textLength="297" x="132" y="320.8667">[jusqu'&#224; ce que les param&#232;tres soient valides]</text><polygon fill="#181818" points="600,342.9219,610,346.9219,600,350.9219,604,346.9219" style="stroke:#181818;stroke-width:1.0;"/><line style="stroke:#181818;stroke-width:1.0;" x1="101" x2="606" y1="346.9219" y2="346.9219"/><text fill="#000000" font-family="sans-serif" font-size="13" lengthAdjust="spacing" textLength="143" x="108" y="341.856">Envoie les param&#232;tres</text><line style="stroke:#181818;stroke-width:1.0;" x1="612" x2="654" y1="376.0547" y2="376.0547"/><line style="stroke:#181818;stroke-width:1.0;" x1="654" x2="654" y1="376.0547" y2="389.0547"/><line style="stroke:#181818;stroke-width:1.0;" x1="613" x2="654" y1="389.0547" y2="389.0547"/><polygon fill="#181818" points="623,385.0547,613,389.0547,623,393.0547,619,389.0547" style="stroke:#181818;stroke-width:1.0;"/><text fill="#000000" font-family="sans-serif" font-size="13" lengthAdjust="spacing" textLength="177" x="619" y="370.9888">V&#233;rification des param&#232;tres</text><path d="M50,404.0547 L114,404.0547 L114,411.1875 L104,421.1875 L50,421.1875 L50,404.0547 " fill="#EEEEEE" style="stroke:#000000;stroke-width:1.5;"/><rect fill="none" height="92.2031" style="stroke:#000000;stroke-width:1.5;" width="604.5" x="50" y="404.0547"/><text fill="#000000" font-family="sans-serif" font-size="13" font-weight="bold" lengthAdjust="spacing" textLength="19" x="65" y="417.1216">alt</text><text fill="#000000" font-family="sans-serif" font-size="11" font-weight="bold" lengthAdjust="spacing" textLength="145" x="129" y="416.2651">[Param&#232;tres Invalides]</text><polygon fill="#181818" points="112,438.3203,102,442.3203,112,446.3203,108,442.3203" style="stroke:#181818;stroke-width:1.0;"/><line style="stroke:#181818;stroke-width:1.0;" x1="106" x2="611" y1="442.3203" y2="442.3203"/><text fill="#000000" font-family="sans-serif" font-size="13" lengthAdjust="spacing" textLength="228" x="118" y="437.2544">Demande de nouveaux param&#232;tres</text><line style="stroke:#000000;stroke-width:1.0;stroke-dasharray:2.0,2.0;" x1="50" x2="654.5" y1="451.3203" y2="451.3203"/><text fill="#000000" font-family="sans-serif" font-size="11" font-weight="bold" lengthAdjust="spacing" textLength="134" x="55" y="461.5308">[Param&#232;tres Valides]</text><path d="M70,472.125 L158,472.125 L158,479.2578 L148,489.2578 L70,489.2578 L70,472.125 " fill="#EEEEEE" style="stroke:#000000;stroke-width:1.5;"/><rect fill="none" height="17.1328" style="stroke:#000000;stroke-width:1.5;" width="93" x="70" y="472.125"/><text fill="#000000" font-family="sans-serif" font-size="13" font-weight="bold" lengthAdjust="spacing" textLength="43" x="85" y="485.1919">break</text><line style="stroke:#181818;stroke-width:1.0;" x1="612" x2="654" y1="524.3906" y2="524.3906"/><line style="stroke:#181818;stroke-width:1.0;" x1="654" x2="654" y1="524.3906" y2="537.3906"/><line style="stroke:#181818;stroke-width:1.0;" x1="613" x2="654" y1="537.3906" y2="537.3906"/><polygon fill="#181818" points="623,533.3906,613,537.3906,623,541.3906,619,537.3906" style="stroke:#181818;stroke-width:1.0;"/><text fill="#000000" font-family="sans-serif" font-size="13" lengthAdjust="spacing" textLength="154" x="619" y="519.3247">Cr&#233;er l'espace de travail</text><polygon fill="#181818" points="1011,562.5234,1021,566.5234,1011,570.5234,1015,566.5234" style="stroke:#181818;stroke-width:1.0;"/><line style="stroke:#181818;stroke-width:1.0;" x1="612" x2="1017" y1="566.5234" y2="566.5234"/><text fill="#000000" font-family="sans-serif" font-size="13" lengthAdjust="spacing" textLength="184" x="619" y="561.4575">Enregistre l'espace de travail</text><polygon fill="#181818" points="623,591.6563,613,595.6563,623,599.6563,619,595.6563" style="stroke:#181818;stroke-width:1.0;"/><line style="stroke:#181818;stroke-width:1.0;" x1="617" x2="1022" y1="595.6563" y2="595.6563"/><text fill="#000000" font-family="sans-serif" font-size="13" lengthAdjust="spacing" textLength="196" x="629" y="590.5903">Confirmation d'enregistrement</text><polygon fill="#181818" points="112,620.7891,102,624.7891,112,628.7891,108,624.7891" style="stroke:#181818;stroke-width:1.0;"/><line style="stroke:#181818;stroke-width:1.0;" x1="106" x2="611" y1="624.7891" y2="624.7891"/><text fill="#000000" font-family="sans-serif" font-size="13" lengthAdjust="spacing" textLength="253" x="118" y="619.7231">Confirmation de l'espace de travail cr&#233;&#233;</text><line style="stroke:#000000;stroke-width:1.0;stroke-dasharray:2.0,2.0;" x1="40" x2="1062.5" y1="633.7891" y2="633.7891"/><text fill="#000000" font-family="sans-serif" font-size="11" font-weight="bold" lengthAdjust="spacing" textLength="152" x="45" y="643.9995">[Stockage Indisponible]</text><polygon fill="#181818" points="112,664.7266,102,668.7266,112,672.7266,108,668.7266" style="stroke:#181818;stroke-width:1.0;"/><line style="stroke:#181818;stroke-width:1.0;" x1="106" x2="611" y1="668.7266" y2="668.7266"/><text fill="#000000" font-family="sans-serif" font-size="13" lengthAdjust="spacing" textLength="367" x="118" y="663.6606">Notification de l'absence d'espace de stockage disponible</text><line style="stroke:#000000;stroke-width:1.0;stroke-dasharray:2.0,2.0;" x1="30" x2="1072.5" y1="684.7266" y2="684.7266"/><text fill="#000000" font-family="sans-serif" font-size="11" font-weight="bold" lengthAdjust="spacing" textLength="199" x="35" y="694.937">[Charger un Espace de Travail]</text><polygon fill="#181818" points="600,715.6641,610,719.6641,600,723.6641,604,719.6641" style="stroke:#181818;stroke-width:1.0;"/><line style="stroke:#181818;stroke-width:1.0;" x1="101" x2="606" y1="719.6641" y2="719.6641"/><text fill="#000000" font-family="sans-serif" font-size="13" lengthAdjust="spacing" textLength="269" x="108" y="714.5981">Demande de charger un espace de travail</text><polygon fill="#181818" points="1011,744.7969,1021,748.7969,1011,752.7969,1015,748.7969" style="stroke:#181818;stroke-width:1.0;"/><line style="stroke:#181818;stroke-width:1.0;" x1="612" x2="1017" y1="748.7969" y2="748.7969"/><text fill="#000000" font-family="sans-serif" font-size="13" lengthAdjust="spacing" textLength="170" x="619" y="743.731">Charger l'espace de travail</text><polygon fill="#181818" points="623,773.9297,613,777.9297,623,781.9297,619,777.9297" style="stroke:#181818;stroke-width:1.0;"/><line style="stroke:#181818;stroke-width:1.0;" x1="617" x2="1022" y1="777.9297" y2="777.9297"/><text fill="#000000" font-family="sans-serif" font-size="13" lengthAdjust="spacing" textLength="184" x="629" y="772.8638">Confirmation de chargement</text><polygon fill="#181818" points="112,803.0625,102,807.0625,112,811.0625,108,807.0625" style="stroke:#181818;stroke-width:1.0;"/><line style="stroke:#181818;stroke-width:1.0;" x1="106" x2="611" y1="807.0625" y2="807.0625"/><text fill="#000000" font-family="sans-serif" font-size="13" lengthAdjust="spacing" textLength="269" x="118" y="801.9966">Confirmation de l'espace de travail charg&#233;</text><!--SRC=[hLJ1Rjim3BthAtJBQJ_Gmovf2XGOXW7RUcTiDkMgIAua1_cS7Plly8-DSYnPib7NnUf383lau-Dx8ZrvXN9hkmjuCbgQLcwVm1xmYDhBUjDgYQw12cMDyfU54v0IGZHWFLNK00VzzgJ8WSVMId3vQn7spHpuY2h4n7CHyDERwXaE60BYkGYue-g9i2yo78K0vNls_3bHjtBNKnQIdvpTbwyZYniEDdIMtAP5MLqXk5jjsXF_FJRjhqq7-6g07qN1CpdFt4HVAoF38RkPRd9utkPqYqVGTP_qFgM4bmu9YL6Jd3VoeRjOUgJgQZ43gCq8vc9SJQunclOA4rx2c2Xdz2FPuuVXqY48bR1lvu7JNdB1Sf6SvFi1n-wLFNHHj9vM0LMyA6CQ-QTrB-sc-okPz4lB7KoWdA5m_q-WYAiK-Si6xlI9KwTuCu2ykInxQjGooEn3aFL7riMzVgk1jG9VxnwqvqKYg1mMXHyMokujmlCSGjTYwLsiK6yOlVmsJYTbcXrNIZ3Eue67sUAx035fQIWscF329btNI-d2qfJ5fHJkUtUP3rZlI9gmUrr_TCQ-6p_P6B1tg4FrbSEUEoWIf-suGlztFywMyThDE9eUsImvliRjoAQmMdoInG5vy3XeAlZd7m00]--></g></svg>