<?xml version="1.0" encoding="us-ascii" standalone="no"?><svg xmlns="http://www.w3.org/2000/svg" xmlns:xlink="http://www.w3.org/1999/xlink" contentStyleType="text/css" height="478px" preserveAspectRatio="none" style="width:989px;height:478px;background:#FFFFFF;" version="1.1" viewBox="0 0 989 478" width="989px" zoomAndPan="magnify"><defs/><g><text fill="#000000" font-family="sans-serif" font-size="14" font-weight="bold" lengthAdjust="spacing" textLength="802" x="92.5" y="27.9951">Utilisation du stylet pour dessiner et utiliser des outils (pinceaux, gommes) dans un espace de travail</text><line style="stroke:#181818;stroke-width:0.5;stroke-dasharray:5.0,5.0;" x1="46" x2="46" y1="73.5938" y2="443.1875"/><line style="stroke:#181818;stroke-width:0.5;stroke-dasharray:5.0,5.0;" x1="389.5" x2="389.5" y1="73.5938" y2="443.1875"/><line style="stroke:#181818;stroke-width:0.5;stroke-dasharray:5.0,5.0;" x1="885" x2="885" y1="73.5938" y2="443.1875"/><line style="stroke:#181818;stroke-width:0.5;stroke-dasharray:5.0,5.0;" x1="952" x2="952" y1="73.5938" y2="443.1875"/><rect fill="#E2E2F0" height="30.2969" rx="2.5" ry="2.5" style="stroke:#181818;stroke-width:0.5;" width="82" x="5" y="42.2969"/><text fill="#000000" font-family="sans-serif" font-size="14" lengthAdjust="spacing" textLength="68" x="12" y="62.292">Utilisateur</text><rect fill="#E2E2F0" height="30.2969" rx="2.5" ry="2.5" style="stroke:#181818;stroke-width:0.5;" width="82" x="5" y="442.1875"/><text fill="#000000" font-family="sans-serif" font-size="14" lengthAdjust="spacing" textLength="68" x="12" y="462.1826">Utilisateur</text><rect fill="#E2E2F0" height="30.2969" rx="2.5" ry="2.5" style="stroke:#181818;stroke-width:0.5;" width="65" x="357.5" y="42.2969"/><text fill="#000000" font-family="sans-serif" font-size="14" lengthAdjust="spacing" textLength="51" x="364.5" y="62.292">Logiciel</text><rect fill="#E2E2F0" height="30.2969" rx="2.5" ry="2.5" style="stroke:#181818;stroke-width:0.5;" width="65" x="357.5" y="442.1875"/><text fill="#000000" font-family="sans-serif" font-size="14" lengthAdjust="spacing" textLength="51" x="364.5" y="462.1826">Logiciel</text><rect fill="#E2E2F0" height="30.2969" rx="2.5" ry="2.5" style="stroke:#181818;stroke-width:0.5;" width="52" x="859" y="42.2969"/><text fill="#000000" font-family="sans-serif" font-size="14" lengthAdjust="spacing" textLength="38" x="866" y="62.292">Stylet</text><rect fill="#E2E2F0" height="30.2969" rx="2.5" ry="2.5" style="stroke:#181818;stroke-width:0.5;" width="52" x="859" y="442.1875"/><text fill="#000000" font-family="sans-serif" font-size="14" lengthAdjust="spacing" textLength="38" x="866" y="462.1826">Stylet</text><rect fill="#E2E2F0" height="30.2969" rx="2.5" ry="2.5" style="stroke:#181818;stroke-width:0.5;" width="62" x="921" y="42.2969"/><text fill="#000000" font-family="sans-serif" font-size="14" lengthAdjust="spacing" textLength="48" x="928" y="62.292">Calque</text><rect fill="#E2E2F0" height="30.2969" rx="2.5" ry="2.5" style="stroke:#181818;stroke-width:0.5;" width="62" x="921" y="442.1875"/><text fill="#000000" font-family="sans-serif" font-size="14" lengthAdjust="spacing" textLength="48" x="928" y="462.1826">Calque</text><polygon fill="#181818" points="378,100.7266,388,104.7266,378,108.7266,382,104.7266" style="stroke:#181818;stroke-width:1.0;"/><line style="stroke:#181818;stroke-width:1.0;" x1="46" x2="384" y1="104.7266" y2="104.7266"/><text fill="#000000" font-family="sans-serif" font-size="13" lengthAdjust="spacing" textLength="171" x="53" y="99.6606">Ouvre un espace de travail</text><polygon fill="#181818" points="57,129.8594,47,133.8594,57,137.8594,53,133.8594" style="stroke:#181818;stroke-width:1.0;"/><line style="stroke:#181818;stroke-width:1.0;" x1="51" x2="389" y1="133.8594" y2="133.8594"/><text fill="#000000" font-family="sans-serif" font-size="13" lengthAdjust="spacing" textLength="313" x="63" y="128.7935">Confirmation de l'ouverture de l'espace de travail</text><polygon fill="#181818" points="378,158.9922,388,162.9922,378,166.9922,382,162.9922" style="stroke:#181818;stroke-width:1.0;"/><line style="stroke:#181818;stroke-width:1.0;" x1="46" x2="384" y1="162.9922" y2="162.9922"/><text fill="#000000" font-family="sans-serif" font-size="13" lengthAdjust="spacing" textLength="141" x="53" y="157.9263">S&#233;lectionne un calque</text><polygon fill="#181818" points="57,188.125,47,192.125,57,196.125,53,192.125" style="stroke:#181818;stroke-width:1.0;"/><line style="stroke:#181818;stroke-width:1.0;" x1="51" x2="389" y1="192.125" y2="192.125"/><text fill="#000000" font-family="sans-serif" font-size="13" lengthAdjust="spacing" textLength="244" x="63" y="187.0591">Confirmation de la s&#233;lection du calque</text><polygon fill="#181818" points="378,217.2578,388,221.2578,378,225.2578,382,221.2578" style="stroke:#181818;stroke-width:1.0;"/><line style="stroke:#181818;stroke-width:1.0;" x1="46" x2="384" y1="221.2578" y2="221.2578"/><text fill="#000000" font-family="sans-serif" font-size="13" lengthAdjust="spacing" textLength="320" x="53" y="216.1919">S&#233;lectionne un outil (pinceau ou gomme ou etc...)</text><polygon fill="#181818" points="57,246.3906,47,250.3906,57,254.3906,53,250.3906" style="stroke:#181818;stroke-width:1.0;"/><line style="stroke:#181818;stroke-width:1.0;" x1="51" x2="389" y1="250.3906" y2="250.3906"/><text fill="#000000" font-family="sans-serif" font-size="13" lengthAdjust="spacing" textLength="235" x="63" y="245.3247">Confirmation de la s&#233;lection de l'outil</text><polygon fill="#181818" points="873,275.5234,883,279.5234,873,283.5234,877,279.5234" style="stroke:#181818;stroke-width:1.0;"/><line style="stroke:#181818;stroke-width:1.0;" x1="46" x2="879" y1="279.5234" y2="279.5234"/><text fill="#000000" font-family="sans-serif" font-size="13" lengthAdjust="spacing" textLength="252" x="53" y="274.4575">Utilise le stylet pour dessiner ou effacer</text><polygon fill="#181818" points="401,304.6563,391,308.6563,401,312.6563,397,308.6563" style="stroke:#181818;stroke-width:1.0;"/><line style="stroke:#181818;stroke-width:1.0;" x1="395" x2="884" y1="308.6563" y2="308.6563"/><text fill="#000000" font-family="sans-serif" font-size="13" lengthAdjust="spacing" textLength="471" x="407" y="303.5903">Envoie les donn&#233;es d'utilisation de l'outil (trajectoire, pression, inclinaison)</text><polygon fill="#181818" points="940,333.7891,950,337.7891,940,341.7891,944,337.7891" style="stroke:#181818;stroke-width:1.0;"/><line style="stroke:#181818;stroke-width:1.0;" x1="390" x2="946" y1="337.7891" y2="337.7891"/><text fill="#000000" font-family="sans-serif" font-size="13" lengthAdjust="spacing" textLength="158" x="397" y="332.7231">Applique l'outil au calque</text><polygon fill="#181818" points="401,362.9219,391,366.9219,401,370.9219,397,366.9219" style="stroke:#181818;stroke-width:1.0;"/><line style="stroke:#181818;stroke-width:1.0;" x1="395" x2="951" y1="366.9219" y2="366.9219"/><text fill="#000000" font-family="sans-serif" font-size="13" lengthAdjust="spacing" textLength="238" x="407" y="361.856">Confirmation de l'application de l'outil</text><polygon fill="#181818" points="378,392.0547,388,396.0547,378,400.0547,382,396.0547" style="stroke:#181818;stroke-width:1.0;"/><line style="stroke:#181818;stroke-width:1.0;" x1="46" x2="384" y1="396.0547" y2="396.0547"/><text fill="#000000" font-family="sans-serif" font-size="13" lengthAdjust="spacing" textLength="264" x="53" y="390.9888">Termine le travail dans l'espace de travail</text><polygon fill="#181818" points="57,421.1875,47,425.1875,57,429.1875,53,425.1875" style="stroke:#181818;stroke-width:1.0;"/><line style="stroke:#181818;stroke-width:1.0;" x1="51" x2="389" y1="425.1875" y2="425.1875"/><text fill="#000000" font-family="sans-serif" font-size="13" lengthAdjust="spacing" textLength="309" x="63" y="420.1216">Confirme la fin du travail dans l'espace de travail</text><!--SRC=[dLDBJiCm4Dtd5BEZbKeFa0KIgjWXiIWSOEHCga6ERVo9u4WzHo-67RiXWQ08TkFu-SsRzoQUlIHuyIpPeMUje0dW_8Sa3qO72mqvnuein0zXWD7m4NGwETWOLe8mlE_WfBkEt1OQL0w20d861KKmU8izigmgWzQpO8FAZqqfTa4tFSvWZ_eKIv89SwrdW6DM6wzpDRiye7mBb2vpLLNJjhTtN_GrF8NUqhBm4HLVJ0bgE6ZLiksATmJoHeUUh0-Myd71XTyb72zdII9ngK69oAB_q1x1ZHmfIx4wzlUUGx1Zhl6OWqq5UR7VxxV_rvFzyGicb1JhmXU1jBo7IKRRHajjLTxCntbGlURqt44JHxgSKt4JfXi-ge1DpEGrYjDiQGV6fYPQxI3EBbaXEwtcqvPzgk7U6Ccfl5BXw7N1p6Nzt1DC30BNZ9bmF9FjeWV9ch9B-LzRMhBLY8PiMXwMP8tj4m00]--></g></svg>