<?xml version="1.0" encoding="us-ascii" standalone="no"?><svg xmlns="http://www.w3.org/2000/svg" xmlns:xlink="http://www.w3.org/1999/xlink" contentStyleType="text/css" height="404px" preserveAspectRatio="none" style="width:1174px;height:404px;background:#FFFFFF;" version="1.1" viewBox="0 0 1174 404" width="1174px" zoomAndPan="magnify"><defs/><g><text fill="#000000" font-family="sans-serif" font-size="14" font-weight="bold" lengthAdjust="spacing" textLength="465" x="353.5" y="27.9951">Transformation du contenu d'un espace de travail avec l'IA</text><line style="stroke:#181818;stroke-width:0.5;stroke-dasharray:5.0,5.0;" x1="46" x2="46" y1="73.5938" y2="368.7891"/><line style="stroke:#181818;stroke-width:0.5;stroke-dasharray:5.0,5.0;" x1="500.5" x2="500.5" y1="73.5938" y2="368.7891"/><line style="stroke:#181818;stroke-width:0.5;stroke-dasharray:5.0,5.0;" x1="915" x2="915" y1="73.5938" y2="368.7891"/><line style="stroke:#181818;stroke-width:0.5;stroke-dasharray:5.0,5.0;" x1="1126" x2="1126" y1="73.5938" y2="368.7891"/><rect fill="#E2E2F0" height="30.2969" rx="2.5" ry="2.5" style="stroke:#181818;stroke-width:0.5;" width="82" x="5" y="42.2969"/><text fill="#000000" font-family="sans-serif" font-size="14" lengthAdjust="spacing" textLength="68" x="12" y="62.292">Utilisateur</text><rect fill="#E2E2F0" height="30.2969" rx="2.5" ry="2.5" style="stroke:#181818;stroke-width:0.5;" width="82" x="5" y="367.7891"/><text fill="#000000" font-family="sans-serif" font-size="14" lengthAdjust="spacing" textLength="68" x="12" y="387.7842">Utilisateur</text><rect fill="#E2E2F0" height="30.2969" rx="2.5" ry="2.5" style="stroke:#181818;stroke-width:0.5;" width="65" x="468.5" y="42.2969"/><text fill="#000000" font-family="sans-serif" font-size="14" lengthAdjust="spacing" textLength="51" x="475.5" y="62.292">Logiciel</text><rect fill="#E2E2F0" height="30.2969" rx="2.5" ry="2.5" style="stroke:#181818;stroke-width:0.5;" width="65" x="468.5" y="367.7891"/><text fill="#000000" font-family="sans-serif" font-size="14" lengthAdjust="spacing" textLength="51" x="475.5" y="387.7842">Logiciel</text><rect fill="#E2E2F0" height="30.2969" rx="2.5" ry="2.5" style="stroke:#181818;stroke-width:0.5;" width="84" x="873" y="42.2969"/><text fill="#000000" font-family="sans-serif" font-size="14" lengthAdjust="spacing" textLength="70" x="880" y="62.292">AI_System</text><rect fill="#E2E2F0" height="30.2969" rx="2.5" ry="2.5" style="stroke:#181818;stroke-width:0.5;" width="84" x="873" y="367.7891"/><text fill="#000000" font-family="sans-serif" font-size="14" lengthAdjust="spacing" textLength="70" x="880" y="387.7842">AI_System</text><rect fill="#E2E2F0" height="30.2969" rx="2.5" ry="2.5" style="stroke:#181818;stroke-width:0.5;" width="84" x="1084" y="42.2969"/><text fill="#000000" font-family="sans-serif" font-size="14" lengthAdjust="spacing" textLength="70" x="1091" y="62.292">AI_System</text><rect fill="#E2E2F0" height="30.2969" rx="2.5" ry="2.5" style="stroke:#181818;stroke-width:0.5;" width="84" x="1084" y="367.7891"/><text fill="#000000" font-family="sans-serif" font-size="14" lengthAdjust="spacing" textLength="70" x="1091" y="387.7842">AI_System</text><polygon fill="#181818" points="489,100.7266,499,104.7266,489,108.7266,493,104.7266" style="stroke:#181818;stroke-width:1.0;"/><line style="stroke:#181818;stroke-width:1.0;" x1="46" x2="495" y1="104.7266" y2="104.7266"/><text fill="#000000" font-family="sans-serif" font-size="13" lengthAdjust="spacing" textLength="171" x="53" y="99.6606">Ouvre un espace de travail</text><polygon fill="#181818" points="57,129.8594,47,133.8594,57,137.8594,53,133.8594" style="stroke:#181818;stroke-width:1.0;"/><line style="stroke:#181818;stroke-width:1.0;" x1="51" x2="500" y1="133.8594" y2="133.8594"/><text fill="#000000" font-family="sans-serif" font-size="13" lengthAdjust="spacing" textLength="313" x="63" y="128.7935">Confirmation de l'ouverture de l'espace de travail</text><polygon fill="#181818" points="489,158.9922,499,162.9922,489,166.9922,493,162.9922" style="stroke:#181818;stroke-width:1.0;"/><line style="stroke:#181818;stroke-width:1.0;" x1="46" x2="495" y1="162.9922" y2="162.9922"/><text fill="#000000" font-family="sans-serif" font-size="13" lengthAdjust="spacing" textLength="271" x="53" y="157.9263">S&#233;lectionne le style pour la transformation</text><polygon fill="#181818" points="57,188.125,47,192.125,57,196.125,53,192.125" style="stroke:#181818;stroke-width:1.0;"/><line style="stroke:#181818;stroke-width:1.0;" x1="51" x2="500" y1="192.125" y2="192.125"/><text fill="#000000" font-family="sans-serif" font-size="13" lengthAdjust="spacing" textLength="232" x="63" y="187.0591">Confirmation de la s&#233;lection du style</text><polygon fill="#181818" points="489,217.2578,499,221.2578,489,225.2578,493,221.2578" style="stroke:#181818;stroke-width:1.0;"/><line style="stroke:#181818;stroke-width:1.0;" x1="46" x2="495" y1="221.2578" y2="221.2578"/><text fill="#000000" font-family="sans-serif" font-size="13" lengthAdjust="spacing" textLength="429" x="53" y="216.1919">Demande de transformer le contenu de l'espace de travail avec l'IA</text><polygon fill="#181818" points="1114,246.3906,1124,250.3906,1114,254.3906,1118,250.3906" style="stroke:#181818;stroke-width:1.0;"/><line style="stroke:#181818;stroke-width:1.0;" x1="501" x2="1120" y1="250.3906" y2="250.3906"/><text fill="#000000" font-family="sans-serif" font-size="13" lengthAdjust="spacing" textLength="601" x="508" y="245.3247">Demande de transformation IA pour le contenu de l'espace de travail avec le style s&#233;lectionn&#233;</text><polygon fill="#181818" points="512,275.5234,502,279.5234,512,283.5234,508,279.5234" style="stroke:#181818;stroke-width:1.0;"/><line style="stroke:#181818;stroke-width:1.0;" x1="506" x2="1125" y1="279.5234" y2="279.5234"/><text fill="#000000" font-family="sans-serif" font-size="13" lengthAdjust="spacing" textLength="209" x="518" y="274.4575">R&#233;sultats de la transformation IA</text><line style="stroke:#181818;stroke-width:1.0;" x1="501" x2="543" y1="308.6563" y2="308.6563"/><line style="stroke:#181818;stroke-width:1.0;" x1="543" x2="543" y1="308.6563" y2="321.6563"/><line style="stroke:#181818;stroke-width:1.0;" x1="502" x2="543" y1="321.6563" y2="321.6563"/><polygon fill="#181818" points="512,317.6563,502,321.6563,512,325.6563,508,321.6563" style="stroke:#181818;stroke-width:1.0;"/><text fill="#000000" font-family="sans-serif" font-size="13" lengthAdjust="spacing" textLength="400" x="508" y="303.5903">Applique la transformation IA au contenu de l'espace de travail</text><polygon fill="#181818" points="57,346.7891,47,350.7891,57,354.7891,53,350.7891" style="stroke:#181818;stroke-width:1.0;"/><line style="stroke:#181818;stroke-width:1.0;" x1="51" x2="500" y1="350.7891" y2="350.7891"/><text fill="#000000" font-family="sans-serif" font-size="13" lengthAdjust="spacing" textLength="431" x="63" y="345.7231">Confirmation de la transformation du contenu de l'espace de travail</text><!--SRC=[bPD1QiCm44NtEiNiike5iYYOTcCe59fcNGPvKWIof4eZGuxaS_XYbUhObecRDXiXmPy_xyyWLgm9tZsQSBA-HLRMG1D1MiDa8ZIxQ822GqdG4B373fK6x4Y2tjML40uzAwaS6eOZAwq2CaKF6ChdIlPYFzELTDPCzvMWgZyEvy3KPaLL2r4QFpmk1djuZPqds88KiofLb0PxUBBcfEQqb9BOs97dw6byNflTG3WClIQPlKog9GXyJgUpIQWn6nIplGSA8SpEUIS_lhT0dgb5qqpOOrVo6MbUvsQuOfqbthA5RUkHjAukKV_PPPhFaiqClH1BitMcjw4FKJDokCpaglsAkQYidDFgAsuN0SO_SCLzg-BVlz2c_JS0]--></g></svg>